/* XPM */
static char *door21734959594[] = {
/* columns rows colors chars-per-pixel */
"64 72 256 2 ",
"   c black",
".  c blue",
"X  c green",
"o  c red",
"O  c cyan",
"+  c yellow",
"@  c magenta",
"#  c white",
"$  c #7B7B7B",
"%  c #7B7B7B",
"&  c #7B7B7B",
"*  c #7B7B7B",
"=  c #7B7B7B",
"-  c #7B7B7B",
";  c #7B7B7B",
":  c #7B7B7B",
">  c #7B7B7B",
",  c #7B7B7B",
"<  c #7B7B7B",
"1  c #7B7B7B",
"2  c #7B7B7B",
"3  c #7B7B7B",
"4  c #7B7B7B",
"5  c #7B7B7B",
"6  c #7B7B7B",
"7  c #7B7B7B",
"8  c #7B7B7B",
"9  c #7B7B7B",
"0  c #7B7B7B",
"q  c #7B7B7B",
"w  c #7B7B7B",
"e  c #7B7B7B",
"r  c #7B7B7B",
"t  c #7B7B7B",
"y  c #7B7B7B",
"u  c #7B7B7B",
"i  c #7B7B7B",
"p  c #7B7B7B",
"a  c #7B7B7B",
"s  c #7B7B7B",
"d  c #7B7B7B",
"f  c #7B7B7B",
"g  c #7B7B7B",
"h  c #7B7B7B",
"j  c #7B7B7B",
"k  c #7B7B7B",
"l  c #7B7B7B",
"z  c #7B7B7B",
"x  c #7B7B7B",
"c  c #7B7B7B",
"v  c #7B7B7B",
"b  c #7B7B7B",
"n  c #7B7B7B",
"m  c #7B7B7B",
"M  c #7B7B7B",
"N  c #7B7B7B",
"B  c #7B7B7B",
"V  c #7B7B7B",
"C  c #7B7B7B",
"Z  c #7B7B7B",
"A  c #7B7B7B",
"S  c #7B7B7B",
"D  c #7B7B7B",
"F  c #7B7B7B",
"G  c #7B7B7B",
"H  c #7B7B7B",
"J  c #7B7B7B",
"K  c #7B7B7B",
"L  c #7B7B7B",
"P  c #7B7B7B",
"I  c #7B7B7B",
"U  c #7B7B7B",
"Y  c #7B7B7B",
"T  c #7B7B7B",
"R  c #7B7B7B",
"E  c #7B7B7B",
"W  c #7B7B7B",
"Q  c #7B7B7B",
"!  c #7B7B7B",
"~  c #7B7B7B",
"^  c #7B7B7B",
"/  c #7B7B7B",
"(  c #7B7B7B",
")  c #7B7B7B",
"_  c #7B7B7B",
"`  c #7B7B7B",
"'  c #7B7B7B",
"]  c #7B7B7B",
"[  c #7B7B7B",
"{  c #7B7B7B",
"}  c #7B7B7B",
"|  c #7B7B7B",
" . c #7B7B7B",
".. c #7B7B7B",
"X. c #7B7B7B",
"o. c #7B7B7B",
"O. c #7B7B7B",
"+. c #7B7B7B",
"@. c #7B7B7B",
"#. c #7B7B7B",
"$. c #7B7B7B",
"%. c #7B7B7B",
"&. c #7B7B7B",
"*. c #7B7B7B",
"=. c #7B7B7B",
"-. c #7B7B7B",
";. c #7B7B7B",
":. c #7B7B7B",
">. c #7B7B7B",
",. c #7B7B7B",
"<. c #7B7B7B",
"1. c #7B7B7B",
"2. c #7B7B7B",
"3. c #7B7B7B",
"4. c #7B7B7B",
"5. c #7B7B7B",
"6. c #7B7B7B",
"7. c #7B7B7B",
"8. c #7B7B7B",
"9. c #7B7B7B",
"0. c #7B7B7B",
"q. c #7B7B7B",
"w. c #7B7B7B",
"e. c #7B7B7B",
"r. c #7B7B7B",
"t. c #7B7B7B",
"y. c #7B7B7B",
"u. c #7B7B7B",
"i. c #7B7B7B",
"p. c #7B7B7B",
"a. c #7B7B7B",
"s. c #7B7B7B",
"d. c #7B7B7B",
"f. c #7B7B7B",
"g. c #7B7B7B",
"h. c #7B7B7B",
"j. c #7B7B7B",
"k. c #7B7B7B",
"l. c #7B7B7B",
"z. c #7B7B7B",
"x. c #7B7B7B",
"c. c #7B7B7B",
"v. c #7B7B7B",
"b. c #7B7B7B",
"n. c #7B7B7B",
"m. c #7B7B7B",
"M. c #7B7B7B",
"N. c #7B7B7B",
"B. c #7B7B7B",
"V. c #7B7B7B",
"C. c #7B7B7B",
"Z. c #7B7B7B",
"A. c #7B7B7B",
"S. c #7B7B7B",
"D. c #7B7B7B",
"F. c #7B7B7B",
"G. c #7B7B7B",
"H. c #7B7B7B",
"J. c #7B7B7B",
"K. c #7B7B7B",
"L. c #7B7B7B",
"P. c #7B7B7B",
"I. c #7B7B7B",
"U. c #7B7B7B",
"Y. c #7B7B7B",
"T. c #7B7B7B",
"R. c #7B7B7B",
"E. c #7B7B7B",
"W. c #7B7B7B",
"Q. c #7B7B7B",
"!. c #7B7B7B",
"~. c #7B7B7B",
"^. c #7B7B7B",
"/. c #7B7B7B",
"(. c #7B7B7B",
"). c #7B7B7B",
"_. c #7B7B7B",
"`. c #7B7B7B",
"'. c #7B7B7B",
"]. c #7B7B7B",
"[. c #7B7B7B",
"{. c #7B7B7B",
"}. c #7B7B7B",
"|. c #7B7B7B",
" X c #7B7B7B",
".X c #7B7B7B",
"XX c #7B7B7B",
"oX c #7B7B7B",
"OX c #7B7B7B",
"+X c #7B7B7B",
"@X c #7B7B7B",
"#X c #7B7B7B",
"$X c #7B7B7B",
"%X c #7B7B7B",
"&X c #7B7B7B",
"*X c #7B7B7B",
"=X c #7B7B7B",
"-X c #7B7B7B",
";X c #7B7B7B",
":X c #7B7B7B",
">X c #7B7B7B",
",X c #7B7B7B",
"<X c #7B7B7B",
"1X c #7B7B7B",
"2X c #7B7B7B",
"3X c #7B7B7B",
"4X c #7B7B7B",
"5X c #7B7B7B",
"6X c #7B7B7B",
"7X c #7B7B7B",
"8X c #7B7B7B",
"9X c #D59400",
"0X c #BD9C8B",
"qX c #838383",
"wX c #B4B4B4",
"eX c #CD6A00",
"rX c #E6BD00",
"tX c #CDCDCD",
"yX c #734131",
"uX c #8B5A41",
"iX c #DEAC00",
"pX c #AC8373",
"aX c #391008",
"sX c gray74",
"dX c #D58300",
"fX c #5A2918",
"gX c #623120",
"hX c #8B624A",
"jX c #A49C9C",
"kX c #835241",
"lX c #9C735A",
"zX c #622920",
"xX c #AC8B7B",
"cX c #181818",
"vX c #411810",
"bX c #313131",
"nX c gray32",
"mX c #310800",
"MX c #393939",
"NX c gray29",
"BX c #626262",
"VX c #202020",
"CX c #414141",
"ZX c gray16",
"AX c #5A5A5A",
"SX c #4A1810",
"DX c #413939",
"FX c #7B4A39",
"GX c gray3",
"HX c gray58",
"JX c gray45",
"KX c #B4ACAC",
"LX c #A47B62",
"PX c #6A6A6A",
"IX c #7B7B7B",
"UX c #946A52",
/* pixels */
"AXAXAXAXAXAXnXnXnXnXnXAXNXNXAXAXAXAXAXAXAXAXAXAXnXgXvXaXaXaXaXaXaXaXaXaXaXaXaXnXAXnXKXJXAXAXAXAXAXAXAXAXnXnXnXnXnXnXnXnXnXnXnXnX",
"AXAXAXAXAXnXnXnXnXnXnXAXNXNXAXAXAXAXAXAXAXAXAXnXCXuXgXSXSXSXSXSXSXSXSXSXSXSXSXNXAXnXjXJXnXAXAXAXAXAXAXAXnXNXbXZXnXnXnXnXnXnXnXnX",
"AXAXAXAXnXnXnXnXnXnXnXAXNXNXAXAXAXAXAXAXAXAXAXNXMXlXkXeXdX9XiXrXrXiX9XdXeXfXSXCXnXNXjXJXnXAXAXAXAXAXAXAXnXPXnXMXnXnXnXnXnXnXnXnX",
"AXAXAXnXnXnXnXnXnXnXnXAXNXNXAXAXAXAXAXAXAXAXnXCXbXLXhXdX9XiXrXrXrXrXiX9XdXfXSXqXHXjXqXPXnXAXAXAXAXAXAXAXnX$ JXAXnXnXnXnXnXnXnXnX",
"wXwXsXsXsXsXsXsXwXwXsXwXKXsXwXsXtXKXwXsXsXsXwXKXjXLXhXdX9XiXrXrXrXrXiX9XdXfXSXNXnXAXBXbXAXAXAXAXAXAXAXAXnXnXnXnXnXnXnXnXnXnXnXnX",
"JXJXJXJX$ JXJXJXJX$ JXJXJX$ JX$ qXBXJXJX$ $ $ JXBXLXUXeXdX9XiXrXrXiX9XdXeXgXSXcXVXZXbXnXAXAXAXAXAXAXAXAXAXAXAXAXAXAXAXAXAXAXAXAX",
"VXVXZXVXZXVXVXZXVXZXVXVXZXVXVXZXbXGXVXZXZXVXVXcXGXpXlXLXLXLXLXLXLXLXLXLXlXyXSXcXZXbXNXAXAXAXAXAXAXAXAXAXNXNXNXAXNXNXNXAXNXNXNXAX",
"MXMXMXbXbXbXbXbXbXbXbXMXZXZXMXMXMXMXbXbXZXVXcXGXGX0X0X0X0X0X0X0X0X0X0X0X0XxXyXZXMXCXNXnXnXAXAXAXAXAXAXAXNXNXNXAXNXNXNXAXNXNXNXAX",
"AXAXAXnXnXnXnXnXnXnXnXAXNXNXAXAXnXnXNXNXCXbXVXcXGXGXGXGXGXGXGXGXGXGXGXGXGXGXGXGXcXVXbXCXCXNXnXAXAXAXAXAXNXNXNXAXNXNXNXAXNXNXNXAX",
"AXAXAXnXnXnXnXnXnXnXnXAXNXNXAXnXNXNXCXbXZXVXcXcXcXGXGXGXGXGXGXcXcXGXGXcXcXcXVXVXVXcXcXVXVXbXCXNXnXAXAXAXAXAXAXAXAXAXnXnXnXAXAXAX",
"AXAXAXnXnXnXnXnXnXnXnXAXNXCXnXNXCXbXZXcXcXCXbXbXZXVXVXVXVXVXZXbXcXVXZXZXZXbXMXMXMXZXVXVXcXcXVXbXNXnXAXAXAXAXAXAXAXnXcXcXcXnXAXAX",
"AXAXAXAXnXnXnXnXnXnXnXAXCXCXNXbXZXcXZXbXVXNXMXMXbXbXbXbXbXbXMXCXVXbXMXMXMXCXCXCXCXMXMXMXZXVXcXcXVXbXNXnXAXAXAXAXBXVXnXNXqXcXnXAX",
"AXAXAXAXAXnXnXnXnXnXnXnXCXMXbXcXZXbXMXMXZXnXMXMXMXMXMXMXMXCXNXZXMXCXCXCXCXCXCXCXCXCXCXCXMXMXZXVXcXVXbXNXnXAXAXAXBXZXZXqXBXcXnXAX",
"AXAXAXAXAXAXnXnXnXnXNXNXZXVXZXbXMXMXMXMXZXAXMXMXMXMXMXMXMXCXNXZXMXCXCXCXCXCXCXCXCXCXCXCXCXCXMXMXZXcXVXVXMXnXAXAXBXbXNXMXJXVXnXAX",
"AXAXAXAXAXAXAXnXnXNXCXbXcXZXMXMXMXMXMXMXbXAXMXMXMXMXMXMXMXCXNXZXMXCXCXCXCXCXCXCXCXCXCXCXCXCXCXCXMXZXVXcXVXMXnXAXAXBXbXZXVXnXAXAX",
"AXAXAXAXAXAXAXnXNXCXZXcXZXMXMXMXMXMXMXMXbXAXMXMXMXMXMXMXCXNXZXMXCXCXCXCXCXCXCXCXCXCXCXCXCXCXCXCXCXMXMXZXcXVXCXnXAXAXBXBXBXAXAXAX",
"AXAXAXAXAXAXAXNXCXZXbXVXbXMXMXMXMXMXMXMXbXAXMXMXMXMXMXMXCXNXZXMXCXCXCXCXCXCXCXCXCXCXCXCXCXCXCXCXCXCXCXMXZXcXVXMXnXAXAXAXAXAXAXAX",
"AXAXAXAXAXAXnXCXZXVXCXVXbXMXMXMXMXMXMXMXbXAXMXMXMXMXMXMXCXNXZXMXCXCXCXCXCXCXCXCXCXCXCXCXCXCXCXCXCXCXCXCXMXZXcXVXMXnXAXAXAXAXAXAX",
"AXAXAXAXAXnXNXZXVXbXMXCXVXbXMXMXMXMXMXMXbXAXMXMXMXMXMXCXNXZXMXCXCXCXCXCXCXCXCXCXCXCXCXCXCXCXCXCXCXCXCXCXNXCXbXcXVXMXnXAXAXAXAXAX",
"AXAXAXAXAXNXbXVXbXbXMXCXVXbXMXMXMXMXMXMXbXAXMXMXMXMXMXCXNXZXMXCXCXCXCXCXCXCXCXCXCXCXCXCXCXCXCXCXCXNXNXNXnXNXcXGXGXVXMXnXAXAXAXAX",
"AXAXAXAXnXMXVXbXbXbXbXMXCXVXbXMXMXMXMXMXbXAXMXMXMXMXCXNXZXMXCXCXCXCXCXCXCXCXCXCXCXCXCXCXCXCXCXNXNXnXnXnXVXVXbXZXcXGXZXCXAXAXAXAX",
"AXAXAXnXNXbXbXbXbXbXbXMXCXVXbXMXMXMXMXMXbXAXMXMXMXMXCXNXZXMXCXCXCXCXCXCXCXCXCXCXCXCXCXCXNXNXNXnXnXVXVXVXbXbXMXMXbXcXVXMXnXAXAXAX",
"AXAXAXNXbXZXbXbXbXbXbXMXCXVXbXMXMXMXMXMXCXAXMXMXMXMXCXNXZXMXCXCXCXCXCXCXCXCXCXCXCXCXNXNXnXnXnXVXVXbXbXbXMXMXMXMXMXVXcXVXCXAXAXAX",
"AXAXnXMXVXbXbXbXbXbXbXbXMXCXVXbXMXMXMXMXNXAXMXMXMXCXNXZXMXCXCXCXCXCXCXCXCXCXCXNXNXNXnXnXVXVXVXbXbXMXMXMXMXMXMXMXMXbXVXcXZXNXAXAX",
"AXAXNXbXbXbXbXbXbXbXbXbXMXCXVXbXMXMXMXbXAXNXMXMXMXCXNXZXMXCXCXCXCXCXCXCXCXNXNXnXnXnXVXVXbXbXbXMXMXMXMXMXMXMXMXMXMXMXbXcXVXCXAXAX",
"AXnXMXZXbXbXbXbXbXbXbXbXbXMXCXVXbXMXMXbXAXCXMXMXCXNXZXMXCXCXCXCXCXCXCXNXNXnXnXVXVXVXbXbXMXMXMXMXMXMXMXMXMXMXMXMXMXMXMXVXcXZXNXAX",
"AXNXbXbXbXbXbXbXbXbXbXbXbXMXCXVXbXMXMXbXAXMXMXMXCXNXZXMXCXCXCXCXNXNXNXnXnXVXVXbXbXbXMXMXMXMXMXMXMXMXMXMXMXMXMXMXMXMXMXbXcXVXCXAX",
"AXCXZXbXbXbXbXbXbXbXbXbXbXMXCXVXbXMXMXbXAXMXMXMXCXNXZXMXCXCXNXNXnXnXnXVXVXbXbXMXMXMXMXMXMXMXMXMXMXMXMXMXMXMXMXMXMXMXMXMXVXcXbXnX",
"AXMXbXbXbXbXbXbXbXbXbXbXbXbXMXCXVXbXMXbXAXMXMXCXNXZXMXNXNXNXnXnXVXVXVXbXbXMXMXAXAXAXAXAXAXAXAXAXNXCXMXMXMXMXMXMXMXMXMXMXbXcXZXNX",
"nXbXbXbXbXbXbXbXbXbXbXbXbXbXMXCXVXbXMXbXAXMXMXCXNXZXCXnXnXnXO O O O MXNXCXCXCXbXbXbXbXbXbXbXCXNXAXAXAXAXAXAXAXAXAXAXAXnXNXCXVXCX",
"CXZXbXbXbXbXbXbXbXbXbXbXbXbXbXMXCXVXbXbXAXMXCXNXZXCXnXO O O O O O O O O NXNXNXCXCXCXMXMXMXMXMXMXbXbXbXbXbXbXbXbXbXbXbXbXZXcXGXMX",
"MXbXbXbXbXbXbXbXbXbXbXbXbXbXbXMXCXVXbXbXAXMXCXNXZXO O O O O O O O O O O O O O NXNXNXCXCXMXMXMXMXMXMXMXMXMXMXMXMXMXMXMXMXMXbXcXZX",
"bXbXbXbXbXbXbXbXbXbXbXbXbXbXbXMXCXVXbXbXAXMXCXNXO O O O O O O O O O O O O O O O cXcXNXNXCXCXCXMXMXMXMXMXMXMXMXMXMXMXMXMXMXMXcXVX",
"ZXbXbXbXbXbXbXbXbXbXbXVXVXVXbXbXMXCXVXbXMXCXNXO O O O O O O O O O O O O O O O O O bXcXcXNXNXNXCXCXMXMXMXMXMXMXMXMXMXMXMXMXMXcXcX",
"ZXbXbXbXbXbXbXbXbXbXVXbXbXbXVXbXMXCXVXbXMXCXNXO O O O O O O O O O O O O O O O O O MXZXZXcXcXcXNXNXCXCXCXMXMXMXMXMXMXMXMXMXMXVXcX",
"bXbXbXbXbXbXbXbXbXVXbXbXbXbXbXVXbXMXCXVXbXCXNXO O O O O O O O O O O O O O O O O O O CXbXZXZXZXcXcXNXNXNXCXCXMXMXMXMXMXMXMXMXbXVX",
"bXbXbXbXbXbXbXbXbXVXbXbXbXbXbXVXbXMXCXVXbXNXO O O O O O O O O O O O O O O O O O O O CXMXbXbXbXZXZXcXcXcXNXNXCXCXCXMXMXMXMXMXMXVX",
"ZXZXbXbXbXbXbXbXbXVXbXbXbXbXbXVXbXbXMXCXVXCXO O O O O O O O O O O O O O O O O O O O CXMXbXbXbXbXbXZXZXZXcXcXNXNXNXCXCXCXMXMXMXVX",
"cXcXZXZXbXbXbXbXbXbXVXbXbXbXVXbXbXbXMXCXVXO O O O O O O O O O O O O O O O O O O O O O CXMXbXbXbXbXbXbXbXZXZXcXcXcXNXNXNXCXCXMXVX",
"MXMXcXcXZXZXZXbXbXbXbXVXVXVXbXbXbXbXMXCXVXO O O O O O O O O O O O O O O O O O O O O O CXMXbXbXbXbXbXbXbXbXbXZXZXZXcXcXcXNXNXCXZX",
"bXbXMXMXcXcXcXZXZXZXbXbXbXbXbXbXbXbXbXMXCXO O O O O O O O O O O O O O O O O O O O O O cXCXMXbXbXbXbXbXbXbXbXbXbXbXZXZXZXcXcXNXbX",
"ZXZXbXbXMXMXMXcXcXVXZXZXbXbXbXbXbXbXbXMXCXO O O O O O O O O O O O O O O O O O O O O O cXCXMXbXbXbXbXbXbXbXbXbXbXbXbXbXbXZXZXcXGX",
"ZXZXZXZXbXbXbXMXMXMXcXcXZXZXZXbXbXbXbXbXMXNXO O O O O O O O O O O O O O O O O O O O bXcXCXMXbXbXbXbXbXbXbXbXbXbXbXbXbXbXbXbXZXcX",
"ZXZXZXZXZXZXZXbXbXbXMXMXcXcXcXZXZXbXbXbXMXCXO O O O O O O O O O O O O O O O O O O O MXVXcXCXMXbXbXbXbXbXbXbXbXbXbXbXbXbXbXbXbXcX",
"ZXZXZXZXZXZXZXZXZXZXbXbXMXMXMXcXcXZXZXZXMXCXO O O O O O O O O O O O O O O O O O O MXbXVXcXCXMXbXbXbXbXbXbXbXbXbXbXbXbXbXbXbXbXcX",
"ZXZXZXZXZXZXZXZXZXZXZXZXbXbXbXMXMXcXcXcXZXbXMXO O O O O O O O O O O O O O O O O O MXbXZXVXcXCXMXbXbXbXbXbXbXbXbXbXbXbXbXbXbXbXcX",
"qXZXZXZXZXZXZXZXZXZXZXZXZXZXZXbXbXMXMXMXcXcXbXO O O O O O O O O O O O O O O O O O MXbXZXVXcXCXMXbXbXbXbXbXbXbXbXbXbXbXbXbXbXZXJX",
"qXZXZXZXZXZXZXZXZXZXZXZXZXZXZXZXZXbXbXbXMXMXcXcXO O O O O O O O O O O O O O O O MXbXZXNXVXVXcXCXMXbXbXbXbXbXbXbXbXbXbXbXbXbXcXJX",
"$ ZXZXZXZXZXZXZXZXZXZXZXZXZXZXZXZXZXZXZXbXbXMXMXMXO O O O O O O O O O O O O O GXMXbXZXNXVXVXcXCXMXbXbXbXbXbXbXbXbXbXbXbXbXbXcXPX",
"$ ZXZXZXZXZXZXZXZXZXZXZXZXZXZXZXZXZXZXZXZXZXbXbXbXMXMXMXO O O O O O O O O ZXVXGXMXbXZXNXVXVXcXCXMXbXbXbXbXbXbXbXbXbXbXbXbXbXcXPX",
"JXqXMXCXNXNXNXNXNXNXNXNXNXNXNXNXMXbXZXZXZXZXZXZXZXbXbXbXMXVXO O O O bXbXbXcXGXMXbXZXZXNXVXZXVXcXCXMXbXbXbXbXbXbXbXbXbXbXbXZXJXBX",
"PXqXcXVXVXVXVXVXVXVXVXVXVXVXbXMXNXNXNXNXNXNXNXNXNXZXZXVXVXcXcXcXbXbXZXZXVXcXGXMXbXZXZXNXVXZXVXcXCXMXbXbXbXbXbXbXbXbXbXbXbXcXJXAX",
"BX$ ZXZXZXZXZXZXZXZXZXZXZXZXZXZXVXVXVXVXVXVXVXVXVXVXVXcXcXbXbXbXZXZXVXVXcXGXMXbXZXZXZXNXVXZXZXVXcXCXMXbXbXbXbXbXbXbXbXbXbXcXPXAX",
"AXJXqXZXZXZXZXZXZXZXZXZXZXZXZXZXZXZXZXZXZXZXVXVXVXcXcXbXbXZXZXZXVXVXVXVXcXGXMXbXZXZXZXNXVXZXZXVXcXCXMXbXbXbXbXbXbXbXbXbXZXJXBXAX",
"AXPXqXZXZXZXZXZXZXZXZXZXZXZXZXZXZXZXZXZXVXVXcXcXcXbXbXZXZXVXVXVXVXVXVXVXcXGXMXbXZXZXbXNXVXZXZXVXcXCXMXbXbXbXbXbXbXbXbXbXcXJXAXAX",
"AXBXJXqXZXZXZXZXZXZXZXZXZXZXZXZXZXVXVXVXcXcXbXbXbXZXZXVXVXVXVXVXVXVXVXcXGXMXbXZXZXZXMXNXVXZXZXZXVXcXCXMXbXbXbXbXbXbXbXZXJXPXAXAX",
"AXAXPXqXZXZXZXZXZXZXZXZXZXZXZXVXVXcXcXcXbXbXZXZXZXVXVXVXVXVXVXVXVXVXVXcXGXMXbXZXZXZXhXUXlXZXZXZXVXcXCXMXbXbXbXbXbXbXbXcXJXBXAXAX",
"AXAXBXJXqXZXZXZXZXZXZXZXVXVXVXcXcXbXbXbXZXZXVXVXVXVXVXVXVXVXVXVXVXVXcXGXMXbXZXZXZXZXFXuXhXVXZXZXZXVXcXCXMXbXbXbXbXbXZXJXPXAXAXAX",
"AXAXAXPXJXqXZXZXZXZXVXVXcXcXcXbXbXZXZXZXVXVXVXVXVXVXVXVXVXVXVXVXVXVXcXGXMXbXZXZXZXZXyXkXhXVXZXZXZXVXcXCXMXbXbXbXbXZXJXPXBXAXAXAX",
"nXnXnXAXPXqXVXVXVXVXcXcXbXbXbXZXZXVXVXVXVXVXVXVXVXVXVXVXVXVXVXVXVXVXcXGXMXbXZXZXZXZXyXkXuXVXZXZXZXVXcXCXMXbXbXbXbXcXJXBXAXAXAXAX",
"MXMXMXMXCXNXAXcXcXcXbXbXZXZXZXVXVXVXVXVXVXVXVXVXVXVXVXVXVXVXVXVXVXcXGXMXbXZXZXZXZXZXyXFXuXVXZXZXZXZXVXcXCXMXbXbXZXJXPXBXAXAXAXAX",
"NXNXNXNXnXAXPXBXbXbXZXZXVXVXVXVXVXVXVXVXVXVXVXVXVXVXVXVXVXVXVXVXVXcXGXMXbXZXZXZXZXZXgXFXkXVXZXZXZXZXVXcXCXMXbXZXJXPXBXAXnXnXnXnX",
"nXnXnXnXnXAXBXAXqXZXVXVXVXVXVXVXVXVXVXVXVXVXVXVXVXVXVXVXVXVXVXVXcXGXMXbXZXZXZXZXZXZXfXgXyXVXZXZXZXZXZXVXcXCXZXJXPXBXAXAXnXnXnXnX",
"nXnXnXnXnXnXAXnXJXqXVXVXVXVXVXVXVXVXVXVXVXVXVXVXVXVXVXVXVXVXVXVXcXGXMXbXZXZXZXZXZXZXbXcXcXVXZXZXZXZXZXVXcXMXJXPXBXAXAXAXnXnXnXnX",
"nXnXnXnXnXnXnXNXBXJXqXVXVXVXVXVXVXVXVXVXVXVXVXVXVXVXVXVXVXVXVXVXcXGXMXbXZXZXZXZXZXZXNXVXZXZXZXZXZXZXZXVXGXJXPXBXAXAXAXAXnXnXnXnX",
"nXnXnXnXnXnXnXCXAXBXJXqXVXVXVXVXVXVXVXVXVXVXVXVXVXVXVXVXVXVXVXcXGXMXbXZXZXZXZXZXZXZXNXVXZXZXZXZXZXZXZXcXJXPXBXAXAXAXAXAXAXAXAXAX",
"nXnXnXnXnXnXNXCXAXBXPXJXPXqXVXVXVXVXVXVXVXVXVXVXVXVXVXVXVXVXVXcXGXMXbXZXZXZXZXZXZXZXNXVXZXZXZXZXZXVXJXJXPXBXAXAXAXAXAXAXNXNXNXNX",
"nXnXnXnXnXnXNXCXAXAXBXPXAXJXqXVXVXVXVXVXVXVXVXVXVXVXVXVXVXVXVXcXGXMXbXZXZXZXZXZXZXZXNXVXZXZXZXZXVXJXPXPXBXAXBXBXBXBXBXAXNXNXNXNX",
"nXnXnXnXnXnXCXMXAXAXAXBXnXPXJXqXqXVXVXVXVXVXVXVXVXVXVXVXVXVXcXGXMXbXZXZXZXZXZXZXZXZXNXcXZXZXVXJXJXPXBXBXAXNXPXPXPXPXPXnXNXNXNXNX",
"nXnXnXnXBXBXBXBXAXAXAXAXNXBXPXJX$ qXqXVXVXVXVXVXVXVXVXVXVXVXcXGXMXbXZXZXZXZXZXZXZXVXCXcXVXJXJXPXPXBXAXAXnXCXJXJXCXJXJXNXAXAXAXAX",
"nXnXnXNXAXAXAXAXAXAXAXAXCXAXBXPXJXJX$ qXqXqXVXVXVXVXVXVXVXcXGXMXbXZXZXZXZXZXZXZXZXcXJXJXJXPXPXBXBXAXAXnXCXbX$ $ ZX$ $ CXnXAXAXAX",
"nXnXNXCXAXAXAXAXAXAXAXAXCXAXAXBXBXPXJXJXJX$ qXqXqXqXVXVXVXcXGXMXbXZXZXZXZXVXJXJXJXJXPXPXPXBXBXAXAXAXnXNXMXZXqXqXcXqXqXbXCXnXAXAX"
};
