/* XPM */
static char *door51734959594[] = {
/* columns rows colors chars-per-pixel */
"64 72 256 2 ",
"   c black",
".  c blue",
"X  c green",
"o  c red",
"O  c cyan",
"+  c yellow",
"@  c magenta",
"#  c white",
"$  c #7B7B7B",
"%  c #7B7B7B",
"&  c #7B7B7B",
"*  c #7B7B7B",
"=  c #7B7B7B",
"-  c #7B7B7B",
";  c #7B7B7B",
":  c #7B7B7B",
">  c #7B7B7B",
",  c #7B7B7B",
"<  c #7B7B7B",
"1  c #7B7B7B",
"2  c #7B7B7B",
"3  c #7B7B7B",
"4  c #7B7B7B",
"5  c #7B7B7B",
"6  c #7B7B7B",
"7  c #7B7B7B",
"8  c #7B7B7B",
"9  c #7B7B7B",
"0  c #7B7B7B",
"q  c #7B7B7B",
"w  c #7B7B7B",
"e  c #7B7B7B",
"r  c #7B7B7B",
"t  c #7B7B7B",
"y  c #7B7B7B",
"u  c #7B7B7B",
"i  c #7B7B7B",
"p  c #7B7B7B",
"a  c #7B7B7B",
"s  c #7B7B7B",
"d  c #7B7B7B",
"f  c #7B7B7B",
"g  c #7B7B7B",
"h  c #7B7B7B",
"j  c #7B7B7B",
"k  c #7B7B7B",
"l  c #7B7B7B",
"z  c #7B7B7B",
"x  c #7B7B7B",
"c  c #7B7B7B",
"v  c #7B7B7B",
"b  c #7B7B7B",
"n  c #7B7B7B",
"m  c #7B7B7B",
"M  c #7B7B7B",
"N  c #7B7B7B",
"B  c #7B7B7B",
"V  c #7B7B7B",
"C  c #7B7B7B",
"Z  c #7B7B7B",
"A  c #7B7B7B",
"S  c #7B7B7B",
"D  c #7B7B7B",
"F  c #7B7B7B",
"G  c #7B7B7B",
"H  c #7B7B7B",
"J  c #7B7B7B",
"K  c #7B7B7B",
"L  c #7B7B7B",
"P  c #7B7B7B",
"I  c #7B7B7B",
"U  c #7B7B7B",
"Y  c #7B7B7B",
"T  c #7B7B7B",
"R  c #7B7B7B",
"E  c #7B7B7B",
"W  c #7B7B7B",
"Q  c #7B7B7B",
"!  c #7B7B7B",
"~  c #7B7B7B",
"^  c #7B7B7B",
"/  c #7B7B7B",
"(  c #7B7B7B",
")  c #7B7B7B",
"_  c #7B7B7B",
"`  c #7B7B7B",
"'  c #7B7B7B",
"]  c #7B7B7B",
"[  c #7B7B7B",
"{  c #7B7B7B",
"}  c #7B7B7B",
"|  c #7B7B7B",
" . c #7B7B7B",
".. c #7B7B7B",
"X. c #7B7B7B",
"o. c #7B7B7B",
"O. c #7B7B7B",
"+. c #7B7B7B",
"@. c #7B7B7B",
"#. c #7B7B7B",
"$. c #7B7B7B",
"%. c #7B7B7B",
"&. c #7B7B7B",
"*. c #7B7B7B",
"=. c #7B7B7B",
"-. c #7B7B7B",
";. c #7B7B7B",
":. c #7B7B7B",
">. c #7B7B7B",
",. c #7B7B7B",
"<. c #7B7B7B",
"1. c #7B7B7B",
"2. c #7B7B7B",
"3. c #7B7B7B",
"4. c #7B7B7B",
"5. c #7B7B7B",
"6. c #7B7B7B",
"7. c #7B7B7B",
"8. c #7B7B7B",
"9. c #7B7B7B",
"0. c #7B7B7B",
"q. c #7B7B7B",
"w. c #7B7B7B",
"e. c #7B7B7B",
"r. c #7B7B7B",
"t. c #7B7B7B",
"y. c #7B7B7B",
"u. c #7B7B7B",
"i. c #7B7B7B",
"p. c #7B7B7B",
"a. c #7B7B7B",
"s. c #7B7B7B",
"d. c #7B7B7B",
"f. c #7B7B7B",
"g. c #7B7B7B",
"h. c #7B7B7B",
"j. c #7B7B7B",
"k. c #7B7B7B",
"l. c #7B7B7B",
"z. c #7B7B7B",
"x. c #7B7B7B",
"c. c #7B7B7B",
"v. c #7B7B7B",
"b. c #7B7B7B",
"n. c #7B7B7B",
"m. c #7B7B7B",
"M. c #7B7B7B",
"N. c #7B7B7B",
"B. c #7B7B7B",
"V. c #7B7B7B",
"C. c #7B7B7B",
"Z. c #7B7B7B",
"A. c #7B7B7B",
"S. c #7B7B7B",
"D. c #7B7B7B",
"F. c #7B7B7B",
"G. c #7B7B7B",
"H. c #7B7B7B",
"J. c #7B7B7B",
"K. c #7B7B7B",
"L. c #7B7B7B",
"P. c #7B7B7B",
"I. c #7B7B7B",
"U. c #7B7B7B",
"Y. c #7B7B7B",
"T. c #7B7B7B",
"R. c #7B7B7B",
"E. c #7B7B7B",
"W. c #7B7B7B",
"Q. c #7B7B7B",
"!. c #7B7B7B",
"~. c #7B7B7B",
"^. c #7B7B7B",
"/. c #7B7B7B",
"(. c #7B7B7B",
"). c #7B7B7B",
"_. c #7B7B7B",
"`. c #7B7B7B",
"'. c #7B7B7B",
"]. c #7B7B7B",
"[. c #7B7B7B",
"{. c #7B7B7B",
"}. c #7B7B7B",
"|. c #7B7B7B",
" X c #7B7B7B",
".X c #7B7B7B",
"XX c #7B7B7B",
"oX c #7B7B7B",
"OX c #7B7B7B",
"+X c #7B7B7B",
"@X c #7B7B7B",
"#X c #7B7B7B",
"$X c #7B7B7B",
"%X c #7B7B7B",
"&X c #7B7B7B",
"*X c #7B7B7B",
"=X c #7B7B7B",
"-X c #7B7B7B",
";X c #7B7B7B",
":X c #7B7B7B",
">X c #7B7B7B",
",X c #7B7B7B",
"<X c #7B7B7B",
"1X c #7B7B7B",
"2X c #7B7B7B",
"3X c #7B7B7B",
"4X c #7B7B7B",
"5X c #7B7B7B",
"6X c #7B7B7B",
"7X c #7B7B7B",
"8X c #7B7B7B",
"9X c #7B7B7B",
"0X c #7B7B7B",
"qX c #7B7B7B",
"wX c #8B5A41",
"eX c #B4ACAC",
"rX c #734131",
"tX c #623120",
"yX c #181818",
"uX c #5A2918",
"iX c gray29",
"pX c #6A6A6A",
"aX c #393939",
"sX c #CD6A00",
"dX c gray32",
"fX c #310800",
"gX c #8B8B8B",
"hX c #313131",
"jX c #413939",
"kX c gray45",
"lX c #202020",
"zX c #5A5A5A",
"xX c gray16",
"cX c #A49C9C",
"vX c gray3",
"bX c #BD9C8B",
"nX c #9C735A",
"mX c #7B7B7B",
"MX c #E6BD00",
"NX c #411810",
"BX c #B4B4B4",
"VX c #946A52",
"CX c #CDCDCD",
"ZX c #D59400",
"AX c #DEAC00",
"SX c #4A1810",
"DX c #AC8373",
"FX c #391008",
"GX c #AC8B7B",
"HX c gray74",
"JX c #A47B62",
"KX c #D58300",
"LX c #835241",
"PX c #ACA4A4",
"IX c #622920",
"UX c gray58",
/* pixels */
"zXzXzXzXzXzXdXdXdXdXdXzXiXiXzXzXzXzXzXzXzXzXzXzXdXtXNXfXfXfXfXfXfXfXfXfXfXfXfXdXzXdXPXkXzXzXzXzXzXzXzXzXdXdXdXdXdXdXdXdXdXdXdXdX",
"zXzXzXzXzXdXdXdXdXdXdXzXiXiXzXzXzXzXzXzXzXzXzXdXjXwXtXSXSXSXSXSXSXSXSXSXSXSXSXiXzXdXcXkXdXzXzXzXzXzXzXzXdXiXhXxXdXdXdXdXdXdXdXdX",
"zXzXzXzXdXdXdXdXdXdXdXzXiXiXzXzXzXzXzXzXzXzXzXiXaXnXLXsXKXZXAXMXMXAXZXKXsXuXSXjXdXiXcXkXdXzXzXzXzXzXzXzXdXpXdXaXdXdXdXdXdXdXdXdX",
"zXzXzXdXdXdXdXdXdXdXdXzXiXiXzXzXzXzXzXzXzXzXdXjXhXJXVXKXZXAXMXMXMXMXAXZXKXuXSX$ UXcX$ pXdXzXzXzXzXzXzXzXdX$ kXzXdXdXdXdXdXdXdXdX",
"BXBXHXHXHXHXHXHXBXBXHXBXeXHXBXHXCXPXBXHXHXHXBXeXcXJXVXKXZXAXMXMXMXMXAXZXKXuXSXiXdXzXzXhXzXzXzXzXzXzXzXzXdXdXdXdXdXdXdXdXdXdXdXdX",
"kXkXkXkX$ kXkXkXkX$ kXkXkX$ kX$ $ zXkXkX$ $ $ kXzXJXVXsXKXZXAXMXMXAXZXKXsXtXSXyXlXxXhXdXzXzXzXzXzXzXzXzXzXzXzXzXzXzXzXzXzXzXzXzX",
"lXlXxXlXxXlXlXxXlXxXlXlXxXlXlXxXhXvXlXxXxXlXlXyXvXDXnXJXJXJXJXJXJXJXJXJXnXrXSXyXxXhXiXzXzXzXzXzXzXzXzXzXiXiXiXzXiXiXiXzXiXiXiXzX",
"aXaXaXhXhXhXhXhXhXhXhXaXxXxXaXaXaXaXhXhXxXlXyXvXvXbXbXbXbXbXbXbXbXbXbXbXbXGXrXxXaXjXiXdXdXzXzXzXzXzXzXzXiXiXiXzXiXiXiXzXiXiXiXzX",
"zXzXzXdXdXdXdXdXdXdXdXzXiXiXzXzXdXdXiXiXjXhXlXyXvXvXvXvXvXvXvXvXvXvXvXvXvXvXvXvXyXlXhXjXjXiXdXzXzXzXzXzXiXiXiXzXiXiXiXzXiXiXiXzX",
"zXzXzXdXdXdXdXdXdXdXdXzXiXiXzXdXiXiXjXhXxXlXyXyXyXvXvXvXyXyXO O O O yXyXvXyXyXyXyXyXyXlXlXhXjXiXdXzXzXzXzXzXzXzXzXzXdXdXdXzXzXzX",
"zXzXzXdXdXdXdXdXdXdXdXzXiXjXdXiXjXhXxXyXyXxXhXhXxXxXhXaXO O O O O O O O aXjXiXhXhXlXyXyXyXyXlXhXiXdXzXzXzXzXzXzXzXdXyXyXyXdXzXzX",
"zXzXzXzXdXdXdXdXdXdXdXzXjXjXiXhXxXyXxXhXhXaXjXdXiXO O O O O O O O O O O O O O zXdXiXzXzXdXiXyXyXlXhXiXdXzXzXzXzXzXhXyXvXyXyXdXzX",
"zXzXzXzXzXdXdXdXdXdXdXdXjXaXhXyXxXhXaXjXdXdXdXO O O O O O O O O O O O O O O O O O zXzXjXaXjXiXjXaXlXhXiXdXzXzXzXzXjXvXjXyXyXdXzX",
"zXzXzXzXzXzXdXdXdXdXiXiXxXlXxXhXaXjXdXdXO O O O O O O O O O O O O O O O O O O O O O O zXzXdXhXxXyXvXlXlXaXdXzXzXzXdXyXvXyXlXdXzX",
"zXzXzXzXzXzXzXdXdXiXjXhXyXxXaXjXdXdXO O O O O O O O O O O O O O O O O O O O O O O O O O O O zXzXjXlXyXyXlXaXdXzXzXzXdXjXhXdXzXzX",
"zXzXzXzXzXzXzXdXiXjXxXxXhXiXdXdXO O O O O O O O O O O O O O O O O O O O O O O O O O O O O O O O zXiXaXlXyXlXjXdXzXzXzXzXzXzXzXzX",
"zXzXzXzXzXzXzXiXjXxXlXjXiXO O O O O O O O O O O O O O O O O O O O O O O O O O O O O O O O O O O O O O iXxXyXlXaXdXzXzXzXzXzXzXzX",
"zXzXzXzXzXzXdXjXxXyXaXO O O O O O O O O O O O O O O O O O O O O O O O O O O O O O O O O O O O O O O O O O xXvXlXaXdXzXzXzXzXzXzX",
"zXzXzXzXzXdXiXxXxXjXO O O O O O O O O O O O O O O O O O O O O O O O O O O O O O O O O O O O O O O O O O O O yXvXlXaXdXzXzXzXzXzX",
"zXzXzXzXzXiXhXxXiXO O O O O O O O O O O O O O O O O O O O O O O O O O O O O O O O O O O O O O O O O O O O O O lXvXlXaXdXzXzXzXzX",
"zXzXzXzXdXaXxXjXdXO O O O O O O O O O O O O O O O O O O O O O O O O O O O O O O O O O O O O O O O O O O O O O aXlXyXxXjXzXzXzXzX",
"zXzXzXdXiXhXjXdXO O O O O O O O O O O O O O O O O O O O O O O O O O O O O O O O O O O O O O O O O O O O O O O O aXyXlXaXdXzXzXzX",
"zXzXzXiXhXhXjXdXO O O O O O O O O O O O O O O O O O O O O O O O O O O O O O O O O O O O O O O O O O O O O O O O dXlXyXlXjXzXzXzX",
"zXzXdXaXxXaXjXdXO O O O O O O O O O O O O O O O O O O O O O O O O O O O O O O O O O O O O O O O O O O O O O O O dXhXlXyXxXiXzXzX",
"zXzXiXhXaXjXdXO O O O O O O O O O O O O O O O O O O O O O O O O O O O O O O O O O O O O O O O O O O O O O O O O O dXhXyXlXjXzXzX",
"zXdXaXiXaXjXdXO O O O O O O O O O O O O O O O O O O O O O O O O O O O O O O O O O O O O O O O O O O O O O O O O O dXaXlXyXxXiXzX",
"zXiXhXdXjXdXO O O O O O O O O O O O O O O O O O O O O O O O O O O O O O O O O O O O O O O O O O O O O O O O O O O O dXhXyXlXjXzX",
"zXjXxXzXjXdXO O O O O O O O O O O O O O O O O O O O O O O O O O O O O O O O O O O O O O O O O O O O O O O O O O O O dXaXlXyXhXdX",
"zXaXzXiXjXdXO O O O O O O O O O O O O O O O O O O O O O O O O O O O O O O O O O O O O O O O O O O O O O O O O O O O O dXhXyXxXiX",
"dXhXzXiXdXO O O O O O O O O O O O O O O O O O O O O O O O O O O O O O O O O O O O O O O O O O O O O O O O O O O O O O dXaXyXlXjX",
"jXhXzXjXdXO O O O O O O O O O O O O O O O O O O O O O O O O O O O O O O O O O O O O O O O O O O O O O O O O O O O O O dXaXlXyXaX",
"aXhXzXdXO O O O O O O O O O O O O O O O O O O O O O O O O O O O O O O O O O O O O O O O O O O O O O O O O O O O O O O O dXhXyXxX",
"hXhXzXdXO O O O O O O O O O O O O O O O O O O O O O O O O O O O O O O O O O O O O O O O O O O O O O O O O O O O O O O O dXaXyXlX",
"xXjXjXO O O O O O O O O O O O O O O O O O O O O O O O O O O O O O O O O O O O O O O O O O O O O O O O O O O O O O O O O O dXyXyX",
"hXjXdXO O O O O O O O O O O O O O O O O O O O O O O O O O O O O O O O O O O O O O O O O O O O O O O O O O O O O O O O O O dXlXyX",
"aXjXdXO O O O O O O O O O O O O O O O O O O O O O O O O O O O O O O O O O O O O O O O O O O O O O O O O O O O O O O O O O dXhXlX",
"aXdXO O O O O O O O O O O O O O O O O O O O O O O O O O O O O O O O O O O O O O O O O O O O O O O O O O O O O O O O O O O O iXlX",
"aXdXO O O O O O O O O O O O O O O O O O O O O O O O O O O O O O O O O O O O O O O O O O O O O O O O O O O O O O O O O O O O iXlX",
"hXO O O O O O O O O O O O O O O O O O O O O O O O O O O O O O O O O O O O O O O O O O O O O O O O O O O O O O O O O O O O O O xX",
"lXO O O O O O O O O O O O O O O O O O O O O O O O O O O O O O O O O O O O O O O O O O O O O O O O O O O O O O O O O O O O O O xX",
"iXO O O O O O O O O O O O O O O O O O O O O O O O O O O O O O O O O O O O O O O O O O O O O O O O O O O O O O O O O O O O O O vX",
"iXO O O O O O O O O O O O O O O O O O O O O O O O O O O O O O O O O O O O O O O O O O O O O O O O O O O O O O O O O O O O O O yX",
"aXiXO O O O O O O O O O O O O O O O O O O O O O O O O O O O O O O O O O O O O O O O O O O O O O O O O O O O O O O O O O O O dXlX",
"aXiXO O O O O O O O O O O O O O O O O O O O O O O O O O O O O O O O O O O O O O O O O O O O O O O O O O O O O O O O O O O O dXlX",
"hXaXiXO O O O O O O O O O O O O O O O O O O O O O O O O O O O O O O O O O O O O O O O O O O O O O O O O O O O O O O O O O dXjXlX",
"hXaXiXO O O O O O O O O O O O O O O O O O O O O O O O O O O O O O O O O O O O O O O O O O O O O O O O O O O O O O O O O O dXaXlX",
"gXaXiXO O O O O O O O O O O O O O O O O O O O O O O O O O O O O O O O O O O O O O O O O O O O O O O O O O O O O O O O O O dXhXkX",
"$ hXaXiXO O O O O O O O O O O O O O O O O O O O O O O O O O O O O O O O O O O O O O O O O O O O O O O O O O O O O O O O dXjXlXkX",
"$ hXaXiXO O O O O O O O O O O O O O O O O O O O O O O O O O O O O O O O O O O O O O O O O O O O O O O O O O O O O O O O jXjXyXpX",
"$ hXhXaXiXO O O O O O O O O O O O O O O O O O O O O O O O O O O O O O O O O O O O O O O O O O O O O O O O O O O O O O dXjXaXyXpX",
"kXgXhXaXiXO O O O O O O O O O O O O O O O O O O O O O O O O O O O O O O O O O O O O O O O O O O O O O O O O O O O O O dXzXhXkXzX",
"pX$ hXaXiXO O O O O O O O O O O O O O O O O O O O O O O O O O O O O O O O O O O O O O O O O O O O O O O O O O O O O dXjXzXlXkXzX",
"zX$ hXhXaXiXO O O O O O O O O O O O O O O O O O O O O O O O O O O O O O O O O O O O O O O O O O O O O O O O O O O O dXjXzXyXpXzX",
"zXkXgXhXaXiXO O O O O O O O O O O O O O O O O O O O O O O O O O O O O O O O O O O O O O O O O O O O O O O O O O O O dXiXzXkXzXzX",
"zXpX$ hXhXaXiXO O O O O O O O O O O O O O O O O O O O O O O O O O O O O O O O O O O O O O O O O O O O O O O O O O dXjXzXlXkXzXzX",
"zXzXkXgXhXaXiXO O O O O O O O O O O O O O O O O O O O O O O O O O O O O O O O O O O O O O O O O O O O O O O O O O dXjXzXkXpXzXzX",
"zXzXpX$ hXhXaXiXO O O O O O O O O O O O O O O O O O O O O O O O O O O O O O O O O O O O O O O O O O O O O O O O dXjXaXdXkXzXzXzX",
"zXzXzXkXgXhXaXiXO O O O O O O O O O O O O O O O O O O O O O O O O O O O O O O O O O O O O O O O O O O O O O O O dXaXhXkXpXzXzXzX",
"zXzXzXpXkXgXaXiXO O O O O O O O O O O O O O O O O O O O O O O O O O O O O O O O O O O O O O O O O O O O O O O O dXhXkXpXzXzXzXzX",
"dXdXdXzXpX$ hXaXiXO O O O O O O O O O O O O O O O O O O O O O O O O O O O O O O O O O O O O O O O O O O O O O dXaXlXkXzXzXzXzXzX",
"aXaXaXaXjXiXzXhXjXO O O O O O O O O O O O O O O O O O O O O O O O O O O O O O O O O O O O O O O O O O O O O O dXhXkXpXzXzXzXzXzX",
"iXiXiXiXdXzXpXzXlXyXO O O O O O O O O O O O O O O O O O O O O O O O O O O O O O O O O O O O O O O O O O O O iXhXkXpXzXzXdXdXdXdX",
"dXdXdXdXdXzXzXzX$ lXjXO O O O O O O O O O O O O O O O O O O O O O O O O O O O O O O O O O O O O O O O O O yXyXkXpXzXzXzXdXdXdXdX",
"dXdXdXdXdXdXzXdXkX$ hXjXjXO O O O O O O O O O O O O O O O O O O O O O O O O O O O O O O O O O O O O O iXhXyXkXpXzXzXzXzXdXdXdXdX",
"dXdXdXdXdXdXdXiXzXkX$ hXhXjXjXjXO O O O O O O O O O O O O O O O O O O O O O O O O O O O O O O O iXiXiXaXlXkXpXzXzXzXzXzXdXdXdXdX",
"dXdXdXdXdXdXdXjXzXzXkX$ xXhXhXhXjXjXO O O O O O O O O O O O O O O O O O O O O O O O O O O O iXiXaXaXhXxXkXpXzXzXzXzXzXzXzXzXzXzX",
"dXdXdXdXdXdXiXjXzXzXpXkXpXgXxXxXhXhXjXjXjXO O O O O O O O O O O O O O O O O O O O O O O iXiXaXaXhXxXkXkXpXzXzXzXzXzXzXzXiXiXiXiX",
"dXdXdXdXdXdXiXjXzXzXzXpXzXkXgXaXjXiXaXhXhXjXjXO O O O O O O O O O O O O O O O O O iXiXiXaXaXhXhXxXkXpXpXzXzXzXzXzXzXzXzXiXiXiXiX",
"dXdXdXdXdXdXjXaXzXzXzXzXdXpXkXgXgXhXiXiXiXiXhXhXjXO O O O O O O O O O O O O O iXiXaXaXaXhXhXxXkXkXpXzXzXzXiXpXpXpXpXpXdXiXiXiXiX",
"dXdXdXdXzXzXzXzXzXzXzXzXiXzXpXkX$ gXgXlXlXlXxXhXhXjXjXjXO O O O O O O O iXiXiXaXaXhXhXhXxXkXkXpXpXzXzXzXdXjXkXkXjXkXkXiXzXzXzXzX",
"dXdXdXiXzXzXzXzXzXzXzXzXjXzXzXpXkXkX$ gXgXgXxXxXxXhXhXhXjXjXO O O O iXiXjXaXaXaXhXxXkXkXkXpXpXzXzXzXzXdXjXhX$ $ xX$ $ jXdXzXzXzX",
"dXdXiXjXzXzXzXzXzXzXzXzXjXzXzXzXzXpXkXkXkX$ gXgXgXgXxXxXhXhXxXyXiXiXaXaXhXxXkXkXkXkXpXpXpXzXzXzXzXzXdXiXaXxXgXgXyXgXgXhXjXdXzXzX"
};
