/* XPM */
static char * door4_xpm[] = {
"64 72 256 2",
"  	c #000000",
". 	c #0000FF",
"+ 	c #00FF00",
"@ 	c #FF0000",
"# 	c #00FFFF",
"$ 	c #FFFF00",
"% 	c #FF00FF",
"& 	c #FFFFFF",
"* 	c #7B7B7B",
"= 	c #7B7B7B",
"- 	c #7B7B7B",
"; 	c #7B7B7B",
"> 	c #7B7B7B",
", 	c #7B7B7B",
"' 	c #7B7B7B",
") 	c #7B7B7B",
"! 	c #7B7B7B",
"~ 	c #7B7B7B",
"{ 	c #7B7B7B",
"] 	c #7B7B7B",
"^ 	c #7B7B7B",
"/ 	c #7B7B7B",
"( 	c #7B7B7B",
"_ 	c #7B7B7B",
": 	c #7B7B7B",
"< 	c #7B7B7B",
"[ 	c #7B7B7B",
"} 	c #7B7B7B",
"| 	c #7B7B7B",
"1 	c #7B7B7B",
"2 	c #7B7B7B",
"3 	c #7B7B7B",
"4 	c #7B7B7B",
"5 	c #7B7B7B",
"6 	c #7B7B7B",
"7 	c #7B7B7B",
"8 	c #7B7B7B",
"9 	c #7B7B7B",
"0 	c #7B7B7B",
"a 	c #7B7B7B",
"b 	c #7B7B7B",
"c 	c #7B7B7B",
"d 	c #7B7B7B",
"e 	c #7B7B7B",
"f 	c #7B7B7B",
"g 	c #7B7B7B",
"h 	c #7B7B7B",
"i 	c #7B7B7B",
"j 	c #7B7B7B",
"k 	c #7B7B7B",
"l 	c #7B7B7B",
"m 	c #7B7B7B",
"n 	c #7B7B7B",
"o 	c #7B7B7B",
"p 	c #7B7B7B",
"q 	c #7B7B7B",
"r 	c #7B7B7B",
"s 	c #7B7B7B",
"t 	c #7B7B7B",
"u 	c #7B7B7B",
"v 	c #7B7B7B",
"w 	c #7B7B7B",
"x 	c #7B7B7B",
"y 	c #7B7B7B",
"z 	c #7B7B7B",
"A 	c #7B7B7B",
"B 	c #7B7B7B",
"C 	c #7B7B7B",
"D 	c #7B7B7B",
"E 	c #7B7B7B",
"F 	c #7B7B7B",
"G 	c #7B7B7B",
"H 	c #7B7B7B",
"I 	c #7B7B7B",
"J 	c #7B7B7B",
"K 	c #7B7B7B",
"L 	c #7B7B7B",
"M 	c #7B7B7B",
"N 	c #7B7B7B",
"O 	c #7B7B7B",
"P 	c #7B7B7B",
"Q 	c #7B7B7B",
"R 	c #7B7B7B",
"S 	c #7B7B7B",
"T 	c #7B7B7B",
"U 	c #7B7B7B",
"V 	c #7B7B7B",
"W 	c #7B7B7B",
"X 	c #7B7B7B",
"Y 	c #7B7B7B",
"Z 	c #7B7B7B",
"` 	c #7B7B7B",
" .	c #7B7B7B",
"..	c #7B7B7B",
"+.	c #7B7B7B",
"@.	c #7B7B7B",
"#.	c #7B7B7B",
"$.	c #7B7B7B",
"%.	c #7B7B7B",
"&.	c #7B7B7B",
"*.	c #7B7B7B",
"=.	c #7B7B7B",
"-.	c #7B7B7B",
";.	c #7B7B7B",
">.	c #7B7B7B",
",.	c #7B7B7B",
"'.	c #7B7B7B",
").	c #7B7B7B",
"!.	c #7B7B7B",
"~.	c #7B7B7B",
"{.	c #7B7B7B",
"].	c #7B7B7B",
"^.	c #7B7B7B",
"/.	c #7B7B7B",
"(.	c #7B7B7B",
"_.	c #7B7B7B",
":.	c #7B7B7B",
"<.	c #7B7B7B",
"[.	c #7B7B7B",
"}.	c #7B7B7B",
"|.	c #7B7B7B",
"1.	c #7B7B7B",
"2.	c #7B7B7B",
"3.	c #7B7B7B",
"4.	c #7B7B7B",
"5.	c #7B7B7B",
"6.	c #7B7B7B",
"7.	c #7B7B7B",
"8.	c #7B7B7B",
"9.	c #7B7B7B",
"0.	c #7B7B7B",
"a.	c #7B7B7B",
"b.	c #7B7B7B",
"c.	c #7B7B7B",
"d.	c #7B7B7B",
"e.	c #7B7B7B",
"f.	c #7B7B7B",
"g.	c #7B7B7B",
"h.	c #7B7B7B",
"i.	c #7B7B7B",
"j.	c #7B7B7B",
"k.	c #7B7B7B",
"l.	c #7B7B7B",
"m.	c #7B7B7B",
"n.	c #7B7B7B",
"o.	c #7B7B7B",
"p.	c #7B7B7B",
"q.	c #7B7B7B",
"r.	c #7B7B7B",
"s.	c #7B7B7B",
"t.	c #7B7B7B",
"u.	c #7B7B7B",
"v.	c #7B7B7B",
"w.	c #7B7B7B",
"x.	c #7B7B7B",
"y.	c #7B7B7B",
"z.	c #7B7B7B",
"A.	c #7B7B7B",
"B.	c #7B7B7B",
"C.	c #7B7B7B",
"D.	c #7B7B7B",
"E.	c #7B7B7B",
"F.	c #7B7B7B",
"G.	c #7B7B7B",
"H.	c #7B7B7B",
"I.	c #7B7B7B",
"J.	c #7B7B7B",
"K.	c #7B7B7B",
"L.	c #7B7B7B",
"M.	c #7B7B7B",
"N.	c #7B7B7B",
"O.	c #7B7B7B",
"P.	c #7B7B7B",
"Q.	c #7B7B7B",
"R.	c #7B7B7B",
"S.	c #7B7B7B",
"T.	c #7B7B7B",
"U.	c #7B7B7B",
"V.	c #7B7B7B",
"W.	c #7B7B7B",
"X.	c #7B7B7B",
"Y.	c #7B7B7B",
"Z.	c #7B7B7B",
"`.	c #7B7B7B",
" +	c #7B7B7B",
".+	c #7B7B7B",
"++	c #7B7B7B",
"@+	c #7B7B7B",
"#+	c #7B7B7B",
"$+	c #7B7B7B",
"%+	c #7B7B7B",
"&+	c #7B7B7B",
"*+	c #7B7B7B",
"=+	c #7B7B7B",
"-+	c #7B7B7B",
";+	c #7B7B7B",
">+	c #7B7B7B",
",+	c #7B7B7B",
"'+	c #7B7B7B",
")+	c #7B7B7B",
"!+	c #7B7B7B",
"~+	c #7B7B7B",
"{+	c #7B7B7B",
"]+	c #7B7B7B",
"^+	c #7B7B7B",
"/+	c #7B7B7B",
"(+	c #7B7B7B",
"_+	c #7B7B7B",
":+	c #7B7B7B",
"<+	c #7B7B7B",
"[+	c #7B7B7B",
"}+	c #7B7B7B",
"|+	c #7B7B7B",
"1+	c #7B7B7B",
"2+	c #9C735A",
"3+	c #835241",
"4+	c #B4ACAC",
"5+	c #623120",
"6+	c #181818",
"7+	c #525252",
"8+	c #737373",
"9+	c #414141",
"0+	c #5A5A5A",
"a+	c #205210",
"b+	c #4A4A4A",
"c+	c #734131",
"d+	c #310800",
"e+	c #8B8B8B",
"f+	c #413939",
"g+	c #AC8373",
"h+	c #626262",
"i+	c #313131",
"j+	c #202020",
"k+	c #A49C9C",
"l+	c #292929",
"m+	c #BD9C8B",
"n+	c #946A52",
"o+	c #7B7B7B",
"p+	c #411810",
"q+	c #8B624A",
"r+	c #B4B4B4",
"s+	c #080808",
"t+	c #8BC562",
"u+	c #5A2918",
"v+	c #CDCDCD",
"w+	c #4A8B31",
"x+	c #4A1810",
"y+	c #391008",
"z+	c #A47B62",
"A+	c #AC8B7B",
"B+	c #BDBDBD",
"C+	c #317320",
"D+	c #6AAC4A",
"E+	c #ACA4A4",
"F+	c #622920",
"G+	c #949494",
"0+0+0+0+0+0+7+7+7+7+7+0+b+b+0+0+0+0+0+0+0+0+0+0+7+5+p+d+d+d+d+d+d+d+d+d+d+d+d+7+0+7+E+8+0+0+0+0+0+0+0+0+7+7+7+7+7+7+7+7+7+7+7+7+",
"0+0+0+0+0+7+7+7+7+7+7+0+b+b+0+0+0+0+0+0+0+0+0+7+9+q+5+x+x+x+x+x+x+x+x+x+x+x+x+b+0+7+k+8+7+0+0+0+0+0+0+0+7+b+i+l+7+7+7+7+7+7+7+7+",
"0+0+0+0+7+7+7+7+7+7+7+0+b+b+0+0+0+0+0+0+0+0+0+b+f+2+3+a+C+w+D+t+t+D+w+C+a+u+x+9+7+b+k+8+7+0+0+0+0+0+0+0+7+h+7+f+7+7+7+7+7+7+7+7+",
"0+0+0+7+7+7+7+7+7+7+7+0+b+b+0+0+0+0+0+0+0+0+7+9+i+z+q+C+w+D+t+t+t+t+D+w+C+u+x+* G+k+* h+7+0+0+0+0+0+0+0+7+* 8+0+7+7+7+7+7+7+7+7+",
"r+r+B+B+B+B+B+B+r+r+B+r+4+B+r+B+v+E+r+B+B+B+r+4+k+z+q+C+w+D+t+t+t+t+D+w+C+u+x+b+7+0+h+i+0+0+0+0+0+0+0+0+7+7+7+7+7+7+7+7+7+7+7+7+",
"8+8+8+8+* 8+8+8+8+* 8+8+8+* 8+* * h+8+8+* * * 8+h+z+n+a+C+w+D+t+t+D+w+C+a+5+x+6+j+l+i+7+0+0+0+0+0+0+0+0+0+0+0+0+0+0+0+0+0+0+0+0+",
"j+j+l+j+l+j+j+l+j+l+j+j+l+j+j+l+i+s+j+l+l+j+j+6+s+g+2+z+z+z+z+z+z+z+z+z+2+c+x+6+l+i+b+0+0+0+0+0+0+0+0+0+b+b+b+0+b+b+b+0+b+b+b+0+",
"f+f+f+i+i+i+i+i+i+i+i+f+l+l+f+f+f+f+i+i+l+j+6+s+s+m+m+m+m+m+m+m+m+m+m+m+m+A+c+l+f+9+b+7+7+0+0+0+0+0+0+0+b+b+b+0+b+b+b+0+b+b+b+0+",
"0+0+0+7+7+7+7+7+7+7+7+0+b+b+0+0+7+7+b+b+9+i+j+6+s+s+# # # # # # # # # # # # s+s+6+j+i+9+9+b+7+0+0+0+0+0+b+b+b+0+b+b+b+0+b+b+b+0+",
"0+0+0+7+7+7+7+7+7+7+7+0+b+b+0+7+b+b+9+i+l+j+# # # # # # # # # # # # # # # # # # # # 6+j+j+i+9+b+7+0+0+0+0+0+0+0+0+0+7+7+7+0+0+0+",
"0+0+0+7+7+7+7+7+7+7+7+0+b+9+7+b+9+i+l+# # # # # # # # # # # # # # # # # # # # # # # # # # 6+j+i+b+7+0+0+0+0+0+0+0+7+6+6+6+7+0+0+",
"0+0+0+0+7+7+7+7+7+7+7+0+9+9+b+i+l+# # # # # # # # # # # # # # # # # # # # # # # # # # # # # # 6+j+i+b+7+0+0+0+0+h+f+6+s+s+6+7+0+",
"0+0+0+0+0+7+7+7+7+7+7+7+9+f+i+# # # # # # # # # # # # # # # # # # # # # # # # # # # # # # # # # # j+i+b+7+0+0+0+h+9+s+l+6+6+7+0+",
"0+0+0+0+0+0+7+7+7+7+b+b+l+j+# # # # # # # # # # # # # # # # # # # # # # # # # # # # # # # # # # # # j+j+f+7+0+0+h+7+s+s+6+j+7+0+",
"0+0+0+0+0+0+0+7+7+b+9+i+# # # # # # # # # # # # # # # # # # # # # # # # # # # # # # # # # # # # # # # # j+f+7+0+0+h+7+9+f+7+0+0+",
"0+0+0+0+0+0+0+7+b+9+l+# # # # # # # # # # # # # # # # # # # # # # # # # # # # # # # # # # # # # # # # # # j+9+7+0+0+h+h+h+0+0+0+",
"0+0+0+0+0+0+0+b+9+l+# # # # # # # # # # # # # # # # # # # # # # # # # # # # # # # # # # # # # # # # # # # # j+f+7+0+0+0+0+0+0+0+",
"0+0+0+0+0+0+7+9+l+# # # # # # # # # # # # # # # # # # # # # # # # # # # # # # # # # # # # # # # # # # # # # # j+f+7+0+0+0+0+0+0+",
"0+0+0+0+0+7+b+l+# # # # # # # # # # # # # # # # # # # # # # # # # # # # # # # # # # # # # # # # # # # # # # # # j+f+7+0+0+0+0+0+",
"0+0+0+0+0+b+i+# # # # # # # # # # # # # # # # # # # # # # # # # # # # # # # # # # # # # # # # # # # # # # # # # # j+f+7+0+0+0+0+",
"0+0+0+0+7+f+# # # # # # # # # # # # # # # # # # # # # # # # # # # # # # # # # # # # # # # # # # # # # # # # # # # # l+9+0+0+0+0+",
"0+0+0+7+b+i+# # # # # # # # # # # # # # # # # # # # # # # # # # # # # # # # # # # # # # # # # # # # # # # # # # # # j+f+7+0+0+0+",
"0+0+0+b+i+# # # # # # # # # # # # # # # # # # # # # # # # # # # # # # # # # # # # # # # # # # # # # # # # # # # # # # j+9+0+0+0+",
"0+0+7+f+# # # # # # # # # # # # # # # # # # # # # # # # # # # # # # # # # # # # # # # # # # # # # # # # # # # # # # # # l+b+0+0+",
"0+0+b+i+# # # # # # # # # # # # # # # # # # # # # # # # # # # # # # # # # # # # # # # # # # # # # # # # # # # # # # # # j+9+0+0+",
"0+7+f+# # # # # # # # # # # # # # # # # # # # # # # # # # # # # # # # # # # # # # # # # # # # # # # # # # # # # # # # # # l+b+0+",
"0+b+i+# # # # # # # # # # # # # # # # # # # # # # # # # # # # # # # # # # # # # # # # # # # # # # # # # # # # # # # # # # j+9+0+",
"0+9+# # # # # # # # # # # # # # # # # # # # # # # # # # # # # # # # # # # # # # # # # # # # # # # # # # # # # # # # # # # # i+7+",
"0+f+# # # # # # # # # # # # # # # # # # # # # # # # # # # # # # # # # # # # # # # # # # # # # # # # # # # # # # # # # # # # l+b+",
"7+i+# # # # # # # # # # # # # # # # # # # # # # # # # # # # # # # # # # # # # # # # # # # # # # # # # # # # # # # # # # # # j+9+",
"9+# # # # # # # # # # # # # # # # # # # # # # # # # # # # # # # # # # # # # # # # # # # # # # # # # # # # # # # # # # # # # # f+",
"f+# # # # # # # # # # # # # # # # # # # # # # # # # # # # # # # # # # # # # # # # # # # # # # # # # # # # # # # # # # # # # # l+",
"i+# # # # # # # # # # # # # # # # # # # # # # # # # # # # # # # # # # # # # # # # # # # # # # # # # # # # # # # # # # # # # # j+",
"l+# # # # # # # # # # # # # # # # # # # # # # # # # # # # # # # # # # # # # # # # # # # # # # # # # # # # # # # # # # # # # # 6+",
"# # # # # # # # # # # # # # # # # # # # # # # # # # # # # # # # # # # # # # # # # # # # # # # # # # # # # # # # # # # # # # # # ",
"# # # # # # # # # # # # # # # # # # # # # # # # # # # # # # # # # # # # # # # # # # # # # # # # # # # # # # # # # # # # # # # # ",
"# # # # # # # # # # # # # # # # # # # # # # # # # # # # # # # # # # # # # # # # # # # # # # # # # # # # # # # # # # # # # # # # ",
"# # # # # # # # # # # # # # # # # # # # # # # # # # # # # # # # # # # # # # # # # # # # # # # # # # # # # # # # # # # # # # # # ",
"# # # # # # # # # # # # # # # # # # # # # # # # # # # # # # # # # # # # # # # # # # # # # # # # # # # # # # # # # # # # # # # # ",
"# # # # # # # # # # # # # # # # # # # # # # # # # # # # # # # # # # # # # # # # # # # # # # # # # # # # # # # # # # # # # # # # ",
"# # # # # # # # # # # # # # # # # # # # # # # # # # # # # # # # # # # # # # # # # # # # # # # # # # # # # # # # # # # # # # # # ",
"# # # # # # # # # # # # # # # # # # # # # # # # # # # # # # # # # # # # # # # # # # # # # # # # # # # # # # # # # # # # # # # # ",
"# # # # # # # # # # # # # # # # # # # # # # # # # # # # # # # # # # # # # # # # # # # # # # # # # # # # # # # # # # # # # # # # ",
"# # # # # # # # # # # # # # # # # # # # # # # # # # # # # # # # # # # # # # # # # # # # # # # # # # # # # # # # # # # # # # # # ",
"# # # # # # # # # # # # # # # # # # # # # # # # # # # # # # # # # # # # # # # # # # # # # # # # # # # # # # # # # # # # # # # # ",
"# # # # # # # # # # # # # # # # # # # # # # # # # # # # # # # # # # # # # # # # # # # # # # # # # # # # # # # # # # # # # # # # ",
"e+# # # # # # # # # # # # # # # # # # # # # # # # # # # # # # # # # # # # # # # # # # # # # # # # # # # # # # # # # # # # # # 8+",
"* # # # # # # # # # # # # # # # # # # # # # # # # # # # # # # # # # # # # # # # # # # # # # # # # # # # # # # # # # # # # # # 8+",
"* # # # # # # # # # # # # # # # # # # # # # # # # # # # # # # # # # # # # # # # # # # # # # # # # # # # # # # # # # # # # # # h+",
"* # # # # # # # # # # # # # # # # # # # # # # # # # # # # # # # # # # # # # # # # # # # # # # # # # # # # # # # # # # # # # # h+",
"8+e+# # # # # # # # # # # # # # # # # # # # # # # # # # # # # # # # # # # # # # # # # # # # # # # # # # # # # # # # # # # # 8+h+",
"h+* # # # # # # # # # # # # # # # # # # # # # # # # # # # # # # # # # # # # # # # # # # # # # # # # # # # # # # # # # # # # 8+0+",
"h+* # # # # # # # # # # # # # # # # # # # # # # # # # # # # # # # # # # # # # # # # # # # # # # # # # # # # # # # # # # # # h+0+",
"0+8+e+# # # # # # # # # # # # # # # # # # # # # # # # # # # # # # # # # # # # # # # # # # # # # # # # # # # # # # # # # # 8+h+0+",
"0+h+* # # # # # # # # # # # # # # # # # # # # # # # # # # # # # # # # # # # # # # # # # # # # # # # # # # # # # # # # # # 8+0+0+",
"0+h+8+e+# # # # # # # # # # # # # # # # # # # # # # # # # # # # # # # # # # # # # # # # # # # # # # # # # # # # # # # # 8+h+0+0+",
"0+0+h+* # # # # # # # # # # # # # # # # # # # # # # # # # # # # # # # # # # # # # # # # # # # # # # # # # # # # # # # # 8+h+0+0+",
"0+0+h+8+e+# # # # # # # # # # # # # # # # # # # # # # # # # # # # # # # # # # # # # # # # # # # # # # # # # # # # # # 8+h+0+0+0+",
"0+0+0+h+8+e+# # # # # # # # # # # # # # # # # # # # # # # # # # # # # # # # # # # # # # # # # # # # # # # # # # # # 8+h+h+0+0+0+",
"7+7+7+0+h+* # # # # # # # # # # # # # # # # # # # # # # # # # # # # # # # # # # # # # # # # # # # # # # # # # # # # 8+h+0+0+0+0+",
"f+f+f+f+9+b+0+# # # # # # # # # # # # # # # # # # # # # # # # # # # # # # # # # # # # # # # # # # # # # # # # # # 8+h+h+0+0+0+0+",
"b+b+b+b+7+0+h+h+# # # # # # # # # # # # # # # # # # # # # # # # # # # # # # # # # # # # # # # # # # # # # # # # 8+h+h+0+7+7+7+7+",
"7+7+7+7+7+0+h+0+* # # # # # # # # # # # # # # # # # # # # # # # # # # # # # # # # # # # # # # # # # # # # # # 8+h+h+0+0+7+7+7+7+",
"7+7+7+7+7+7+0+7+8+* # # # # # # # # # # # # # # # # # # # # # # # # # # # # # # # # # # # # # # # # # # # # 8+h+h+0+0+0+7+7+7+7+",
"7+7+7+7+7+7+7+b+h+8+* # # # # # # # # # # # # # # # # # # # # # # # # # # # # # # # # # # # # # # # # # # 8+h+h+0+0+0+0+7+7+7+7+",
"7+7+7+7+7+7+7+9+0+h+8+* # # # # # # # # # # # # # # # # # # # # # # # # # # # # # # # # # # # # # # # # 8+h+h+0+0+0+0+0+0+0+0+0+",
"7+7+7+7+7+7+b+9+0+h+h+8+h+e+# # # # # # # # # # # # # # # # # # # # # # # # # # # # # # # # # # # # 8+8+h+h+0+0+0+0+0+0+b+b+b+b+",
"7+7+7+7+7+7+b+9+0+0+h+h+0+8+e+# # # # # # # # # # # # # # # # # # # # # # # # # # # # # # # # # # 8+h+h+h+0+h+h+h+h+h+0+b+b+b+b+",
"7+7+7+7+7+7+9+f+0+0+0+h+7+h+8+e+e+# # # # # # # # # # # # # # # # # # # # # # # # # # # # # # 8+8+h+h+h+0+b+h+h+h+h+h+7+b+b+b+b+",
"7+7+7+7+h+h+h+h+0+0+0+0+b+h+h+8+* e+e+# # # # # # # # # # # # # # # # # # # # # # # # # # 8+8+h+h+h+0+0+7+9+8+8+9+8+8+b+0+0+0+0+",
"7+7+7+b+0+0+0+0+0+0+0+0+9+0+h+h+8+8+* e+e+e+# # # # # # # # # # # # # # # # # # # # 8+8+8+h+h+h+h+0+0+7+9+i+* * l+* * 9+7+0+0+0+",
"7+7+b+9+0+0+0+0+0+0+0+0+9+0+0+h+h+h+8+8+8+* e+e+e+e+# # # # # # # # # # # # 8+8+8+8+h+h+h+h+h+0+0+0+7+b+f+l+e+e+6+e+e+i+9+7+0+0+"};
