/* XPM */
static char *door01734959594[] = {
/* columns rows colors chars-per-pixel */
"64 72 256 2 ",
"   c black",
".  c blue",
"X  c green",
"o  c red",
"O  c cyan",
"+  c yellow",
"@  c magenta",
"#  c white",
"$  c #7B7B7B",
"%  c #7B7B7B",
"&  c #7B7B7B",
"*  c #7B7B7B",
"=  c #7B7B7B",
"-  c #7B7B7B",
";  c #7B7B7B",
":  c #7B7B7B",
">  c #7B7B7B",
",  c #7B7B7B",
"<  c #7B7B7B",
"1  c #7B7B7B",
"2  c #7B7B7B",
"3  c #7B7B7B",
"4  c #7B7B7B",
"5  c #7B7B7B",
"6  c #7B7B7B",
"7  c #7B7B7B",
"8  c #7B7B7B",
"9  c #7B7B7B",
"0  c #7B7B7B",
"q  c #7B7B7B",
"w  c #7B7B7B",
"e  c #7B7B7B",
"r  c #7B7B7B",
"t  c #7B7B7B",
"y  c #7B7B7B",
"u  c #7B7B7B",
"i  c #7B7B7B",
"p  c #7B7B7B",
"a  c #7B7B7B",
"s  c #7B7B7B",
"d  c #7B7B7B",
"f  c #7B7B7B",
"g  c #7B7B7B",
"h  c #7B7B7B",
"j  c #7B7B7B",
"k  c #7B7B7B",
"l  c #7B7B7B",
"z  c #7B7B7B",
"x  c #7B7B7B",
"c  c #7B7B7B",
"v  c #7B7B7B",
"b  c #7B7B7B",
"n  c #7B7B7B",
"m  c #7B7B7B",
"M  c #7B7B7B",
"N  c #7B7B7B",
"B  c #7B7B7B",
"V  c #7B7B7B",
"C  c #7B7B7B",
"Z  c #7B7B7B",
"A  c #7B7B7B",
"S  c #7B7B7B",
"D  c #7B7B7B",
"F  c #7B7B7B",
"G  c #7B7B7B",
"H  c #7B7B7B",
"J  c #7B7B7B",
"K  c #7B7B7B",
"L  c #7B7B7B",
"P  c #7B7B7B",
"I  c #7B7B7B",
"U  c #7B7B7B",
"Y  c #7B7B7B",
"T  c #7B7B7B",
"R  c #7B7B7B",
"E  c #7B7B7B",
"W  c #7B7B7B",
"Q  c #7B7B7B",
"!  c #7B7B7B",
"~  c #7B7B7B",
"^  c #7B7B7B",
"/  c #7B7B7B",
"(  c #7B7B7B",
")  c #7B7B7B",
"_  c #7B7B7B",
"`  c #7B7B7B",
"'  c #7B7B7B",
"]  c #7B7B7B",
"[  c #7B7B7B",
"{  c #7B7B7B",
"}  c #7B7B7B",
"|  c #7B7B7B",
" . c #7B7B7B",
".. c #7B7B7B",
"X. c #7B7B7B",
"o. c #7B7B7B",
"O. c #7B7B7B",
"+. c #7B7B7B",
"@. c #7B7B7B",
"#. c #7B7B7B",
"$. c #7B7B7B",
"%. c #7B7B7B",
"&. c #7B7B7B",
"*. c #7B7B7B",
"=. c #7B7B7B",
"-. c #7B7B7B",
";. c #7B7B7B",
":. c #7B7B7B",
">. c #7B7B7B",
",. c #7B7B7B",
"<. c #7B7B7B",
"1. c #7B7B7B",
"2. c #7B7B7B",
"3. c #7B7B7B",
"4. c #7B7B7B",
"5. c #7B7B7B",
"6. c #7B7B7B",
"7. c #7B7B7B",
"8. c #7B7B7B",
"9. c #7B7B7B",
"0. c #7B7B7B",
"q. c #7B7B7B",
"w. c #7B7B7B",
"e. c #7B7B7B",
"r. c #7B7B7B",
"t. c #7B7B7B",
"y. c #7B7B7B",
"u. c #7B7B7B",
"i. c #7B7B7B",
"p. c #7B7B7B",
"a. c #7B7B7B",
"s. c #7B7B7B",
"d. c #7B7B7B",
"f. c #7B7B7B",
"g. c #7B7B7B",
"h. c #7B7B7B",
"j. c #7B7B7B",
"k. c #7B7B7B",
"l. c #7B7B7B",
"z. c #7B7B7B",
"x. c #7B7B7B",
"c. c #7B7B7B",
"v. c #7B7B7B",
"b. c #7B7B7B",
"n. c #7B7B7B",
"m. c #7B7B7B",
"M. c #7B7B7B",
"N. c #7B7B7B",
"B. c #7B7B7B",
"V. c #7B7B7B",
"C. c #7B7B7B",
"Z. c #7B7B7B",
"A. c #7B7B7B",
"S. c #7B7B7B",
"D. c #7B7B7B",
"F. c #7B7B7B",
"G. c #7B7B7B",
"H. c #7B7B7B",
"J. c #7B7B7B",
"K. c #7B7B7B",
"L. c #7B7B7B",
"P. c #7B7B7B",
"I. c #7B7B7B",
"U. c #7B7B7B",
"Y. c #7B7B7B",
"T. c #7B7B7B",
"R. c #7B7B7B",
"E. c #7B7B7B",
"W. c #7B7B7B",
"Q. c #7B7B7B",
"!. c #7B7B7B",
"~. c #7B7B7B",
"^. c #7B7B7B",
"/. c #7B7B7B",
"(. c #7B7B7B",
"). c #7B7B7B",
"_. c #7B7B7B",
"`. c #7B7B7B",
"'. c #7B7B7B",
"]. c #7B7B7B",
"[. c #7B7B7B",
"{. c #7B7B7B",
"}. c #7B7B7B",
"|. c #7B7B7B",
" X c #7B7B7B",
".X c #7B7B7B",
"XX c #7B7B7B",
"oX c #7B7B7B",
"OX c #7B7B7B",
"+X c #7B7B7B",
"@X c #7B7B7B",
"#X c #7B7B7B",
"$X c #7B7B7B",
"%X c #7B7B7B",
"&X c #7B7B7B",
"*X c #7B7B7B",
"=X c #7B7B7B",
"-X c #7B7B7B",
";X c #7B7B7B",
":X c #7B7B7B",
">X c #7B7B7B",
",X c #7B7B7B",
"<X c #7B7B7B",
"1X c #7B7B7B",
"2X c #7B7B7B",
"3X c #7B7B7B",
"4X c #7B7B7B",
"5X c #7B7B7B",
"6X c #7B7B7B",
"7X c #7B7B7B",
"8X c #7B7B7B",
"9X c #7B7B7B",
"0X c #7B7B7B",
"qX c #AC8373",
"wX c #391008",
"eX c gray74",
"rX c #5A2918",
"tX c #A49C9C",
"yX c #734131",
"uX c #8B624A",
"iX c #9C735A",
"pX c #522018",
"aX c #AC8B7B",
"sX c #181818",
"dX c #411810",
"fX c #313131",
"gX c gray32",
"hX c #393939",
"jX c #310800",
"kX c #4A1810",
"lX c #202020",
"zX c #626262",
"xX c #414141",
"cX c gray16",
"vX c #5A5A5A",
"bX c #413939",
"nX c #7B0000",
"mX c gray29",
"MX c gray58",
"NX c gray3",
"BX c gray45",
"VX c #B4ACAC",
"CX c #A47B62",
"ZX c #6A6A6A",
"AX c #946A52",
"SX c #7B7B7B",
"DX c #9C0000",
"FX c #BD9C8B",
"GX c #838383",
"HX c #835241",
"JX c #B4B4B4",
"KX c #DE0000",
"LX c #CDCDCD",
"PX c #8B5A41",
"IX c #BD0000",
"UX c #6A3929",
/* pixels */
"vXvXvXvXvXvXgXgXgXgXgXvXmXmXvXvXvXvXvXvXvXvXvXvXgXUXdXwXwXwXwXwXwXwXwXwXwXwXwXgXvXgXVXBXvXvXvXvXvXvXvXvXgXgXgXgXgXgXgXgXgXgXgXgX",
"vXvXvXvXvXgXgXgXgXgXgXvXmXmXvXvXvXvXvXvXvXvXvXgXxXPXUXpXkXkXkXkXkXkXkXkXkXpXkXmXvXgXtXBXgXvXvXvXvXvXvXvXgXmXfXcXgXgXgXgXgXgXgXgX",
"vXvXvXvXgXgXgXgXgXgXgXvXmXmXvXvXvXvXvXvXvXvXvXmXhXiXHXnXDXIXKXo o KXIXDXnXrXkXxXgXmXtXBXgXvXvXvXvXvXvXvXgXZXgXhXgXgXgXgXgXgXgXgX",
"vXvXvXgXgXgXgXgXgXgXgXvXmXmXvXvXvXvXvXvXvXvXgXxXfXCXuXDXIXKXo o o o KXIXDXrXkXGXMXtXGXZXgXvXvXvXvXvXvXvXgX$ BXvXgXgXgXgXgXgXgXgX",
"JXJXeXeXeXeXeXeXJXJXeXJXVXeXJXeXLXVXJXeXeXeXJXVXtXCXuXDXIXKXo o o o KXIXDXrXkXmXgXvXzXfXvXvXvXvXvXvXvXvXgXgXgXgXgXgXgXgXgXgXgXgX",
"BXBXBXBX$ BXBXBXBX$ BXBXBX$ BX$ GXzXBXBX$ $ $ BXzXCXAXnXDXIXKXo o KXIXDXnXUXkXsXlXcXfXgXvXvXvXvXvXvXvXvXvXvXvXvXvXvXvXvXvXvXvXvX",
"lXlXcXlXcXlXlXcXlXcXlXlXcXlXlXcXfXNXlXcXcXlXlXsXNXqXiXCXCXCXCXCXCXCXCXCXiXyXpXsXcXfXmXvXvXvXvXvXvXvXvXvXmXmXmXvXmXmXmXvXmXmXmXvX",
"hXhXhXfXfXfXfXfXfXfXfXhXcXcXhXhXhXhXfXfXcXlXsXNXNXFXFXFXFXFXFXFXFXFXFXFXFXaXyXcXhXxXmXgXgXvXvXvXvXvXvXvXmXmXmXvXmXmXmXvXmXmXmXvX",
"vXvXvXgXgXgXgXgXgXgXgXvXmXmXvXvXgXgXmXmXxXfXlXsXNXNXNXNXNXlXNXNXNXNXNXNXNXNXNXNXsXlXfXxXxXmXgXvXvXvXvXvXmXmXmXvXmXmXmXvXmXmXmXvX",
"vXvXvXgXgXgXgXgXgXgXgXvXmXmXvXgXmXmXxXfXcXlXsXsXsXNXNXNXNXfXNXNXNXNXNXNXNXsXlXsXNXsXsXlXlXfXxXmXgXvXvXvXvXvXvXvXvXvXgXgXgXvXvXvX",
"vXvXvXgXgXgXgXgXgXgXgXvXmXxXgXmXxXfXcXsXsXcXfXfXcXlXlXlXsXxXlXlXlXlXlXlXlXcXhXcXfXcXlXsXsXsXlXfXmXgXvXvXvXvXvXvXvXgXsXsXsXgXvXvX",
"vXvXvXvXgXgXgXgXgXgXgXvXxXxXmXfXcXsXsXcXfXhXhXhXfXfXfXfXcXgXfXfXfXfXfXfXfXhXmXfXhXhXhXhXcXlXsXsXlXfXmXgXvXvXvXvXzXlXzXMXGXsXgXvX",
"vXvXvXvXvXgXgXgXgXgXgXgXxXhXfXsXlXfXxXcXfXhXhXhXhXhXhXhXfXvXhXhXhXhXhXhXhXxXmXfXhXxXxXxXhXhXcXsXsXlXfXmXgXvXvXvXzXcXZXVXMXsXgXvX",
"vXvXvXvXvXvXgXgXgXgXmXmXcXlXlXcXfXhXxXcXfXhXhXhXhXhXhXhXfXvXhXhXhXhXhXhXhXxXmXfXhXxXxXxXxXxXhXhXcXsXlXlXhXgXvXvXzXfXmXzXvXlXgXvX",
"vXvXvXvXvXvXvXgXgXmXxXfXsXlXfXfXfXfXhXxXcXfXhXhXhXhXhXhXfXvXxXhXhXhXhXhXxXmXfXhXxXxXxXxXxXxXxXxXhXcXlXsXlXhXgXvXvXzXfXcXlXgXvXvX",
"vXvXvXvXvXvXvXgXmXxXcXlXcXfXfXfXfXfXhXxXcXfXhXhXhXhXhXhXfXvXmXhXhXhXhXhXxXmXfXhXxXxXxXxXxXxXxXxXxXhXhXcXsXlXxXgXvXvXzXzXzXvXvXvX",
"vXvXvXvXvXvXvXmXxXcXlXfXfXfXfXfXfXfXfXhXxXcXfXhXhXhXhXhXhXmXvXhXhXhXhXhXxXmXfXhXxXxXxXxXxXxXxXxXxXxXxXhXcXsXlXhXgXvXvXvXvXvXvXvX",
"vXvXvXvXvXvXgXxXcXlXfXfXfXfXfXfXfXfXfXhXxXcXfXhXhXhXhXhXhXxXvXhXhXhXhXhXxXmXfXhXxXxXxXxXxXxXxXxXxXxXxXxXhXcXsXlXhXgXvXvXvXvXvXvX",
"vXvXvXvXvXgXmXcXlXfXfXfXfXfXfXfXfXfXfXfXhXxXcXfXhXhXhXhXhXfXvXhXhXhXhXxXmXfXhXxXxXxXxXxXxXxXxXxXxXxXxXxXxXhXcXsXlXhXgXvXvXvXvXvX",
"vXvXvXvXvXmXfXlXfXfXfXfXfXfXfXfXfXfXfXfXhXxXcXfXhXhXhXhXhXfXvXhXhXhXhXxXmXfXhXxXxXxXxXxXxXxXxXxXxXxXxXxXxXxXhXcXsXlXhXgXvXvXvXvX",
"vXvXvXvXgXhXlXfXfXfXfXfXfXfXfXfXfXfXfXfXfXhXxXcXfXhXhXhXhXfXvXhXhXhXhXxXmXfXhXxXxXxXxXxXxXxXxXxXxXxXxXxXxXxXxXhXcXsXcXxXvXvXvXvX",
"vXvXvXgXmXfXfXfXfXfXfXfXfXfXfXfXfXfXfXfXfXhXxXcXfXhXhXhXhXfXvXhXhXhXhXxXmXfXhXxXxXxXxXxXxXxXxXxXxXxXxXxXxXxXxXxXhXlXlXhXgXvXvXvX",
"vXvXvXmXfXcXfXfXfXfXfXfXfXfXfXfXfXfXfXfXfXhXxXcXfXhXhXhXhXfXvXhXhXhXxXmXfXhXxXxXxXxXxXxXxXxXxXxXxXxXxXxXxXxXxXxXxXcXsXlXxXvXvXvX",
"vXvXgXhXlXfXfXfXfXfXfXfXfXfXfXfXfXfXfXfXfXfXhXxXcXfXhXhXhXfXvXhXhXhXxXmXfXhXxXxXxXxXxXxXxXxXxXxXxXxXxXxXxXxXxXxXxXhXcXsXcXmXvXvX",
"vXvXmXfXfXfXfXfXfXfXfXfXfXfXfXfXfXfXfXfXfXfXhXxXcXfXhXhXhXfXvXhXhXhXxXmXfXhXxXxXxXxXxXxXxXxXxXxXxXxXxXxXxXxXxXxXxXxXhXlXlXxXvXvX",
"vXgXhXcXfXfXfXfXfXfXfXfXfXfXfXfXfXfXfXfXfXfXfXhXxXcXfXhXhXfXvXhXhXhXxXmXfXhXxXxXxXxXxXxXxXxXxXxXxXxXxXxXxXxXxXxXxXxXmXfXsXcXmXvX",
"vXmXfXfXfXfXfXfXfXfXfXfXfXfXfXfXfXfXfXlXlXlXfXhXxXcXfXhXhXfXvXhXhXxXmXfXhXxXxXxXxXxXxXxXxXxXxXxXxXxXxXxXxXxXxXxXmXmXgXmXNXlXxXvX",
"vXxXcXfXfXfXfXfXfXfXfXfXfXfXfXfXfXfXlXfXfXfXlXfXhXxXcXfXhXfXvXhXhXxXmXfXhXxXxXxXxXxXxXxXxXxXxXxXxXxXxXxXxXxXmXmXgXgXcXcXsXNXfXgX",
"vXhXfXfXfXfXfXfXfXfXfXfXfXfXfXfXfXlXfXfXfXfXfXlXhXxXcXfXhXfXvXhXhXxXmXfXhXxXxXxXxXxXxXxXxXxXxXxXxXxXxXxXmXmXgXgXcXcXfXfXfXsXcXmX",
"gXfXfXfXfXfXfXfXfXfXfXfXfXfXfXfXfXlXfXfXfXfXfXlXfXhXxXcXfXfXvXxXhXxXmXfXhXxXxXxXxXxXxXxXxXxXxXxXxXmXmXmXgXgXcXcXfXfXhXhXhXsXlXxX",
"xXlXfXfXfXfXfXfXfXfXfXfXfXfXfXfXfXlXfXfXfXfXfXlXfXhXxXcXfXfXvXmXxXmXfXhXxXxXxXxXxXxXxXxXxXxXxXmXmXgXgXgXcXcXfXfXhXhXhXhXhXlXsXhX",
"hXlXcXcXcXcXfXfXfXfXfXfXfXfXfXfXfXfXlXfXfXfXlXfXfXhXxXcXfXfXmXvXxXmXfXhXxXxXxXxXxXxXxXxXxXmXmXgXgXcXcXcXfXfXhXhXhXhXhXhXhXfXsXcX",
"fXhXlXlXlXlXcXcXcXcXfXfXfXfXfXfXfXfXfXlXlXlXfXfXfXfXhXxXcXfXxXvXxXmXfXhXxXxXxXxXxXxXxXmXmXgXgXcXcXfXfXfXhXhXhXhXhXhXhXhXhXhXsXlX",
"cXfXhXhXhXhXlXlXlXlXcXcXcXcXfXfXfXfXfXfXfXfXfXfXfXfXhXxXcXfXhXvXxXmXfXhXxXxXxXxXmXmXmXgXgXcXcXfXfXhXhXhXhXhXhXhXhXhXhXhXhXhXsXsX",
"lXcXfXfXfXfXhXhXhXhXlXlXlXlXcXcXcXcXfXfXfXfXfXfXfXfXfXhXxXcXfXvXmXcXfXxXxXxXmXmXgXgXgXcXcXfXfXhXhXhXhXhXhXhXhXhXhXhXhXhXhXhXlXsX",
"cXcXcXcXcXcXfXfXfXfXhXhXhXhXlXlXlXlXcXcXcXcXfXfXfXfXfXhXxXlXcXhXmXcXhXxXmXmXgXgXcXcXcXfXfXhXhXhXhXhXhXhXhXhXhXhXhXhXhXhXhXhXfXlX",
"cXcXcXcXcXcXcXcXcXcXfXfXfXfXhXhXhXhXlXlXlXlXcXcXcXcXfXfXhXxXlXfXmXcXhXmXgXgXcXcXfXfXfXhXhXhXhXhXhXhXhXhXhXhXhXhXhXhXhXhXhXhXhXlX",
"cXcXcXcXcXcXcXcXcXcXcXcXcXcXfXfXfXfXhXhXhXhXlXlXlXlXlXcXcXfXlXfXmXcXxXgXlXcXfXfXhXhXhXhXhXhXhXhXhXhXhXhXhXhXxXmXvXvXvXvXvXgXxXfX",
"cXcXcXcXcXcXcXcXcXcXcXcXcXcXcXcXcXcXfXfXfXfXhXhXhXhXsXsXsXsXlXlXhXfXlXlXcXfXhXxXmXvXvXvXvXvXvXvXvXvXvXvXvXvXvXvXmXxXfXfXfXcXlXsX",
"cXcXcXcXcXcXcXcXcXcXcXcXcXcXcXcXcXcXcXcXcXcXfXfXfXfXhXhXhXhXlXNXNXlXfXfXhXvXvXvXvXmXxXfXfXfXfXfXfXfXfXfXfXfXfXfXhXhXhXhXhXfXcXsX",
"cXcXcXcXcXcXcXcXcXcXcXcXcXcXcXcXcXcXcXcXcXfXhXmXmXmXmXcXlXlXsXNXNXhXmXmXmXmXxXxXxXxXhXhXhXhXhXhXhXhXhXhXhXhXhXhXhXhXhXhXhXhXhXlX",
"cXcXcXcXcXcXfXhXmXmXmXmXmXmXmXmXmXmXmXmXmXmXmXhXfXcXlXsXsXsXsXcXsXlXsXsXsXsXmXmXmXmXxXxXxXxXhXhXhXhXhXhXhXhXhXhXhXhXhXhXhXhXhXlX",
"hXxXmXmXmXmXmXmXhXfXlXlXlXlXlXlXlXlXlXlXlXlXlXcXlXlXsXsXfXlXNXhXlXsXfXcXcXlXlXlXlXlXmXmXmXmXxXxXxXxXhXhXhXhXhXhXhXhXhXhXhXhXhXlX",
"sXlXlXlXlXlXlXlXcXcXcXcXcXcXcXcXcXcXcXcXcXlXlXlXsXsXfXfXcXsXNXhXlXsXxXfXfXfXcXcXcXcXlXlXlXlXmXmXmXmXxXxXxXxXhXhXhXhXhXhXhXhXhXlX",
"cXcXcXcXcXcXcXcXcXcXcXcXcXcXcXcXcXcXcXlXlXsXsXsXfXfXcXcXlXsXNXhXcXsXsXxXhXfXfXfXfXfXcXcXcXcXlXlXlXlXmXmXmXmXxXxXxXxXhXhXhXhXhXlX",
"cXcXcXcXcXcXcXcXcXcXcXcXcXcXcXcXcXlXlXsXsXfXfXfXcXcXlXlXlXsXNXhXmXlXsXxXhXfXfXfXfXfXfXfXfXfXcXcXcXcXlXlXlXlXmXmXmXmXxXxXxXxXhXlX",
"GXcXcXcXcXcXcXcXcXcXcXcXcXcXcXlXlXsXsXfXfXcXcXcXlXlXlXlXsXsXhXfXmXcXlXsXxXhXfXfXfXfXfXfXfXfXfXfXfXfXcXcXcXcXlXlXlXlXmXmXmXmXhXBX",
"GXcXcXcXcXcXcXcXcXcXcXcXlXlXlXsXsXfXfXcXcXlXlXlXlXlXlXlXsXsXhXfXmXfXlXsXxXhXfXfXfXfXfXfXfXfXfXfXfXfXfXfXfXfXcXcXcXcXlXlXlXlXcXBX",
"$ cXcXcXcXcXcXcXcXcXlXlXsXsXsXfXfXcXcXlXlXlXlXlXlXlXlXlXsXsXhXfXmXhXcXlXsXxXhXfXfXfXfXfXfXfXfXfXfXfXfXfXfXfXfXfXfXfXcXcXcXcXNXZX",
"$ cXcXcXcXcXcXcXlXlXsXsXfXfXfXcXcXlXlXlXlXlXlXlXlXlXlXlXsXsXhXfXhXmXcXlXsXxXhXfXfXfXfXfXfXfXfXfXfXfXfXfXfXfXfXfXfXfXfXfXfXfXsXZX",
"BXGXcXcXcXcXlXlXsXsXfXfXcXcXcXlXlXlXlXlXlXlXlXlXlXlXlXsXsXhXfXcXfXmXcXlXsXxXhXfXfXfXfXfXfXfXfXfXfXfXfXfXfXfXfXfXfXfXfXfXfXcXBXzX",
"ZXGXcXcXlXlXsXsXfXfXcXcXlXlXlXlXlXlXlXlXlXlXlXlXlXlXlXsXsXhXfXcXlXmXcXcXlXsXxXhXfXfXfXfXfXfXfXfXfXfXfXfXfXfXfXfXfXfXfXfXfXsXBXvX",
"zX$ lXlXsXsXfXfXcXcXlXlXlXlXlXlXlXlXlXlXlXlXlXlXlXlXlXsXsXhXfXcXlXmXcXcXlXsXxXhXfXfXfXfXfXfXfXfXfXfXfXfXfXfXfXfXfXfXfXfXfXsXZXvX",
"vXBXGXsXfXfXcXcXlXlXlXlXlXlXlXlXlXlXlXlXlXlXlXlXlXlXlXsXsXhXfXcXlXmXcXcXcXlXsXxXhXfXfXfXfXfXfXfXfXfXfXfXfXfXfXfXfXfXfXfXcXBXzXvX",
"vXZXGXfXcXcXlXlXlXlXlXlXlXlXlXlXlXlXlXlXlXlXlXlXlXlXsXsXhXfXcXcXPXAXCXcXcXlXsXxXhXfXfXfXfXfXfXfXfXfXfXfXfXfXfXfXfXfXfXfXsXBXvXvX",
"vXzXBXGXlXlXlXlXlXlXlXlXlXlXlXlXlXlXlXlXlXlXlXlXlXlXsXsXhXfXcXlXyXPXAXcXcXcXlXsXxXhXfXfXfXfXfXfXfXfXfXfXfXfXfXfXfXfXfXcXBXZXvXvX",
"vXvXZXGXlXlXlXlXlXlXlXlXlXlXlXlXlXlXlXlXlXlXlXlXlXlXsXsXhXfXcXlXyXHXAXcXcXcXlXsXxXhXfXfXfXfXfXfXfXfXfXfXfXfXfXfXfXfXfXsXBXzXvXvX",
"vXvXzXBXGXlXlXlXlXlXlXlXlXlXlXlXlXlXlXlXlXlXlXlXlXlXsXsXhXfXcXlXUXHXuXcXcXcXcXlXsXxXhXfXfXfXfXfXfXfXfXfXfXfXfXfXfXfXcXBXZXvXvXvX",
"vXvXvXZXBXGXlXlXlXlXlXlXlXlXlXlXlXlXlXlXlXlXlXlXlXsXsXhXfXcXcXlXUXHXuXcXcXcXcXlXsXxXhXfXfXfXfXfXfXfXfXfXfXfXfXfXfXcXBXZXzXvXvXvX",
"gXgXgXvXZXGXlXlXlXlXlXlXlXlXlXlXlXlXlXlXlXlXlXlXlXsXsXhXfXcXcXlXUXHXPXcXcXcXcXlXsXxXhXfXfXfXfXfXfXfXfXfXfXfXfXfXfXsXBXzXvXvXvXvX",
"hXhXhXhXxXmXvXlXlXlXlXlXlXlXlXlXlXlXlXlXlXlXlXlXlXsXsXhXfXcXcXlXpXUXHXcXcXcXcXcXlXsXxXhXfXfXfXfXfXfXfXfXfXfXfXfXcXBXZXzXvXvXvXvX",
"mXmXmXmXgXvXZXzXlXlXlXlXlXlXlXlXlXlXlXlXlXlXlXlXlXsXsXhXfXcXcXlXsXcXsXcXcXcXcXcXlXsXxXhXfXfXfXfXfXfXfXfXfXfXfXcXBXZXzXvXgXgXgXgX",
"gXgXgXgXgXvXzXvXGXlXlXlXlXlXlXlXlXlXlXlXlXlXlXlXsXsXhXfXcXcXcXcXlXmXfXcXcXcXcXcXcXlXsXxXhXfXfXfXfXfXfXfXfXfXcXBXZXzXvXvXgXgXgXgX",
"gXgXgXgXgXgXvXgXBXGXlXlXlXlXlXlXlXlXlXlXlXlXlXlXsXsXhXfXcXcXcXcXlXmXhXcXcXcXcXcXcXlXsXxXhXfXfXfXfXfXfXfXfXcXBXZXzXvXvXvXgXgXgXgX",
"gXgXgXgXgXgXgXmXzXBXGXlXlXlXlXlXlXlXlXlXlXlXlXlXsXsXhXfXcXcXcXcXcXhXmXcXcXcXcXcXcXcXlXsXxXhXfXfXfXfXfXfXcXBXZXzXvXvXvXvXgXgXgXgX",
"gXgXgXgXgXgXgXxXvXzXBXGXlXlXlXlXlXlXlXlXlXlXlXlXsXsXhXfXcXcXcXcXcXfXmXcXcXcXcXcXcXcXlXsXxXhXfXfXfXfXfXcXBXZXzXvXvXvXvXvXvXvXvXvX",
"gXgXgXgXgXgXmXxXvXzXZXBXZXGXlXlXlXlXlXlXlXlXlXsXsXhXfXcXcXcXcXcXcXlXmXcXcXcXcXcXcXcXcXlXsXxXhXfXfXcXBXBXZXzXvXvXvXvXvXvXmXmXmXmX",
"gXgXgXgXgXgXmXxXvXvXzXZXvXBXGXlXlXlXlXlXlXlXlXsXsXhXfXcXcXcXcXcXcXlXmXcXcXcXcXcXcXcXcXlXsXxXhXfXcXBXZXZXzXvXzXzXzXzXzXvXmXmXmXmX",
"gXgXgXgXgXgXxXhXvXvXvXzXgXZXBXGXGXlXlXlXlXlXlXsXsXhXfXcXcXcXcXcXcXlXmXcXcXcXcXcXcXcXcXcXlXsXhXBXBXZXzXzXvXmXZXZXZXZXZXgXmXmXmXmX",
"gXgXgXgXzXzXzXzXvXvXvXvXmXzXZXBX$ GXGXlXlXlXlXsXsXhXfXcXcXcXcXcXcXlXmXcXcXcXcXcXcXcXcXcXsXBXBXZXZXzXvXvXgXxXBXBXxXBXBXmXvXvXvXvX",
"gXgXgXmXvXvXvXvXvXvXvXvXxXvXzXZXBXBX$ GXGXGXlXsXhXfXcXcXcXcXcXcXcXlXxXcXcXcXcXcXcXlXBXBXBXZXZXzXzXvXvXgXxXfX$ $ cX$ $ xXgXvXvXvX",
"gXgXmXxXvXvXvXvXvXvXvXvXxXvXvXzXzXZXBXBXBX$ GXGXGXGXcXcXcXcXcXcXlXsXhXcXcXlXBXBXBXBXZXZXZXzXzXvXvXvXgXmXhXcXGXGXsXGXGXfXxXgXvXvX"
};
