/* XPM */
static char *door41734959594[] = {
/* columns rows colors chars-per-pixel */
"64 72 256 2 ",
"   c black",
".  c blue",
"X  c green",
"o  c red",
"O  c cyan",
"+  c yellow",
"@  c magenta",
"#  c white",
"$  c #7B7B7B",
"%  c #7B7B7B",
"&  c #7B7B7B",
"*  c #7B7B7B",
"=  c #7B7B7B",
"-  c #7B7B7B",
";  c #7B7B7B",
":  c #7B7B7B",
">  c #7B7B7B",
",  c #7B7B7B",
"<  c #7B7B7B",
"1  c #7B7B7B",
"2  c #7B7B7B",
"3  c #7B7B7B",
"4  c #7B7B7B",
"5  c #7B7B7B",
"6  c #7B7B7B",
"7  c #7B7B7B",
"8  c #7B7B7B",
"9  c #7B7B7B",
"0  c #7B7B7B",
"q  c #7B7B7B",
"w  c #7B7B7B",
"e  c #7B7B7B",
"r  c #7B7B7B",
"t  c #7B7B7B",
"y  c #7B7B7B",
"u  c #7B7B7B",
"i  c #7B7B7B",
"p  c #7B7B7B",
"a  c #7B7B7B",
"s  c #7B7B7B",
"d  c #7B7B7B",
"f  c #7B7B7B",
"g  c #7B7B7B",
"h  c #7B7B7B",
"j  c #7B7B7B",
"k  c #7B7B7B",
"l  c #7B7B7B",
"z  c #7B7B7B",
"x  c #7B7B7B",
"c  c #7B7B7B",
"v  c #7B7B7B",
"b  c #7B7B7B",
"n  c #7B7B7B",
"m  c #7B7B7B",
"M  c #7B7B7B",
"N  c #7B7B7B",
"B  c #7B7B7B",
"V  c #7B7B7B",
"C  c #7B7B7B",
"Z  c #7B7B7B",
"A  c #7B7B7B",
"S  c #7B7B7B",
"D  c #7B7B7B",
"F  c #7B7B7B",
"G  c #7B7B7B",
"H  c #7B7B7B",
"J  c #7B7B7B",
"K  c #7B7B7B",
"L  c #7B7B7B",
"P  c #7B7B7B",
"I  c #7B7B7B",
"U  c #7B7B7B",
"Y  c #7B7B7B",
"T  c #7B7B7B",
"R  c #7B7B7B",
"E  c #7B7B7B",
"W  c #7B7B7B",
"Q  c #7B7B7B",
"!  c #7B7B7B",
"~  c #7B7B7B",
"^  c #7B7B7B",
"/  c #7B7B7B",
"(  c #7B7B7B",
")  c #7B7B7B",
"_  c #7B7B7B",
"`  c #7B7B7B",
"'  c #7B7B7B",
"]  c #7B7B7B",
"[  c #7B7B7B",
"{  c #7B7B7B",
"}  c #7B7B7B",
"|  c #7B7B7B",
" . c #7B7B7B",
".. c #7B7B7B",
"X. c #7B7B7B",
"o. c #7B7B7B",
"O. c #7B7B7B",
"+. c #7B7B7B",
"@. c #7B7B7B",
"#. c #7B7B7B",
"$. c #7B7B7B",
"%. c #7B7B7B",
"&. c #7B7B7B",
"*. c #7B7B7B",
"=. c #7B7B7B",
"-. c #7B7B7B",
";. c #7B7B7B",
":. c #7B7B7B",
">. c #7B7B7B",
",. c #7B7B7B",
"<. c #7B7B7B",
"1. c #7B7B7B",
"2. c #7B7B7B",
"3. c #7B7B7B",
"4. c #7B7B7B",
"5. c #7B7B7B",
"6. c #7B7B7B",
"7. c #7B7B7B",
"8. c #7B7B7B",
"9. c #7B7B7B",
"0. c #7B7B7B",
"q. c #7B7B7B",
"w. c #7B7B7B",
"e. c #7B7B7B",
"r. c #7B7B7B",
"t. c #7B7B7B",
"y. c #7B7B7B",
"u. c #7B7B7B",
"i. c #7B7B7B",
"p. c #7B7B7B",
"a. c #7B7B7B",
"s. c #7B7B7B",
"d. c #7B7B7B",
"f. c #7B7B7B",
"g. c #7B7B7B",
"h. c #7B7B7B",
"j. c #7B7B7B",
"k. c #7B7B7B",
"l. c #7B7B7B",
"z. c #7B7B7B",
"x. c #7B7B7B",
"c. c #7B7B7B",
"v. c #7B7B7B",
"b. c #7B7B7B",
"n. c #7B7B7B",
"m. c #7B7B7B",
"M. c #7B7B7B",
"N. c #7B7B7B",
"B. c #7B7B7B",
"V. c #7B7B7B",
"C. c #7B7B7B",
"Z. c #7B7B7B",
"A. c #7B7B7B",
"S. c #7B7B7B",
"D. c #7B7B7B",
"F. c #7B7B7B",
"G. c #7B7B7B",
"H. c #7B7B7B",
"J. c #7B7B7B",
"K. c #7B7B7B",
"L. c #7B7B7B",
"P. c #7B7B7B",
"I. c #7B7B7B",
"U. c #7B7B7B",
"Y. c #7B7B7B",
"T. c #7B7B7B",
"R. c #7B7B7B",
"E. c #7B7B7B",
"W. c #7B7B7B",
"Q. c #7B7B7B",
"!. c #7B7B7B",
"~. c #7B7B7B",
"^. c #7B7B7B",
"/. c #7B7B7B",
"(. c #7B7B7B",
"). c #7B7B7B",
"_. c #7B7B7B",
"`. c #7B7B7B",
"'. c #7B7B7B",
"]. c #7B7B7B",
"[. c #7B7B7B",
"{. c #7B7B7B",
"}. c #7B7B7B",
"|. c #7B7B7B",
" X c #7B7B7B",
".X c #7B7B7B",
"XX c #7B7B7B",
"oX c #7B7B7B",
"OX c #7B7B7B",
"+X c #7B7B7B",
"@X c #7B7B7B",
"#X c #7B7B7B",
"$X c #7B7B7B",
"%X c #7B7B7B",
"&X c #7B7B7B",
"*X c #7B7B7B",
"=X c #7B7B7B",
"-X c #7B7B7B",
";X c #7B7B7B",
":X c #7B7B7B",
">X c #7B7B7B",
",X c #7B7B7B",
"<X c #7B7B7B",
"1X c #7B7B7B",
"2X c #7B7B7B",
"3X c #7B7B7B",
"4X c #7B7B7B",
"5X c #7B7B7B",
"6X c #7B7B7B",
"7X c #7B7B7B",
"8X c #7B7B7B",
"9X c #7B7B7B",
"0X c #7B7B7B",
"qX c #7B7B7B",
"wX c #734131",
"eX c #B4ACAC",
"rX c #835241",
"tX c #623120",
"yX c #181818",
"uX c #4A1810",
"iX c #414141",
"pX c #6A6A6A",
"aX c #313131",
"sX c #CD6A00",
"dX c gray32",
"fX c #411810",
"gX c #202020",
"hX c gray29",
"jX c #8B8B8B",
"kX c gray16",
"lX c gray3",
"zX c gray45",
"xX c #5A5A5A",
"cX c #A49C9C",
"vX c #BD9C8B",
"bX c #9C735A",
"nX c #7B7B7B",
"mX c #D59400",
"MX c #B4B4B4",
"NX c #E6BD00",
"BX c #310800",
"VX c #946A52",
"CX c #CDCDCD",
"ZX c #6A3929",
"AX c #AC8373",
"SX c #DEAC00",
"DX c #A47B62",
"FX c #AC8B7B",
"GX c gray74",
"HX c #D58300",
"JX c #5A2918",
"KX c #ACA4A4",
"LX c #8B5A41",
"PX c #7B4A39",
"IX c #622920",
"UX c gray58",
/* pixels */
"xXxXxXxXxXxXdXdXdXdXdXxXhXhXxXxXxXxXxXxXxXxXxXxXdXZXfXBXBXBXBXBXBXBXBXBXBXBXBXdXxXdXKXzXxXxXxXxXxXxXxXxXdXdXdXdXdXdXdXdXdXdXdXdX",
"xXxXxXxXxXdXdXdXdXdXdXxXhXhXxXxXxXxXxXxXxXxXxXdXiXLXtXuXuXuXuXuXuXuXuXuXuXuXuXhXxXdXcXzXdXxXxXxXxXxXxXxXdXhXaXkXdXdXdXdXdXdXdXdX",
"xXxXxXxXdXdXdXdXdXdXdXxXhXhXxXxXxXxXxXxXxXxXxXhXiXbXrXsXHXmXSXNXNXSXmXHXsXJXuXiXdXhXcXzXdXxXxXxXxXxXxXxXdXpXdXiXdXdXdXdXdXdXdXdX",
"xXxXxXdXdXdXdXdXdXdXdXxXhXhXxXxXxXxXxXxXxXxXdXiXaXDXVXHXmXSXNXNXNXNXSXmXHXJXuX$ UXcX$ pXdXxXxXxXxXxXxXxXdX$ zXxXdXdXdXdXdXdXdXdX",
"MXMXGXGXGXGXGXGXMXMXGXMXeXGXMXGXCXKXMXGXGXGXMXeXcXDXVXHXmXSXNXNXNXNXSXmXHXJXuXhXdXxXxXaXxXxXxXxXxXxXxXxXdXdXdXdXdXdXdXdXdXdXdXdX",
"zXzXzXzX$ zXzXzXzX$ zXzXzX$ zX$ $ xXzXzX$ $ $ zXxXDXVXsXHXmXSXNXNXSXmXHXsXtXuXyXgXkXaXdXxXxXxXxXxXxXxXxXxXxXxXxXxXxXxXxXxXxXxXxX",
"gXgXkXgXkXgXgXkXgXkXgXgXkXgXgXkXaXlXgXkXkXgXgXyXlXAXbXDXDXDXDXDXDXDXDXDXbXwXuXyXkXaXhXxXxXxXxXxXxXxXxXxXhXhXhXxXhXhXhXxXhXhXhXxX",
"iXiXiXaXaXaXaXaXaXaXaXiXkXkXiXiXiXiXaXaXkXgXyXlXlXvXvXvXvXvXvXvXvXvXvXvXvXFXwXkXiXiXhXdXdXxXxXxXxXxXxXxXhXhXhXxXhXhXhXxXhXhXhXxX",
"xXxXxXdXdXdXdXdXdXdXdXxXhXhXxXxXdXdXhXhXiXaXgXyXlXlXlXlXlXlXlXlXlXlXlXlXlXlXlXlXyXgXaXiXiXhXdXxXxXxXxXxXhXhXhXxXhXhXhXxXhXhXhXxX",
"xXxXxXdXdXdXdXdXdXdXdXxXhXhXxXdXhXhXiXaXkXgXgXgXyXyXyXyXyXyXyXyXyXyXyXyXyXyXgXgXgXyXyXgXgXaXiXhXdXxXxXxXxXxXxXxXxXxXdXdXdXxXxXxX",
"xXxXxXdXdXdXdXdXdXdXdXxXhXiXdXhXiXaXkXyXyXkXiXiXaXkXkXkXkXkXkXkXkXkXkXkXkXaXiXiXiXiXkXlXlXyXgXaXhXdXxXxXxXxXxXxXxXdXyXyXyXdXxXxX",
"xXxXxXxXdXdXdXdXdXdXdXxXiXiXhXaXkXyXyXkXaXiXiXiXiXiXiXiXiXiXiXiXiXiXiXiXiXhXhXxXxXyXyXgXyXyXyXyXgXaXhXdXxXxXxXxXxXkXaXgXhXyXdXxX",
"xXxXxXxXxXdXdXdXdXdXdXdXiXiXaXyXkXiXkXaXiXiXiXiXiXiXiXiXiXiXiXiXiXhXhXhXxXxXxXgXgXkXkXaXkXaXgXyXyXgXaXhXdXxXxXxXxXaXyXxXaXyXdXxX",
"xXxXxXxXxXxXdXdXdXdXhXhXkXgXkXiXdXkXkXiXiXiXiXiXiXiXiXiXiXiXiXhXhXxXxXxXgXgXgXkXkXaXaXiXiXiXaXaXgXyXgXgXiXdXxXxXxXiXgXyXiXgXdXxX",
"xXxXxXxXxXxXxXdXdXhXiXaXyXkXiXiXdXkXaXiXiXiXiXiXiXiXiXiXhXhXhXxXxXgXgXgXkXkXkXaXaXiXiXiXiXiXiXiXaXgXyXyXgXiXdXxXxXxXiXaXkXdXxXxX",
"xXxXxXxXxXxXxXdXhXiXkXkXaXiXiXdXkXaXiXiXiXiXiXiXiXhXhXhXxXxXxXO O O iXiXiXiXiXxXxXxXxXxXhXiXiXiXiXaXaXgXyXgXiXdXxXxXxXxXxXxXxXxX",
"xXxXxXxXxXxXxXhXiXkXkXiXiXiXiXdXkXaXiXiXiXiXiXhXhXxXxXxXO O O O O O O O dXdXdXiXiXiXiXhXxXxXxXxXxXxXdXhXiXiXgXiXdXxXxXxXxXxXxXxX",
"xXxXxXxXxXxXdXiXkXkXiXiXiXiXiXdXkXaXiXiXhXhXhXxXxXO O O O O O O O O O O O O O dXdXiXiXiXaXaXaXaXaXaXaXkXgXyXyXgXiXdXxXxXxXxXxXxX",
"xXxXxXxXxXdXhXkXiXiXiXiXiXiXdXkXaXiXhXhXxXxXxXO O O O O O O O O O O O O O O O O O dXdXdXiXiXiXiXiXiXiXiXaXkXgXyXgXiXdXxXxXxXxXxX",
"xXxXxXxXxXhXaXgXhXiXiXiXiXiXdXkXiXdXxXxXO O O O O O O O O O O O O O O O O O O O O O O O dXdXiXiXiXiXiXiXiXiXaXgXyXgXiXdXxXxXxXxX",
"xXxXxXxXdXiXkXkXdXiXiXiXiXdXkXiXdXO O O O O O O O O O O O O O O O O O O O O O O O O O O O O dXdXdXiXiXiXiXiXiXaXgXyXkXiXxXxXxXxX",
"xXxXxXdXhXaXiXkXxXiXiXiXiXdXiXO O O O O O O O O O O O O O O O O O O O O O O O O O O O O O O O O O dXdXdXiXiXiXiXaXyXgXiXdXxXxXxX",
"xXxXxXhXaXaXiXaXxXiXiXiXiXdXO O O O O O O O O O O O O O O O O O O O O O O O O O O O O O O O O O O O gXyXdXdXiXiXiXgXyXgXiXxXxXxX",
"xXxXdXiXkXiXiXaXxXiXiXiXdXO O O O O O O O O O O O O O O O O O O O O O O O O O O O O O O O O O O O O O kXyXyXdXdXdXaXgXyXkXhXxXxX",
"xXxXhXaXiXiXiXaXxXiXiXiXdXO O O O O O O O O O O O O O O O O O O O O O O O O O O O O O O O O O O O O O iXkXgXyXyXyXdXhXyXgXiXxXxX",
"xXdXiXkXiXiXiXaXxXiXiXiXdXO O O O O O O O O O O O O O O O O O O O O O O O O O O O O O O O O O O O O O O iXaXgXgXgXyXyXgXyXkXhXxX",
"xXhXaXgXiXiXiXiXxXiXiXdXO O O O O O O O O O O O O O O O O O O O O O O O O O O O O O O O O O O O O O O O hXiXkXkXkXgXgXyXlXgXiXxX",
"xXiXgXkXaXiXiXhXxXiXiXdXO O O O O O O O O O O O O O O O O O O O O O O O O O O O O O O O O O O O O O O O hXiXaXaXaXkXkXgXyXlXaXdX",
"xXiXgXkXaXiXaXxXhXiXdXO O O O O O O O O O O O O O O O O O O O O O O O O O O O O O O O O O O O O O O O O O hXiXaXaXaXaXkXgXyXkXhX",
"dXaXhXgXkXaXaXxXiXiXdXO O O O O O O O O O O O O O O O O O O O O O O O O O O O O O O O O O O O O O O O O O hXiXaXaXaXaXaXkXyXgXiX",
"iXkXhXgXkXaXaXxXiXiXdXO O O O O O O O O O O O O O O O O O O O O O O O O O O O O O O O O O O O O O O O O O hXiXaXaXaXaXaXaXyXlXiX",
"iXaXiXhXgXkXaXxXiXdXO O O O O O O O O O O O O O O O O O O O O O O O O O O O O O O O O O O O O O O O O O O O hXiXaXaXaXaXaXkXyXkX",
"aXaXiXhXgXkXaXxXiXdXO O O O O O O O O O O O O O O O O O O O O O O O O O O O O O O O O O O O O O O O O O O O hXiXaXaXaXaXaXaXyXgX",
"kXaXaXiXhXgXkXiXdXO O O O O O O O O O O O O O O O O O O O O O O O O O O O O O O O O O O O O O O O O O O O O O hXiXaXaXaXaXaXyXyX",
"kXaXaXiXhXgXkXiXdXO O O O O O O O O O O O O O O O O O O O O O O O O O O O O O O O O O O O O O O O O O O O O O hXiXaXaXaXaXaXyXyX",
"aXaXaXiXhXgXkXiXdXO O O O O O O O O O O O O O O O O O O O O O O O O O O O O O O O O O O O O O O O O O O O O O hXiXaXaXaXaXaXkXyX",
"aXaXaXaXiXhXgXiXO O O O O O O O O O O O O O O O O O O O O O O O O O O O O O O O O O O O O O O O O O O O O O O O hXiXaXaXaXaXaXyX",
"aXaXaXaXiXhXgXiXO O O O O O O O O O O O O O O O O O O O O O O O O O O O O O O O O O O O O O O O O O O O O O O O hXiXaXaXaXaXaXyX",
"aXaXaXaXiXhXgXO O O O O O O O O O O O O O O O O O O O O O O O O O O O O O O O O O O O O O O O O O O O O O O O O hXiXaXaXaXaXaXyX",
"aXaXaXaXaXiXhXO O O O O O O O O O O O O O O O O O O O O O O O O O O O O O O O O O O O O O O O O O O O O O O O O O hXiXaXaXaXaXyX",
"aXaXaXaXaXiXhXO O O O O O O O O O O O O O O O O O O O O O O O O O O O O O O O O O O O O O O O O O O O O O O O O O hXiXaXaXaXaXyX",
"aXaXaXaXaXaXiXhXO O O O O O O O O O O O O O O O O O O O O O O O O O O O O O O O O O O O O O O O O O O O O O O O O yXhXiXaXaXaXyX",
"aXaXaXaXaXaXiXhXO O O O O O O O O O O O O O O O O O O O O O O O O O O O O O O O O O O O O O O O O O O O O O O O gXyXhXiXaXaXaXyX",
"aXaXaXaXaXaXiXhXO O O O O O O O O O O O O O O O O O O O O O O O O O O O O O O O O O O O O O O O O O O O O O O O gXyXhXiXaXaXaXyX",
"aXaXaXaXgXgXaXiXhXO O O O O O O O O O O O O O O O O O O O O O O O O O O O O O O O O O O O O O O O O O O O O O iXkXyXyXhXiXaXaXyX",
"aXaXaXgXaXaXgXiXhXO O O O O O O O O O O O O O O O O O O O O O O O O O O O O O O O O O O O O O O O O O O O O O iXkXyXyXhXiXaXaXyX",
"jXaXaXgXaXaXgXiXhXO O O O O O O O O O O O O O O O O O O O O O O O O O O O O O O O O O O O O O O O O O O O O O iXkXyXyXhXiXaXkXzX",
"$ aXaXgXaXaXgXaXiXhXO O O O O O O O O O O O O O O O O O O O O O O O O O O O O O O O O O O O O O O O O O O O iXaXhXgXyXyXhXiXyXzX",
"$ aXaXgXaXaXgXaXiXhXO O O O O O O O O O O O O O O O O O O O O O O O O O O O O O O O O O O O O O O O O O O O iXaXhXgXyXyXhXiXyXpX",
"$ aXaXgXaXaXgXaXaXiXhXO O O O O O O O O O O O O O O O O O O O O O O O O O O O O O O O O O O O O O O O O O iXaXkXhXgXgXyXyXhXyXpX",
"zXjXaXaXgXgXaXaXaXiXhXO O O O O O O O O O O O O O O O O O O O O O O O O O O O O O O O O O O O O O O O O O iXaXaXhXgXgXyXyXiXzXxX",
"pX$ kXkXkXaXaXaXaXiXhXO O O O O O O O O O O O O O O O O O O O O O O O O O O O O O O O O O O O O O O O O O iXaXiXhXgXkXgXyXlXzXxX",
"xX$ gXgXgXkXkXaXaXaXiXhXO O O O O O O O O O O O O O O O O O O O O O O O O O O O O O O O O O O O O O O O iXaXkXhXiXkXkXgXgXlXpXxX",
"xXzXjXyXyXgXgXkXkXkXiXhXO O O O O O O O O O O O O O O O O O O O O O O O O O O O O O O O O O O O O O O O iXaXkXhXaXkXkXkXyXzXxXxX",
"xXpX$ iXiXyXyXgXgXgXaXiXO O O O O O O O O O O O O O O O O O O O O O O O O O O O O O O O O O O O O O O iXaXkXkXhXgXkXkXkXyXzXxXxX",
"xXxXzXjXiXiXiXyXyXyXgXkXiXO O O O O O O O O O O O O O O O O O O O O O O O O O O O O O O O O O O O O O iXaXkXkXhXgXkXkXgXzXpXxXxX",
"xXxXpX$ aXaXaXiXiXiXyXgXiXO O O O O O O O O O O O O O O O O O O O O O O O O O O O O O O O O O O O O O iXaXkXkXhXgXkXkXyXzXxXxXxX",
"xXxXxXzXjXkXkXaXaXaXiXiXgXgXO O O O O O O O O O O O O O O O O O O O O O O O O O O O O O O O O O O O iXaXkXkXkXhXgXkXgXzXpXxXxXxX",
"xXxXxXpXzXjXkXkXkXkXaXaXiXiXiXO O O O O O O O O O O O O O O O O O O O O O O O O O O O O O O O O O yXiXaXkXkXDXVXrXgXzXpXxXxXxXxX",
"dXdXdXxXpX$ kXkXkXkXkXkXaXaXaXiXiXiXO O O O O O O O O O O O O O O O O O O O O O O O O O O O O aXkXyXiXaXkXkXVXLXwXyXzXxXxXxXxXxX",
"iXiXiXiXiXhXxXkXkXkXkXkXkXkXkXaXaXaXiXiXO O O O O O O O O O O O O O O O O O O O O O O O iXiXaXyXyXiXaXkXkXkXVXrXZXzXpXxXxXxXxXxX",
"hXhXhXhXdXxXpXxXkXkXkXkXkXkXkXkXkXkXaXaXiXiXiXO O O O O O O O O O O O O O O O O O iXiXiXkXkXgXyXlXiXaXkXkXgXLXwXzXpXxXxXdXdXdXdX",
"dXdXdXdXdXxXxXxX$ kXkXkXkXkXkXkXkXkXkXkXaXaXaXiXiXO O O O O O O O O O O O O O iXiXkXkXkXgXyXyXlXiXaXkXkXkXyXPXzXpXxXxXxXdXdXdXdX",
"dXdXdXdXdXdXxXdXzX$ iXiXhXhXhXhXhXhXhXhXiXaXkXaXaXiXiXiXO O O O O O O O iXiXiXkXkXgXgXgXgXyXyXlXiXaXkXkXkXyXzXpXxXxXxXxXdXdXdXdX",
"dXdXdXdXdXdXdXhXxXzX$ gXgXgXgXgXgXgXaXiXhXhXhXhXhXkXkXkXkXkXO O O iXiXiXkXkXkXgXgXgXgXgXgXyXyXlXiXaXkXkXgXzXpXxXxXxXxXxXdXdXdXdX",
"dXdXdXdXdXdXdXiXxXxXzX$ kXkXkXkXkXkXkXkXgXgXgXgXgXyXyXyXyXyXyXiXiXkXkXkXgXgXgXgXgXgXgXgXyXyXlXiXaXkXkXgXzXpXxXxXxXxXxXxXxXxXxXxX",
"dXdXdXdXdXdXhXiXxXxXpXzXpXjXkXkXkXkXkXkXkXgXgXyXyXyXyXyXiXiXiXkXkXgXgXgXgXgXgXgXgXgXgXgXyXyXlXiXkXgXzXzXpXxXxXxXxXxXxXxXhXhXhXhX",
"dXdXdXdXdXdXhXiXxXxXxXpXxXzXjXkXkXkXkXgXgXyXyXyXyXiXiXiXkXkXkXgXgXgXgXgXgXgXgXgXgXgXgXyXyXlXiXaXgXzXpXpXxXxXxXxXxXxXxXxXhXhXhXhX",
"dXdXdXdXdXdXiXiXxXxXxXxXdXpXzXjXjXgXgXyXyXlXyXiXiXkXkXkXgXgXgXgXgXgXgXgXgXgXgXgXgXgXgXyXyXlXiXzXzXpXxXxXxXhXpXpXpXpXpXdXhXhXhXhX",
"dXdXdXdXxXxXxXxXxXxXxXxXhXxXpXzX$ jXjXyXyXaXiXkXkXgXgXgXgXgXgXgXgXgXgXgXgXgXgXgXgXgXyXyXlXzXzXpXpXxXxXxXdXiXzXzXiXzXzXhXxXxXxXxX",
"dXdXdXhXxXxXxXxXxXxXxXxXiXxXxXpXzXzX$ jXjXjXgXgXgXgXgXgXgXgXgXgXgXgXgXgXgXgXgXgXgXyXzXzXzXpXpXxXxXxXxXdXiXaX$ $ kX$ $ iXdXxXxXxX",
"dXdXhXiXxXxXxXxXxXxXxXxXiXxXxXxXxXpXzXzXzX$ jXjXjXjXgXgXgXgXgXgXgXgXgXgXgXyXzXzXzXzXpXpXpXxXxXxXxXxXdXhXiXkXjXjXyXjXjXaXiXdXxXxX"
};
