/* XPM */
static char *door11734959594[] = {
/* columns rows colors chars-per-pixel */
"64 72 256 2 ",
"   c black",
".  c blue",
"X  c green",
"o  c red",
"O  c cyan",
"+  c yellow",
"@  c magenta",
"#  c white",
"$  c #7B7B7B",
"%  c #7B7B7B",
"&  c #7B7B7B",
"*  c #7B7B7B",
"=  c #7B7B7B",
"-  c #7B7B7B",
";  c #7B7B7B",
":  c #7B7B7B",
">  c #7B7B7B",
",  c #7B7B7B",
"<  c #7B7B7B",
"1  c #7B7B7B",
"2  c #7B7B7B",
"3  c #7B7B7B",
"4  c #7B7B7B",
"5  c #7B7B7B",
"6  c #7B7B7B",
"7  c #7B7B7B",
"8  c #7B7B7B",
"9  c #7B7B7B",
"0  c #7B7B7B",
"q  c #7B7B7B",
"w  c #7B7B7B",
"e  c #7B7B7B",
"r  c #7B7B7B",
"t  c #7B7B7B",
"y  c #7B7B7B",
"u  c #7B7B7B",
"i  c #7B7B7B",
"p  c #7B7B7B",
"a  c #7B7B7B",
"s  c #7B7B7B",
"d  c #7B7B7B",
"f  c #7B7B7B",
"g  c #7B7B7B",
"h  c #7B7B7B",
"j  c #7B7B7B",
"k  c #7B7B7B",
"l  c #7B7B7B",
"z  c #7B7B7B",
"x  c #7B7B7B",
"c  c #7B7B7B",
"v  c #7B7B7B",
"b  c #7B7B7B",
"n  c #7B7B7B",
"m  c #7B7B7B",
"M  c #7B7B7B",
"N  c #7B7B7B",
"B  c #7B7B7B",
"V  c #7B7B7B",
"C  c #7B7B7B",
"Z  c #7B7B7B",
"A  c #7B7B7B",
"S  c #7B7B7B",
"D  c #7B7B7B",
"F  c #7B7B7B",
"G  c #7B7B7B",
"H  c #7B7B7B",
"J  c #7B7B7B",
"K  c #7B7B7B",
"L  c #7B7B7B",
"P  c #7B7B7B",
"I  c #7B7B7B",
"U  c #7B7B7B",
"Y  c #7B7B7B",
"T  c #7B7B7B",
"R  c #7B7B7B",
"E  c #7B7B7B",
"W  c #7B7B7B",
"Q  c #7B7B7B",
"!  c #7B7B7B",
"~  c #7B7B7B",
"^  c #7B7B7B",
"/  c #7B7B7B",
"(  c #7B7B7B",
")  c #7B7B7B",
"_  c #7B7B7B",
"`  c #7B7B7B",
"'  c #7B7B7B",
"]  c #7B7B7B",
"[  c #7B7B7B",
"{  c #7B7B7B",
"}  c #7B7B7B",
"|  c #7B7B7B",
" . c #7B7B7B",
".. c #7B7B7B",
"X. c #7B7B7B",
"o. c #7B7B7B",
"O. c #7B7B7B",
"+. c #7B7B7B",
"@. c #7B7B7B",
"#. c #7B7B7B",
"$. c #7B7B7B",
"%. c #7B7B7B",
"&. c #7B7B7B",
"*. c #7B7B7B",
"=. c #7B7B7B",
"-. c #7B7B7B",
";. c #7B7B7B",
":. c #7B7B7B",
">. c #7B7B7B",
",. c #7B7B7B",
"<. c #7B7B7B",
"1. c #7B7B7B",
"2. c #7B7B7B",
"3. c #7B7B7B",
"4. c #7B7B7B",
"5. c #7B7B7B",
"6. c #7B7B7B",
"7. c #7B7B7B",
"8. c #7B7B7B",
"9. c #7B7B7B",
"0. c #7B7B7B",
"q. c #7B7B7B",
"w. c #7B7B7B",
"e. c #7B7B7B",
"r. c #7B7B7B",
"t. c #7B7B7B",
"y. c #7B7B7B",
"u. c #7B7B7B",
"i. c #7B7B7B",
"p. c #7B7B7B",
"a. c #7B7B7B",
"s. c #7B7B7B",
"d. c #7B7B7B",
"f. c #7B7B7B",
"g. c #7B7B7B",
"h. c #7B7B7B",
"j. c #7B7B7B",
"k. c #7B7B7B",
"l. c #7B7B7B",
"z. c #7B7B7B",
"x. c #7B7B7B",
"c. c #7B7B7B",
"v. c #7B7B7B",
"b. c #7B7B7B",
"n. c #7B7B7B",
"m. c #7B7B7B",
"M. c #7B7B7B",
"N. c #7B7B7B",
"B. c #7B7B7B",
"V. c #7B7B7B",
"C. c #7B7B7B",
"Z. c #7B7B7B",
"A. c #7B7B7B",
"S. c #7B7B7B",
"D. c #7B7B7B",
"F. c #7B7B7B",
"G. c #7B7B7B",
"H. c #7B7B7B",
"J. c #7B7B7B",
"K. c #7B7B7B",
"L. c #7B7B7B",
"P. c #7B7B7B",
"I. c #7B7B7B",
"U. c #7B7B7B",
"Y. c #7B7B7B",
"T. c #7B7B7B",
"R. c #7B7B7B",
"E. c #7B7B7B",
"W. c #7B7B7B",
"Q. c #7B7B7B",
"!. c #7B7B7B",
"~. c #7B7B7B",
"^. c #7B7B7B",
"/. c #7B7B7B",
"(. c #7B7B7B",
"). c #7B7B7B",
"_. c #7B7B7B",
"`. c #7B7B7B",
"'. c #7B7B7B",
"]. c #7B7B7B",
"[. c #7B7B7B",
"{. c #7B7B7B",
"}. c #7B7B7B",
"|. c #7B7B7B",
" X c #7B7B7B",
".X c #7B7B7B",
"XX c #7B7B7B",
"oX c #7B7B7B",
"OX c #7B7B7B",
"+X c #7B7B7B",
"@X c #7B7B7B",
"#X c #7B7B7B",
"$X c #7B7B7B",
"%X c #7B7B7B",
"&X c #7B7B7B",
"*X c #7B7B7B",
"=X c #7B7B7B",
"-X c #7B7B7B",
";X c #7B7B7B",
":X c #7B7B7B",
">X c #7B7B7B",
",X c #7B7B7B",
"<X c #7B7B7B",
"1X c #7B7B7B",
"2X c #7B7B7B",
"3X c #7B7B7B",
"4X c #7B7B7B",
"5X c #7B7B7B",
"6X c #7B7B7B",
"7X c #7B7B7B",
"8X c #B4ACAC",
"9X c #A47B62",
"0X c #6A6A6A",
"qX c #7B7B7B",
"wX c #946A52",
"eX c #D59400",
"rX c #BD9C8B",
"tX c #838383",
"yX c #B4B4B4",
"uX c #E6BD00",
"iX c #CD6A00",
"pX c #CDCDCD",
"aX c #734131",
"sX c #DEAC00",
"dX c #AC8373",
"fX c #8B5A41",
"gX c #391008",
"hX c gray74",
"jX c #D58300",
"kX c #5A2918",
"lX c #A49C9C",
"zX c #623120",
"xX c #8B624A",
"cX c #9C735A",
"vX c #835241",
"bX c #622920",
"nX c #522018",
"mX c #AC8B7B",
"MX c #181818",
"NX c #411810",
"BX c #313131",
"VX c gray32",
"CX c #310800",
"ZX c #393939",
"AX c gray29",
"SX c #202020",
"DX c #626262",
"FX c #414141",
"GX c gray16",
"HX c #5A5A5A",
"JX c #4A1810",
"KX c #413939",
"LX c #7B4A39",
"PX c gray3",
"IX c gray58",
"UX c gray45",
/* pixels */
"HXHXHXHXHXHXVXVXVXVXVXHXAXAXHXHXHXHXHXHXHXHXHXHXVXzXNXgXgXgXgXgXgXgXgXgXgXgXgXVXHXVX8XUXHXHXHXHXHXHXHXHXVXVXVXVXVXVXVXVXVXVXVXVX",
"HXHXHXHXHXVXVXVXVXVXVXHXAXAXHXHXHXHXHXHXHXHXHXVXFXfXzXnXJXJXJXJXJXJXJXJXJXnXJXAXHXVXlXUXVXHXHXHXHXHXHXHXVXAXBXGXVXVXVXVXVXVXVXVX",
"HXHXHXHXVXVXVXVXVXVXVXHXAXAXHXHXHXHXHXHXHXHXHXAXZXcXvXiXjXeXsXuXuXsXeXjXiXkXJXFXVXAXlXUXVXHXHXHXHXHXHXHXVX0XVXZXVXVXVXVXVXVXVXVX",
"HXHXHXVXVXVXVXVXVXVXVXHXAXAXHXHXHXHXHXHXHXHXVXFXBX9XxXjXeXsXuXuXuXuXsXeXjXkXJXtXIXlXtX0XVXHXHXHXHXHXHXHXVX$ UXHXVXVXVXVXVXVXVXVX",
"yXyXhXhXhXhXhXhXyXyXhXyX8XhXyXhXpX8XyXhXhXhXyX8XlX9XxXjXeXsXuXuXuXuXsXeXjXkXJXAXVXHXDXBXHXHXHXHXHXHXHXHXVXVXVXVXVXVXVXVXVXVXVXVX",
"UXUXUXUX$ UXUXUXUX$ UXUXUX$ UX$ tXDXUXUX$ $ $ UXDX9XwXiXjXeXsXuXuXsXeXjXiXzXJXMXSXGXBXVXHXHXHXHXHXHXHXHXHXHXHXHXHXHXHXHXHXHXHXHX",
"SXSXGXSXGXSXSXGXSXGXSXSXGXSXSXGXBXPXSXGXGXSXSXMXPXdXcX9X9X9X9X9X9X9X9X9XcXaXnXMXGXBXAXHXHXHXHXHXHXHXHXHXAXAXAXHXAXAXAXHXAXAXAXHX",
"ZXZXZXBXBXBXBXBXBXBXBXZXGXGXZXZXZXZXBXBXGXSXMXPXPXrXrXrXrXrXrXrXrXrXrXrXrXmXaXGXZXFXAXVXVXHXHXHXHXHXHXHXAXAXAXHXAXAXAXHXAXAXAXHX",
"HXHXHXVXVXVXVXVXVXVXVXHXAXAXHXHXVXVXAXAXFXBXSXMXPXPXPXPXPXPXPXPXPXPXPXPXPXPXPXPXMXSXBXFXFXAXVXHXHXHXHXHXAXAXAXHXAXAXAXHXAXAXAXHX",
"HXHXHXVXVXVXVXVXVXVXVXHXAXAXHXVXAXAXFXBXGXSXMXMXMXBXPXPXPXPXPXPXPXMXMXPXPXMXSXSXSXMXMXSXSXBXFXAXVXHXHXHXHXHXHXHXHXHXVXVXVXHXHXHX",
"HXHXHXVXVXVXVXVXVXVXVXHXAXFXVXAXFXBXGXMXMXGXBXBXSXFXSXSXSXSXSXSXSXGXBXMXSXGXZXZXZXGXSXSXMXMXSXBXAXVXHXHXHXHXHXHXHXVXMXMXMXVXHXHX",
"HXHXHXHXVXVXVXVXVXVXVXHXFXFXAXBXGXMXGXBXBXZXZXZXGXVXBXBXBXBXBXBXBXZXFXSXBXFXFXFXFXZXZXZXGXSXMXMXSXBXAXVXHXHXHXHXDXSXDXHXIXMXVXHX",
"HXHXHXHXHXVXVXVXVXVXVXVXFXZXBXMXGXBXZXZXZXZXZXZXBXHXZXZXZXZXZXZXZXFXAXGXZXFXFXFXFXFXFXFXZXZXGXSXMXSXBXAXVXHXHXHXDXGXZXIXUXMXVXHX",
"HXHXHXHXHXHXVXVXVXVXAXAXGXSXGXMXBXZXZXZXZXZXZXZXBXHXZXZXZXZXZXZXZXFXAXGXZXFXFXFXFXFXFXFXFXFXZXZXGXMXSXSXZXVXHXHXDXBXVXAX$ SXVXHX",
"HXHXHXHXHXHXHXVXVXAXFXBXMXSXZXFXSXBXZXZXZXZXZXZXBXHXZXZXZXZXZXZXFXAXGXZXFXFXFXFXFXFXFXFXFXFXFXFXZXGXSXMXSXZXVXHXHXDXBXGXSXVXHXHX",
"HXHXHXHXHXHXHXVXAXFXGXSXGXBXZXFXSXBXZXZXZXZXZXZXBXHXFXZXZXZXZXZXFXAXGXZXFXFXFXFXFXFXFXFXFXFXFXFXFXZXZXGXMXSXFXVXHXHXDXDXDXHXHXHX",
"HXHXHXHXHXHXHXAXFXGXSXBXBXBXBXZXFXSXBXZXZXZXZXZXBXHXAXZXZXZXZXZXFXAXGXZXFXFXFXFXFXFXFXFXFXFXFXFXFXFXFXZXGXMXSXZXVXHXHXHXHXHXHXHX",
"HXHXHXHXHXHXVXFXGXSXBXBXBXBXBXZXFXSXBXZXZXZXZXZXZXAXHXZXZXZXZXZXFXAXGXZXFXFXFXFXFXFXFXFXFXFXFXFXFXFXFXFXZXGXMXSXZXVXHXHXHXHXHXHX",
"HXHXHXHXHXVXAXGXSXBXBXBXBXBXBXBXZXFXSXBXZXZXZXZXZXFXHXZXZXZXZXFXAXGXZXFXFXFXFXFXFXFXFXFXFXFXFXFXFXFXFXFXFXZXGXMXSXZXVXHXHXHXHXHX",
"HXHXHXHXHXAXBXSXBXBXBXBXBXBXBXBXZXFXSXBXZXZXZXZXZXBXHXZXZXZXZXFXAXGXZXFXFXFXFXFXFXFXFXFXFXFXFXFXFXFXFXFXFXFXZXGXMXSXZXVXHXHXHXHX",
"HXHXHXHXVXZXSXBXBXBXBXBXBXBXBXBXBXZXFXSXBXZXZXZXZXBXHXZXZXZXZXFXAXGXZXFXFXFXFXFXFXFXFXFXFXFXFXFXFXFXFXFXFXFXFXZXGXMXGXFXHXHXHXHX",
"HXHXHXVXAXBXBXBXBXBXBXBXBXBXBXBXBXZXFXSXBXZXZXZXZXBXHXZXZXZXZXFXAXGXZXFXFXFXFXFXFXFXFXFXFXFXFXFXFXFXFXFXFXFXFXFXZXSXSXZXVXHXHXHX",
"HXHXHXAXBXGXBXBXBXBXBXBXBXBXBXBXBXBXZXFXSXBXZXZXZXBXHXZXZXZXFXAXGXZXFXFXFXFXFXFXFXFXFXFXFXFXFXFXFXFXFXFXFXFXFXFXAXBXMXSXFXHXHXHX",
"HXHXVXZXSXBXBXBXBXBXBXBXBXBXBXBXBXBXZXFXSXBXZXZXZXBXHXZXZXZXFXAXGXZXFXFXFXFXFXFXFXFXFXFXFXFXFXFXFXFXFXFXFXFXAXAXVXAXMXPXGXAXHXHX",
"HXHXAXBXBXBXBXBXBXBXBXBXBXBXBXBXBXBXZXFXSXBXZXZXZXBXHXZXZXZXFXAXGXZXFXFXFXFXFXFXFXFXFXFXFXFXFXFXFXFXFXFXAXAXVXVXSXSXSXMXSXFXHXHX",
"HXVXZXGXBXBXBXBXBXBXBXBXBXBXBXBXBXBXBXZXFXSXBXZXZXBXHXZXZXZXFXAXGXZXFXFXFXFXFXFXFXFXFXFXFXFXFXFXFXFXAXAXVXVXSXSXBXBXZXSXMXGXAXHX",
"HXAXBXBXBXBXBXBXBXBXBXBXBXBXBXBXBXBXBXZXFXSXBXZXZXBXHXZXZXFXAXGXZXFXFXFXFXFXFXFXFXFXFXFXFXFXFXAXAXAXVXVXSXSXBXBXZXZXZXBXMXSXFXHX",
"HXFXGXBXBXBXBXBXBXBXBXBXBXBXBXBXBXBXBXBXZXFXSXBXZXBXHXZXZXFXAXGXZXFXFXFXFXFXFXFXFXFXFXFXFXAXAXVXVXVXSXSXBXBXZXZXZXZXZXZXSXMXBXVX",
"HXZXBXBXBXBXBXBXBXBXBXBXBXBXBXBXBXBXBXBXZXFXSXBXZXBXHXZXZXFXAXGXZXFXFXFXFXFXFXFXFXFXFXAXAXVXVXSXSXSXBXBXZXZXZXZXZXZXZXZXBXMXGXAX",
"VXBXBXBXBXBXBXBXBXBXBXBXBXBXBXBXSXSXSXBXBXZXFXSXBXBXHXZXZXFXAXGXZXFXFXFXFXFXFXFXFXAXAXVXVXSXSXBXBXBXZXZXZXZXZXZXZXZXZXZXZXMXSXFX",
"FXGXBXBXBXBXBXBXBXBXBXBXBXBXBXSXBXBXBXSXBXZXFXSXBXBXHXAXFXAXGXZXFXFXFXFXFXFXAXAXAXVXVXSXSXBXBXZXZXZXZXZXZXZXZXZXZXZXZXZXZXSXMXZX",
"ZXBXBXBXBXBXBXBXBXBXBXBXBXBXSXBXBXBXBXBXSXBXZXFXSXBXAXHXFXAXGXZXFXFXFXFXAXAXVXVXVXSXSXBXBXZXZXZXZXZXZXZXZXZXZXZXZXZXZXZXZXBXMXGX",
"BXBXBXBXBXBXBXBXBXBXBXBXBXBXSXBXBXBXBXBXSXBXZXFXSXBXFXHXFXAXGXZXFXFXAXAXVXVXSXSXSXBXBXZXZXZXZXZXZXZXZXZXZXZXZXZXZXZXZXZXZXZXMXSX",
"GXBXBXBXBXBXBXBXBXBXBXBXBXBXSXBXBXBXBXBXSXBXZXFXSXBXZXHXFXAXGXZXAXAXVXVXSXSXBXBXBXZXZXZXZXZXZXZXZXZXZXZXZXFXAXHXHXHXHXHXVXAXFXMX",
"SXGXBXBXBXBXBXBXBXBXBXBXBXBXBXSXBXBXBXSXBXBXBXZXFXSXBXZXAXGXZXAXVXVXSXSXBXBXZXFXAXHXHXHXHXHXHXHXHXHXHXHXHXHXHXAXFXBXBXBXBXGXMXPX",
"MXMXGXGXGXGXBXBXBXBXBXBXBXBXBXBXSXSXSXBXBXBXBXZXFXSXBXZXAXGXFXVXSXSXBXBXZXZXHXHXHXAXFXBXBXBXBXBXBXBXBXBXBXBXBXZXZXZXZXZXZXBXGXMX",
"ZXZXMXMXMXMXGXGXGXGXBXBXBXBXBXBXBXBXBXBXBXBXBXBXZXFXSXBXAXGXO O O O AXAXAXAXFXFXFXFXZXZXZXZXZXZXZXZXZXZXZXZXZXZXZXZXZXZXZXZXZXSX",
"BXBXZXZXZXZXMXMXMXMXGXGXGXGXBXBXBXBXBXBXBXBXBXBXZXFXSXBXAXO O O O O O SXMXMXAXAXAXAXFXFXFXFXZXZXZXZXZXZXZXZXZXZXZXZXZXZXZXZXZXSX",
"GXGXBXBXBXBXZXZXZXZXMXMXMXMXGXGXGXGXBXBXBXBXBXBXBXZXFXSXO O O O O O O O BXGXMXMXMXMXAXAXAXAXFXFXFXFXZXZXZXZXZXZXZXZXZXZXZXZXZXSX",
"GXGXGXGXGXGXBXBXBXBXZXZXZXZXMXMXMXMXGXGXGXGXBXBXBXZXFXSXO O O O O O O O FXZXGXGXGXGXMXMXMXMXAXAXAXAXFXFXFXFXZXZXZXZXZXZXZXZXZXSX",
"GXGXGXGXGXGXGXGXGXGXBXBXBXBXZXZXZXZXMXMXMXMXGXGXGXGXZXFXO O O O O O O O MXFXZXBXBXBXGXGXGXGXMXMXMXMXAXAXAXAXFXFXFXFXZXZXZXZXZXSX",
"GXGXGXGXGXGXGXGXGXGXGXGXGXGXBXBXBXBXZXZXZXZXMXMXMXMXGXBXO O O O O O O O MXFXZXBXBXBXBXBXBXBXGXGXGXGXMXMXMXMXAXAXAXAXFXFXFXFXZXSX",
"GXGXGXGXGXGXGXGXGXGXGXGXGXGXGXGXGXGXBXBXBXBXZXZXZXZXMXSXMXO O O O O O ZXSXMXFXZXBXBXBXBXBXBXBXBXBXBXGXGXGXGXMXMXMXMXAXAXAXAXFXGX",
"GXGXGXGXGXGXGXGXGXGXGXGXGXGXGXGXGXGXGXGXGXGXBXBXBXBXZXZXZXZXO O O O PXZXSXMXFXZXBXBXBXBXBXBXBXBXBXBXBXBXBXBXGXGXGXGXMXMXMXMXAXBX",
"GXGXGXGXGXGXGXGXGXGXGXGXGXGXGXGXGXGXGXGXGXBXZXAXAXAXGXGXSXSXMXMXBXSXPXZXGXSXMXFXZXBXBXBXBXBXBXBXBXBXBXBXBXBXBXBXBXBXGXGXGXGXMXPX",
"GXGXGXGXGXGXGXBXZXAXAXAXAXAXAXAXAXAXAXAXAXAXAXZXBXGXSXSXMXMXBXBXGXMXPXZXGXSXMXFXZXBXBXBXBXBXBXBXBXBXBXBXBXBXBXBXBXBXBXBXBXBXGXMX",
"tXZXFXAXAXAXAXAXAXZXBXSXSXSXSXSXSXSXSXSXSXSXSXSXSXSXMXMXBXBXGXGXMXPXZXBXAXGXSXMXFXZXBXBXBXBXBXBXBXBXBXBXBXBXBXBXBXBXBXBXBXBXGXUX",
"tXMXSXSXSXSXSXSXSXGXGXGXGXGXGXGXGXGXGXGXGXSXSXMXMXMXBXBXGXGXSXSXMXPXZXBXAXBXSXMXFXZXBXBXBXBXBXBXBXBXBXBXBXBXBXBXBXBXBXBXBXBXMXUX",
"$ GXGXGXGXGXGXGXGXGXGXGXGXGXGXGXGXGXGXSXSXMXMXBXBXBXGXGXSXSXSXSXMXPXZXBXAXZXSXMXFXZXBXBXBXBXBXBXBXBXBXBXBXBXBXBXBXBXBXBXBXBXMX0X",
"$ GXGXGXGXGXGXGXGXGXGXGXGXGXGXGXGXSXSXMXMXBXBXGXGXGXSXSXSXSXSXSXMXPXZXBXZXAXGXSXMXFXZXBXBXBXBXBXBXBXBXBXBXBXBXBXBXBXBXBXBXBXMX0X",
"UXtXGXGXGXGXGXGXGXGXGXGXGXGXSXSXSXMXMXBXBXGXGXSXSXSXSXSXSXSXSXMXPXZXBXGXBXAXGXSXMXFXZXBXBXBXBXBXBXBXBXBXBXBXBXBXBXBXBXBXBXGXUXDX",
"0XtXGXGXGXGXGXGXGXGXGXGXSXSXMXMXMXBXBXGXGXSXSXSXSXSXSXSXSXSXSXMXPXZXBXGXSXAXGXGXSXMXFXZXBXBXBXBXBXBXBXBXBXBXBXBXBXBXBXBXBXMXUXHX",
"DX$ GXGXGXGXGXGXGXGXSXSXMXMXBXBXBXGXGXSXSXSXSXSXSXSXSXSXSXSXSXMXPXZXBXGXSXAXGXGXSXMXFXZXBXBXBXBXBXBXBXBXBXBXBXBXBXBXBXBXBXMX0XHX",
"HXUXtXGXGXGXGXGXSXSXMXMXBXBXGXGXGXSXSXSXSXSXSXSXSXSXSXSXSXSXSXMXPXZXBXGXSXAXGXGXGXSXMXFXZXBXBXBXBXBXBXBXBXBXBXBXBXBXBXBXGXUXDXHX",
"HX0XtXGXGXGXSXSXMXMXBXBXGXGXSXSXSXSXSXSXSXSXSXSXSXSXSXSXSXSXMXPXZXBXGXGXSXAXGXGXGXSXMXFXZXBXBXBXBXBXBXBXBXBXBXBXBXBXBXBXMXUXHXHX",
"HXDXUXtXGXSXMXMXBXBXGXGXSXSXSXSXSXSXSXSXSXSXSXSXSXSXSXSXSXSXMXPXZXBXGXGXfXwX9XGXGXGXSXMXFXZXBXBXBXBXBXBXBXBXBXBXBXBXBXGXUX0XHXHX",
"HXHX0XtXMXMXBXBXGXGXSXSXSXSXSXSXSXSXSXSXSXSXSXSXSXSXSXSXSXSXMXPXZXBXGXGXaXfXwXGXGXGXSXMXFXZXBXBXBXBXBXBXBXBXBXBXBXBXBXMXUXDXHXHX",
"HXHXDXUXtXBXGXGXSXSXSXSXSXSXSXSXSXSXSXSXSXSXSXSXSXSXSXSXSXSXMXPXZXBXGXSXaXvXwXGXGXGXSXMXFXZXBXBXBXBXBXBXBXBXBXBXBXBXGXUX0XHXHXHX",
"HXHXHX0XUXtXSXSXSXSXSXSXSXSXSXSXSXSXSXSXSXSXSXSXSXSXSXSXSXMXPXZXBXGXGXSXzXvXxXGXGXGXGXSXMXFXZXBXBXBXBXBXBXBXBXBXBXGXUX0XDXHXHXHX",
"VXVXVXHX0XtXSXSXSXSXSXSXSXSXSXSXSXSXSXSXSXSXSXSXSXSXSXSXSXMXPXZXBXGXGXSXzXLXxXSXGXGXGXSXMXFXZXBXBXBXBXBXBXBXBXBXBXMXUXDXHXHXHXHX",
"ZXZXZXZXFXAXHXSXSXSXSXSXSXSXSXSXSXSXSXSXSXSXSXSXSXSXSXSXSXMXPXZXBXGXGXSXzXLXfXSXGXGXGXGXSXMXFXZXBXBXBXBXBXBXBXBXGXUX0XDXHXHXHXHX",
"AXAXAXAXVXHX0XDXSXSXSXSXSXSXSXSXSXSXSXSXSXSXSXSXSXSXSXSXSXMXPXZXBXGXGXSXnXzXLXSXGXGXGXGXSXMXFXZXBXBXBXBXBXBXBXGXUX0XDXHXVXVXVXVX",
"VXVXVXVXVXHXDXHXtXSXSXSXSXSXSXSXSXSXSXSXSXSXSXSXSXSXSXSXMXPXZXBXGXGXGXSXMXGXSXSXGXGXGXGXGXSXMXFXZXBXBXBXBXBXGXUX0XDXHXHXVXVXVXVX",
"VXVXVXVXVXVXHXVXUXtXSXSXSXSXSXSXSXSXSXSXSXSXSXSXSXSXSXSXMXPXZXBXGXGXGXGXGXZXAXGXGXGXGXGXGXSXMXFXZXBXBXBXBXGXUX0XDXHXHXHXVXVXVXVX",
"VXVXVXVXVXVXVXAXDXUXtXSXSXSXSXSXSXSXSXSXSXSXSXSXSXSXSXSXMXPXZXBXGXGXGXGXGXBXAXGXGXGXGXGXGXGXSXMXFXZXBXBXGXUX0XDXHXHXHXHXVXVXVXVX",
"VXVXVXVXVXVXVXFXHXDXUXtXSXSXSXSXSXSXSXSXSXSXSXSXSXSXSXSXMXPXZXBXGXGXGXGXGXSXAXGXGXGXGXGXGXGXSXMXFXZXBXGXUX0XDXHXHXHXHXHXHXHXHXHX",
"VXVXVXVXVXVXAXFXHXDX0XUX0XtXSXSXSXSXSXSXSXSXSXSXSXSXSXMXPXZXBXGXGXGXGXGXGXSXAXGXGXGXGXGXGXGXGXSXMXZXUXUX0XDXHXHXHXHXHXHXAXAXAXAX",
"VXVXVXVXVXVXAXFXHXHXDX0XHXUXtXSXSXSXSXSXSXSXSXSXSXSXSXMXPXZXBXGXGXGXGXGXGXSXAXGXGXGXGXGXGXGXGXSXMXUX0X0XDXHXDXDXDXDXDXHXAXAXAXAX",
"VXVXVXVXVXVXFXZXHXHXHXDXVX0XUXtXtXSXSXSXSXSXSXSXSXSXSXMXPXZXBXGXGXGXGXGXGXSXAXGXGXGXGXGXGXGXSXUXUX0XDXDXHXAX0X0X0X0X0XVXAXAXAXAX",
"VXVXVXVXDXDXDXDXHXHXHXHXAXDX0XUX$ tXtXSXSXSXSXSXSXSXSXMXPXZXBXGXGXGXGXGXGXSXAXGXGXGXGXGXSXUXUX0X0XDXHXHXVXFXUXUXFXUXUXAXHXHXHXHX",
"VXVXVXAXHXHXHXHXHXHXHXHXFXHXDX0XUXUX$ tXtXtXSXSXSXSXMXPXZXBXGXGXGXGXGXGXGXMXFXGXGXSXUXUXUX0X0XDXDXHXHXVXFXBX$ $ GX$ $ FXVXHXHXHX",
"VXVXAXFXHXHXHXHXHXHXHXHXFXHXHXDXDX0XUXUXUX$ tXtXtXtXMXPXZXBXGXGXGXGXGXGXSXMXUXUXUXUX0X0X0XDXDXHXHXHXVXAXZXGXtXtXMXtXtXBXFXVXHXHX"
};
