/* XPM */
static char *door31734959594[] = {
/* columns rows colors chars-per-pixel */
"64 72 256 2 ",
"   c black",
".  c blue",
"X  c green",
"o  c red",
"O  c cyan",
"+  c yellow",
"@  c magenta",
"#  c white",
"$  c #7B7B7B",
"%  c #7B7B7B",
"&  c #7B7B7B",
"*  c #7B7B7B",
"=  c #7B7B7B",
"-  c #7B7B7B",
";  c #7B7B7B",
":  c #7B7B7B",
">  c #7B7B7B",
",  c #7B7B7B",
"<  c #7B7B7B",
"1  c #7B7B7B",
"2  c #7B7B7B",
"3  c #7B7B7B",
"4  c #7B7B7B",
"5  c #7B7B7B",
"6  c #7B7B7B",
"7  c #7B7B7B",
"8  c #7B7B7B",
"9  c #7B7B7B",
"0  c #7B7B7B",
"q  c #7B7B7B",
"w  c #7B7B7B",
"e  c #7B7B7B",
"r  c #7B7B7B",
"t  c #7B7B7B",
"y  c #7B7B7B",
"u  c #7B7B7B",
"i  c #7B7B7B",
"p  c #7B7B7B",
"a  c #7B7B7B",
"s  c #7B7B7B",
"d  c #7B7B7B",
"f  c #7B7B7B",
"g  c #7B7B7B",
"h  c #7B7B7B",
"j  c #7B7B7B",
"k  c #7B7B7B",
"l  c #7B7B7B",
"z  c #7B7B7B",
"x  c #7B7B7B",
"c  c #7B7B7B",
"v  c #7B7B7B",
"b  c #7B7B7B",
"n  c #7B7B7B",
"m  c #7B7B7B",
"M  c #7B7B7B",
"N  c #7B7B7B",
"B  c #7B7B7B",
"V  c #7B7B7B",
"C  c #7B7B7B",
"Z  c #7B7B7B",
"A  c #7B7B7B",
"S  c #7B7B7B",
"D  c #7B7B7B",
"F  c #7B7B7B",
"G  c #7B7B7B",
"H  c #7B7B7B",
"J  c #7B7B7B",
"K  c #7B7B7B",
"L  c #7B7B7B",
"P  c #7B7B7B",
"I  c #7B7B7B",
"U  c #7B7B7B",
"Y  c #7B7B7B",
"T  c #7B7B7B",
"R  c #7B7B7B",
"E  c #7B7B7B",
"W  c #7B7B7B",
"Q  c #7B7B7B",
"!  c #7B7B7B",
"~  c #7B7B7B",
"^  c #7B7B7B",
"/  c #7B7B7B",
"(  c #7B7B7B",
")  c #7B7B7B",
"_  c #7B7B7B",
"`  c #7B7B7B",
"'  c #7B7B7B",
"]  c #7B7B7B",
"[  c #7B7B7B",
"{  c #7B7B7B",
"}  c #7B7B7B",
"|  c #7B7B7B",
" . c #7B7B7B",
".. c #7B7B7B",
"X. c #7B7B7B",
"o. c #7B7B7B",
"O. c #7B7B7B",
"+. c #7B7B7B",
"@. c #7B7B7B",
"#. c #7B7B7B",
"$. c #7B7B7B",
"%. c #7B7B7B",
"&. c #7B7B7B",
"*. c #7B7B7B",
"=. c #7B7B7B",
"-. c #7B7B7B",
";. c #7B7B7B",
":. c #7B7B7B",
">. c #7B7B7B",
",. c #7B7B7B",
"<. c #7B7B7B",
"1. c #7B7B7B",
"2. c #7B7B7B",
"3. c #7B7B7B",
"4. c #7B7B7B",
"5. c #7B7B7B",
"6. c #7B7B7B",
"7. c #7B7B7B",
"8. c #7B7B7B",
"9. c #7B7B7B",
"0. c #7B7B7B",
"q. c #7B7B7B",
"w. c #7B7B7B",
"e. c #7B7B7B",
"r. c #7B7B7B",
"t. c #7B7B7B",
"y. c #7B7B7B",
"u. c #7B7B7B",
"i. c #7B7B7B",
"p. c #7B7B7B",
"a. c #7B7B7B",
"s. c #7B7B7B",
"d. c #7B7B7B",
"f. c #7B7B7B",
"g. c #7B7B7B",
"h. c #7B7B7B",
"j. c #7B7B7B",
"k. c #7B7B7B",
"l. c #7B7B7B",
"z. c #7B7B7B",
"x. c #7B7B7B",
"c. c #7B7B7B",
"v. c #7B7B7B",
"b. c #7B7B7B",
"n. c #7B7B7B",
"m. c #7B7B7B",
"M. c #7B7B7B",
"N. c #7B7B7B",
"B. c #7B7B7B",
"V. c #7B7B7B",
"C. c #7B7B7B",
"Z. c #7B7B7B",
"A. c #7B7B7B",
"S. c #7B7B7B",
"D. c #7B7B7B",
"F. c #7B7B7B",
"G. c #7B7B7B",
"H. c #7B7B7B",
"J. c #7B7B7B",
"K. c #7B7B7B",
"L. c #7B7B7B",
"P. c #7B7B7B",
"I. c #7B7B7B",
"U. c #7B7B7B",
"Y. c #7B7B7B",
"T. c #7B7B7B",
"R. c #7B7B7B",
"E. c #7B7B7B",
"W. c #7B7B7B",
"Q. c #7B7B7B",
"!. c #7B7B7B",
"~. c #7B7B7B",
"^. c #7B7B7B",
"/. c #7B7B7B",
"(. c #7B7B7B",
"). c #7B7B7B",
"_. c #7B7B7B",
"`. c #7B7B7B",
"'. c #7B7B7B",
"]. c #7B7B7B",
"[. c #7B7B7B",
"{. c #7B7B7B",
"}. c #7B7B7B",
"|. c #7B7B7B",
" X c #7B7B7B",
".X c #7B7B7B",
"XX c #7B7B7B",
"oX c #7B7B7B",
"OX c #7B7B7B",
"+X c #7B7B7B",
"@X c #7B7B7B",
"#X c #7B7B7B",
"$X c #7B7B7B",
"%X c #7B7B7B",
"&X c #7B7B7B",
"*X c #7B7B7B",
"=X c #7B7B7B",
"-X c #7B7B7B",
";X c #7B7B7B",
":X c #7B7B7B",
">X c #7B7B7B",
",X c #7B7B7B",
"<X c #7B7B7B",
"1X c #7B7B7B",
"2X c #7B7B7B",
"3X c #7B7B7B",
"4X c #7B7B7B",
"5X c #7B7B7B",
"6X c #7B7B7B",
"7X c #7B7B7B",
"8X c #7B7B7B",
"9X c #D59400",
"0X c #BD9C8B",
"qX c #838383",
"wX c #CD6A00",
"eX c #B4B4B4",
"rX c #E6BD00",
"tX c #CDCDCD",
"yX c #8B5A41",
"uX c #734131",
"iX c #DEAC00",
"pX c #AC8373",
"aX c #391008",
"sX c gray74",
"dX c #D58300",
"fX c #835241",
"gX c #5A2918",
"hX c #A49C9C",
"jX c #623120",
"kX c #9C735A",
"lX c #8B624A",
"zX c #622920",
"xX c #AC8B7B",
"cX c #181818",
"vX c #411810",
"bX c #313131",
"nX c gray32",
"mX c #310800",
"MX c #393939",
"NX c gray29",
"BX c #626262",
"VX c #202020",
"CX c #414141",
"ZX c #5A5A5A",
"AX c gray16",
"SX c #7B4A39",
"DX c #4A1810",
"FX c #413939",
"GX c gray3",
"HX c gray58",
"JX c gray45",
"KX c #B4ACAC",
"LX c #A47B62",
"PX c #6A6A6A",
"IX c #7B7B7B",
"UX c #946A52",
/* pixels */
"ZXZXZXZXZXZXnXnXnXnXnXZXNXNXZXZXZXZXZXZXZXZXZXZXnXjXvXaXaXaXaXaXaXaXaXaXaXaXaXnXZXnXKXJXZXZXZXZXZXZXZXZXnXnXnXnXnXnXnXnXnXnXnXnX",
"ZXZXZXZXZXnXnXnXnXnXnXZXNXNXZXZXZXZXZXZXZXZXZXnXCXyXjXDXDXDXDXDXDXDXDXDXDXDXDXNXZXnXhXJXnXZXZXZXZXZXZXZXnXNXbXAXnXnXnXnXnXnXnXnX",
"ZXZXZXZXnXnXnXnXnXnXnXZXNXNXZXZXZXZXZXZXZXZXZXNXMXkXfXwXdX9XiXrXrXiX9XdXwXgXDXCXnXNXhXJXnXZXZXZXZXZXZXZXnXPXnXMXnXnXnXnXnXnXnXnX",
"ZXZXZXnXnXnXnXnXnXnXnXZXNXNXZXZXZXZXZXZXZXZXnXCXbXLXlXdX9XiXrXrXrXrXiX9XdXgXDXqXHXhXqXPXnXZXZXZXZXZXZXZXnX$ JXZXnXnXnXnXnXnXnXnX",
"eXeXsXsXsXsXsXsXeXeXsXeXKXsXeXsXtXKXeXsXsXsXeXKXhXLXlXdX9XiXrXrXrXrXiX9XdXgXDXNXnXZXBXbXZXZXZXZXZXZXZXZXnXnXnXnXnXnXnXnXnXnXnXnX",
"JXJXJXJX$ JXJXJXJX$ JXJXJX$ JX$ qXBXJXJX$ $ $ JXBXLXUXwXdX9XiXrXrXiX9XdXwXjXDXcXVXAXbXnXZXZXZXZXZXZXZXZXZXZXZXZXZXZXZXZXZXZXZXZX",
"VXVXAXVXAXVXVXAXVXAXVXVXAXVXVXAXbXGXVXAXAXVXVXcXGXpXkXLXLXLXLXLXLXLXLXLXkXuXDXcXAXbXNXZXZXZXZXZXZXZXZXZXNXNXNXZXNXNXNXZXNXNXNXZX",
"MXMXMXbXbXbXbXbXbXbXbXMXAXAXMXMXMXMXbXbXAXVXcXGXGX0X0X0X0X0X0X0X0X0X0X0X0XxXuXAXMXCXNXnXnXZXZXZXZXZXZXZXNXNXNXZXNXNXNXZXNXNXNXZX",
"ZXZXZXnXnXnXnXnXnXnXnXZXNXNXZXZXnXnXNXNXCXbXVXcXGXGXGXGXGXGXGXGXGXGXGXGXGXGXGXGXcXVXbXCXCXNXnXZXZXZXZXZXNXNXNXZXNXNXNXZXNXNXNXZX",
"ZXZXZXnXnXnXnXnXnXnXnXZXNXNXZXnXNXNXCXbXAXVXcXcXcXGXGXGXcXcXcXcXcXcXcXcXcXcXVXVXVXcXcXVXVXbXCXNXnXZXZXZXZXZXZXZXZXZXnXnXnXZXZXZX",
"ZXZXZXnXnXnXnXnXnXnXnXZXNXCXnXNXCXbXAXcXcXAXbXbXMXAXcXcXAXAXAXAXAXAXAXAXAXbXMXMXMXAXVXVXcXcXVXbXNXnXZXZXZXZXZXZXZXnXcXcXcXnXZXZX",
"ZXZXZXZXnXnXnXnXnXnXnXZXCXCXNXbXAXcXAXbXbXMXMXCXNXVXAXbXMXMXMXMXMXMXMXMXMXCXCXCXCXMXMXMXAXVXcXcXVXbXNXnXZXZXZXZXBXVXCXMXJXcXnXZX",
"ZXZXZXZXZXnXnXnXnXnXnXnXCXMXbXCXAXbXMXMXMXMXMXCXNXAXbXMXCXCXCXCXCXCXCXCXCXCXCXCXCXCXCXCXMXMXAXVXcXVXbXNXnXZXZXZXBXbXVXJXnXcXnXZX",
"ZXZXZXZXZXZXnXnXnXnXNXNXAXVXcXNXMXMXMXMXMXMXCXNXAXbXMXCXCXCXCXCXCXCXCXCXCXCXCXCXCXCXCXCXCXCXMXMXAXcXVXVXMXnXZXZXBXMXbXVXBXVXnXZX",
"ZXZXZXZXZXZXZXnXnXNXCXbXcXAXVXnXMXMXMXMXMXMXCXNXAXbXMXCXCXCXCXCXCXCXCXCXCXCXCXCXCXCXCXCXCXCXNXNXNXCXGXGXVXMXnXZXZXBXMXbXVXnXZXZX",
"ZXZXZXZXZXZXZXnXNXCXAXAXbXMXAXZXMXMXMXMXMXMXCXNXAXbXMXCXCXCXCXCXCXCXCXCXCXCXCXCXCXCXCXNXNXNXnXnXVXcXVXcXGXVXCXnXZXZXBXBXBXZXZXZX",
"ZXZXZXZXZXZXZXNXCXAXAXMXMXMXbXZXMXMXMXMXMXCXNXAXbXMXCXCXCXCXCXCXCXCXCXCXCXCXCXCXNXNXNXnXnXnXVXVXAXAXbXAXcXcXVXMXnXZXZXZXZXZXZXZX",
"ZXZXZXZXZXZXnXCXAXAXMXMXMXMXCXZXMXMXMXMXMXCXNXAXbXMXCXCXCXCXCXCXCXCXCXCXCXCXNXNXnXnXnXVXVXVXAXAXbXbXMXMXbXVXcXVXMXnXZXZXZXZXZXZX",
"ZXZXZXZXZXnXNXAXAXMXMXMXMXMXNXZXMXMXMXMXCXNXAXbXMXCXCXCXCXCXCXCXCXCXCXNXNXNXnXnXVXVXVXAXAXAXbXbXMXMXMXMXMXbXVXcXVXMXnXZXZXZXZXZX",
"ZXZXZXZXZXNXbXVXbXMXMXMXMXbXZXNXMXMXMXMXCXNXAXbXMXCXCXCXCXCXCXCXNXNXNXnXnXnXVXVXAXAXAXbXbXbXMXMXMXMXMXMXMXMXbXVXcXVXMXnXZXZXZXZX",
"ZXZXZXZXnXMXcXAXbXMXMXMXMXbXZXCXMXMXMXMXCXNXAXbXMXCXCXCXCXCXNXNXnXnXnXVXVXVXAXAXbXbXbXMXMXMXMXMXMXMXMXMXMXMXMXbXVXcXAXCXZXZXZXZX",
"ZXZXZXnXNXbXVXAXbXMXMXMXMXbXZXMXMXMXMXCXNXAXbXMXCXCXCXCXNXNXnXnXVXVXVXAXAXAXbXZXZXNXCXMXMXMXMXMXMXMXMXMXMXMXMXMXbXcXVXMXnXZXZXZX",
"ZXZXZXNXbXbXCXVXAXbXMXMXMXbXZXMXMXMXMXCXNXAXbXMXCXNXNXNXnXnXO O O O bXCXMXMXCXCXNXZXZXZXZXZXZXZXZXZXZXZXZXNXCXMXMXVXcXVXCXZXZXZX",
"ZXZXnXMXVXMXCXVXAXbXMXMXMXbXZXMXMXMXCXNXAXbXCXNXNXnXnXnXO O O O O O O O NXNXNXCXCXbXbXbXbXbXbXbXbXbXbXCXNXZXZXZXnXNXCXMXAXNXZXZX",
"ZXZXNXbXbXbXMXCXVXAXbXMXMXbXZXMXMXMXCXNXAXMXNXnXnXO O O O O O O O O O O O O O NXNXCXCXMXMXMXMXMXMXMXMXMXMXbXbXbXbXbXAXcXVXCXZXZX",
"ZXnXMXAXbXbXMXCXVXAXbXMXMXbXZXMXMXMXCXNXbXCXO O O O O O O O O O O O O O O O O O O NXNXCXCXMXMXMXMXMXMXMXMXMXMXMXMXMXbXVXcXAXNXZX",
"ZXNXbXbXbXbXbXMXCXVXAXbXMXbXZXMXMXCXNXAXO O O O O O O O O O O O O O O O O O O O O O O NXNXCXCXCXCXMXMXMXMXMXMXMXMXMXMXbXcXVXCXZX",
"ZXCXAXbXbXbXbXMXCXVXAXbXMXbXZXMXMXCXNXO O O O O O O O O O O O O O O O O O O O O O O O O O NXNXNXNXCXCXMXMXMXMXMXMXMXMXMXVXcXbXnX",
"ZXMXbXbXbXbXbXMXCXVXAXbXMXbXZXMXCXNXO O O O O O O O O O O O O O O O O O O O O O O O O O O O cXcXcXNXNXCXCXCXMXMXMXMXMXMXbXcXAXNX",
"nXbXbXbXbXbXbXbXMXCXVXAXbXCXZXMXCXNXO O O O O O O O O O O O O O O O O O O O O O O O O O O O bXAXVXcXcXNXNXNXCXCXMXMXMXMXMXcXVXCX",
"CXAXbXbXbXbXbXbXMXCXVXAXbXNXZXMXCXNXO O O O O O O O O O O O O O O O O O O O O O O O O O O O O MXbXVXVXcXcXcXNXNXCXCXCXMXMXVXcXMX",
"MXbXbXbXbXbXbXbXMXCXVXAXbXZXNXCXNXO O O O O O O O O O O O O O O O O O O O O O O O O O O O O O CXMXAXAXVXVXVXcXcXNXNXNXCXCXbXcXAX",
"bXbXbXbXbXbXbXbXbXMXCXVXAXZXCXCXNXO O O O O O O O O O O O O O O O O O O O O O O O O O O O O O CXMXbXbXAXAXAXVXVXcXcXcXNXNXCXcXVX",
"AXbXbXbXbXbXbXbXbXMXCXVXAXbXCXNXO O O O O O O O O O O O O O O O O O O O O O O O O O O O O O O O CXMXbXbXbXbXAXAXVXVXVXcXcXNXVXcX",
"AXbXbXbXbXbXbXbXbXbXMXCXVXAXCXNXO O O O O O O O O O O O O O O O O O O O O O O O O O O O O O O O CXMXbXbXbXbXbXbXAXAXAXVXVXcXGXGX",
"bXbXbXbXbXbXbXbXbXbXMXCXVXAXCXNXO O O O O O O O O O O O O O O O O O O O O O O O O O O O O O O O CXMXbXbXbXbXbXbXbXbXbXAXAXVXcXGX",
"bXbXbXbXbXbXbXbXbXbXMXCXVXAXCXO O O O O O O O O O O O O O O O O O O O O O O O O O O O O O O O O O CXMXbXbXbXbXbXbXbXbXbXbXAXAXcX",
"bXbXbXbXbXbXbXbXbXbXbXMXCXVXbXO O O O O O O O O O O O O O O O O O O O O O O O O O O O O O O O O O CXMXbXbXbXbXbXbXbXbXbXbXbXbXcX",
"bXbXbXbXbXbXbXbXbXVXbXMXCXVXO O O O O O O O O O O O O O O O O O O O O O O O O O O O O O O O O O O O CXMXbXbXbXbXbXbXbXbXbXbXbXcX",
"bXbXbXbXbXbXbXbXVXbXVXMXCXVXO O O O O O O O O O O O O O O O O O O O O O O O O O O O O O O O O O O O CXMXbXbXbXbXbXbXbXbXbXbXbXcX",
"bXbXbXbXbXbXbXVXbXbXbXVXMXCXO O O O O O O O O O O O O O O O O O O O O O O O O O O O O O O O O O O O cXCXMXbXbXbXbXbXbXbXbXbXbXcX",
"bXbXbXbXbXbXbXVXbXbXbXVXMXCXO O O O O O O O O O O O O O O O O O O O O O O O O O O O O O O O O O O O cXCXMXbXbXbXbXbXbXbXbXbXbXcX",
"bXbXbXbXbXbXbXVXbXbXbXVXbXMXCXO O O O O O O O O O O O O O O O O O O O O O O O O O O O O O O O O O bXcXCXMXbXbXbXbXbXbXbXbXbXbXcX",
"AXAXAXbXbXbXbXbXVXbXVXbXbXMXCXO O O O O O O O O O O O O O O O O O O O O O O O O O O O O O O O O O MXcXcXCXMXbXbXbXbXbXbXbXbXbXcX",
"VXVXVXAXAXbXbXbXbXVXbXbXbXbXMXCXO O O O O O O O O O O O O O O O O O O O O O O O O O O O O O O O MXbXcXcXCXMXbXbXbXbXbXbXbXbXbXcX",
"cXcXcXVXVXAXAXAXbXbXbXbXbXbXMXCXO O O O O O O O O O O O O O O O O O O O O O O O O O O O O O O O MXbXcXcXCXMXbXbXbXbXbXbXbXbXbXcX",
"qXMXMXcXcXVXVXVXAXAXbXbXbXbXMXCXO O O O O O O O O O O O O O O O O O O O O O O O O O O O O O O O MXbXVXcXcXCXMXbXbXbXbXbXbXbXAXJX",
"qXbXbXMXMXcXcXcXVXVXAXAXAXbXbXMXCXO O O O O O O O O O O O O O O O O O O O O O O O O O O O O O MXbXbXNXcXcXCXMXbXbXbXbXbXbXbXcXJX",
"$ AXAXbXbXMXMXMXcXcXVXVXVXAXAXMXCXO O O O O O O O O O O O O O O O O O O O O O O O O O O O O O MXbXMXNXVXcXcXCXMXbXbXbXbXbXbXcXPX",
"$ AXAXAXAXbXbXbXMXMXcXcXcXVXVXbXCXO O O O O O O O O O O O O O O O O O O O O O O O O O O O O MXbXAXNXMXVXcXcXCXMXbXbXbXbXbXbXcXPX",
"JXqXAXAXAXAXAXAXbXbXMXMXMXcXcXVXAXbXO O O O O O O O O O O O O O O O O O O O O O O O O O O O MXbXAXNXbXVXcXcXCXMXbXbXbXbXbXAXJXBX",
"PXqXAXAXAXAXAXAXAXAXbXbXbXMXMXcXcXVXO O O O O O O O O O O O O O O O O O O O O O O O O O O MXbXAXAXNXVXAXVXcXcXCXMXbXbXbXbXcXJXZX",
"BX$ AXAXAXAXAXAXAXAXAXAXAXbXbXMXMXMXMXO O O O O O O O O O O O O O O O O O O O O O O O O O MXbXAXAXNXVXAXVXcXcXCXMXbXbXbXbXcXPXZX",
"ZXJXqXAXAXAXAXAXAXAXAXAXAXAXAXbXbXbXbXMXMXO O O O O O O O O O O O O O O O O O O O O O O MXbXAXAXAXNXVXAXVXcXcXCXMXbXbXbXAXJXBXZX",
"ZXPXqXAXAXAXAXAXAXAXAXAXAXAXAXAXAXAXAXbXbXMXMXO O O O O O O O O O O O O O O O O O O VXcXMXbXAXAXAXNXVXAXAXVXcXcXCXMXbXbXcXJXZXZX",
"ZXBXJXqXAXAXAXAXAXAXAXAXAXAXAXAXAXAXAXAXAXbXbXCXMXO O O O O O O O O O O O O O bXbXAXcXGXMXbXAXAXAXNXVXAXAXVXcXcXCXMXbXAXJXPXZXZX",
"ZXZXPXqXMXCXNXNXNXNXNXMXbXAXAXAXAXAXAXAXAXAXAXbXbXMXMXMXO O O O O O O O bXbXbXAXAXVXcXGXMXbXAXAXAXNXVXAXAXAXVXcXcXCXMXVXJXBXZXZX",
"ZXZXBXJXqXVXVXVXVXbXMXNXNXNXNXNXNXNXNXNXNXNXNXMXbXbXAXAXbXAXO O O O bXbXAXAXAXVXcXcXGXMXbXAXAXkXUXlXVXAXAXAXVXcXcXCXAXJXPXZXZXZX",
"ZXZXZXPXJXqXAXAXAXAXAXVXVXVXVXVXVXVXVXVXVXbXMXNXNXVXcXcXcXcXcXcXbXbXAXAXVXVXVXVXcXcXGXMXbXAXAXyXyXfXcXAXAXAXAXVXcXGXJXPXBXZXZXZX",
"nXnXnXZXPXqXAXAXAXAXAXAXAXAXAXAXAXAXAXAXAXVXVXVXcXcXcXcXcXbXbXbXAXAXVXVXVXVXVXcXcXGXMXbXAXAXAXfXfXfXcXAXAXAXAXVXcXGXJXBXZXZXZXZX",
"MXMXMXMXCXNXZXAXAXAXAXAXAXAXAXAXAXAXVXVXVXcXcXcXcXcXbXbXbXAXAXAXVXVXVXVXVXVXVXcXcXGXMXbXAXAXAXSXfXSXcXAXAXAXAXVXcXJXPXBXZXZXZXZX",
"NXNXNXNXnXZXPXBXAXAXAXAXAXAXAXAXVXVXcXcXcXcXcXcXbXbXAXAXAXVXVXVXVXVXVXVXVXVXVXcXcXGXMXbXAXAXAXuXSXSXVXAXAXAXAXcXJXPXBXZXnXnXnXnX",
"nXnXnXnXnXZXBXZXqXAXAXAXAXAXVXVXcXcXcXcXcXbXbXbXAXAXVXVXVXVXVXVXVXVXVXVXVXVXcXcXGXMXbXAXAXAXAXuXSXuXVXAXAXAXVXJXPXBXZXZXnXnXnXnX",
"nXnXnXnXnXnXZXnXJXqXVXVXVXVXcXcXcXcXbXbXbXAXAXAXVXVXVXVXVXVXVXVXVXVXVXVXVXVXcXcXGXMXbXAXAXAXAXjXjXuXVXAXAXVXJXPXBXZXZXZXnXnXnXnX",
"nXnXnXnXnXnXnXNXBXJXqXcXcXcXcXcXbXbXAXAXAXVXVXVXVXVXVXVXVXVXVXVXVXVXVXVXVXcXcXGXMXbXAXAXAXAXAXcXAXcXVXAXVXJXPXBXZXZXZXZXnXnXnXnX",
"nXnXnXnXnXnXnXCXZXBXJXqXcXcXbXbXAXAXVXVXVXVXVXVXVXVXVXVXVXVXVXVXVXVXVXVXVXcXcXGXMXbXAXAXAXAXAXAXNXVXAXVXJXPXBXZXZXZXZXZXZXZXZXZX",
"nXnXnXnXnXnXNXCXZXBXPXJXPXqXAXAXVXVXVXVXVXVXVXVXVXVXVXVXVXVXVXVXVXVXVXVXVXcXcXGXMXbXAXAXAXAXAXAXCXcXJXJXPXBXZXZXZXZXZXZXNXNXNXNX",
"nXnXnXnXnXnXNXCXZXZXBXPXZXJXqXVXVXVXVXVXVXVXVXVXVXVXVXVXVXVXVXVXVXVXVXVXcXcXGXMXbXAXAXAXAXAXAXVXMXJXPXPXBXZXBXBXBXBXBXZXNXNXNXNX",
"nXnXnXnXnXnXCXMXZXZXZXBXnXPXJXqXqXVXVXVXVXVXVXVXVXVXVXVXVXVXVXVXVXVXVXVXcXcXGXMXbXAXAXAXAXAXVXJXJXPXBXBXZXNXPXPXPXPXPXnXNXNXNXNX",
"nXnXnXnXBXBXBXBXZXZXZXZXNXBXPXJX$ qXqXVXVXVXVXVXVXVXVXVXVXVXVXVXVXVXVXcXcXGXMXbXAXAXAXAXVXJXJXPXPXBXZXZXnXCXJXJXCXJXJXNXZXZXZXZX",
"nXnXnXNXZXZXZXZXZXZXZXZXCXZXBXPXJXJX$ qXqXqXVXVXVXVXVXVXVXVXVXVXVXVXVXcXcXGXMXbXAXVXJXJXJXPXPXBXBXZXZXnXCXbX$ $ AX$ $ CXnXZXZXZX",
"nXnXNXCXZXZXZXZXZXZXZXZXCXZXZXBXBXPXJXJXJX$ qXqXqXqXVXVXVXVXVXVXVXVXVXcXcXGXJXJXJXJXPXPXPXBXBXZXZXZXnXNXMXAXqXqXcXqXqXbXCXnXZXZX"
};
