/* XPM */
static char * CommandoAttack2_xpm[] = {
"64 64 39 1",
" 	c None",
".	c #3B3200",
"+	c #433900",
"@	c #2E2B00",
"#	c #453B01",
"$	c #4B4001",
"%	c #303030",
"&	c #372F00",
"*	c #CF8F2B",
"=	c #E0AB27",
"-	c #554901",
";	c #212121",
">	c #6A5748",
",	c #866F5F",
"'	c #533F34",
")	c #A3877B",
"!	c #680001",
"~	c #4B4B4B",
"{	c #A63C4C",
"]	c #B54354",
"^	c #932F3E",
"/	c #CF5265",
"(	c #B4B4B4",
"_	c #D95A6D",
":	c #E66A7D",
"<	c #B4998D",
"[	c #3E3C3C",
"}	c #4F4D4D",
"|	c #302F2F",
"1	c #131313",
"2	c #1F1F1F",
"3	c #372A17",
"4	c #4B371C",
"5	c #685902",
"6	c #271B0F",
"7	c #342414",
"8	c #432F1A",
"9	c #604529",
"0	c #523A22",
"                                                                ",
"                                                                ",
"                                                                ",
"                                                                ",
"                                                                ",
"                                                                ",
"                                                                ",
"                                                                ",
"                                                                ",
"                                                                ",
"                                                                ",
"                                                                ",
"                            .+++                                ",
"                           @#$$$++   %                          ",
"                          @&$*=$--++ ;                          ",
"                          @&$$$$$---+;                          ",
"                           @&..&.$$$#;                          ",
"                            >>,>@&..@;                          ",
"                            ''),,)'@@%;                         ",
"                           >'!!''!!'>~%                         ",
"                           ',)),,)),'%;                         ",
"                       {{{ '>,,)),,>';{{{                       ",
"                     {{]]{^ '>,,,,>'%^{]]{{                     ",
"                    {]]//]{^'>,((,>';{]//]]{                    ",
"                   {]/////]^^'>,,%;;^]/////]{                   ",
"                   {]//_://]^]'>>']^]//:_//]{                   ",
"                   >{]]////]]]]]]]]]]////]]{                    ",
"                  >,>{]]]]]{]//////]{]]]]]{>'                   ",
"                  ,),>{{{{{]////////]{{{{{>>'                   ",
"                  ,,,),>^^]/:::__:::/]^>,,,>'                   ",
"                  ,,)<),{[[::______::/>,)),>'                   ",
"                  >,))),[}}[_//////__>,)),>'                    ",
"                   ,),,>|[[|//]]]]//,)<),,>'                    ",
"                   ,,,>|[11[|]{{{{]),,),,>'                     ",
"                   >,),|2112|{^^)<<)),,>>'                      ",
"                   '>,)2|22|2)<),,,,,>>''                       ",
"                    '>,32||23,,,,,,>>''^                        ",
"                     '>>344),>>>'''''^^^                        ",
"                      '>,<),>'''{{{{{{^                         ",
"                        >,,>]]]//]]]]{^                         ",
"                         ^^^^^^^^^^^^^^                         ",
"                        ^^{{{{{{{]{{^^^                         ",
"                        @^{{{]]]]{^^&&&@                        ",
"                        @&^^^{]]{^&&$$&@                        ",
"                        @&&&&^{{^&$$$$&@                        ",
"                        @&$$$&^^&$$-$$&@                        ",
"                        @&$-$$&@&$-5-$&@                        ",
"                        @&$-$$&@&$-5-$&@                        ",
"                        @&$-$$&@&$-5-$&@                        ",
"                        @&$-$$&@&$$-$$&@                        ",
"                        @&$-$$&&@&-5-$@                         ",
"                        @&$$$&@&@&$-$$@                         ",
"                         @&-$$&@&&$--$&@                        ",
"                         @&$-&&@&$-5-$&@                        ",
"                         @&$-$&@&$-5-$&@                        ",
"                          @&$&&@&&$--$&@                        ",
"                          @&&$$&@&$$$&@                         ",
"                           @&&&@6@@&&@                          ",
"                            @@@6788887                          ",
"                            6776778887                          ",
"                            6776778886                          ",
"                           677766799087                         ",
"                          67887678000087                        ",
"                          66776677888876                        "};
