/* XPM */
static char * CommandoWalk3_xpm[] = {
"64 64 36 1",
" 	c None",
".	c #3B3200",
"+	c #433900",
"@	c #2E2B00",
"#	c #453B01",
"$	c #4B4001",
"%	c #303030",
"&	c #372F00",
"*	c #CF8F2B",
"=	c #E0AB27",
"-	c #554901",
";	c #212121",
">	c #6A5748",
",	c #866F5F",
"'	c #533F34",
")	c #A3877B",
"!	c #680001",
"~	c #4B4B4B",
"{	c #A63C4C",
"]	c #B54354",
"^	c #B4B4B4",
"/	c #CF5265",
"(	c #932F3E",
"_	c #D95A6D",
":	c #E66A7D",
"<	c #B4998D",
"[	c #302F2F",
"}	c #1F1F1F",
"|	c #3E3C3C",
"1	c #4F4D4D",
"2	c #372A17",
"3	c #4B371C",
"4	c #271B0F",
"5	c #342414",
"6	c #432F1A",
"7	c #523A22",
"                                                                ",
"                                                                ",
"                                                                ",
"                                                                ",
"                                                                ",
"                                                                ",
"                                                                ",
"                                                                ",
"                                                                ",
"                                                                ",
"                                                                ",
"                            .+++                                ",
"                           @#$$$++   %                          ",
"                          @&$*=$--++ ;                          ",
"                          @&$$$$$---+;                          ",
"                           @&..&.$$$#;                          ",
"                            >>,>@&..@;                          ",
"                            ''),,)'@@%;                         ",
"                           >'!!''!!'>~%                         ",
"                           ',)),,)),'%;                         ",
"                           '>,,)),,>';                          ",
"                       {]{  '>,,,,>'% {]{                       ",
"                     {{]]]{ '>,^^,>';{]]]{{                     ",
"                    {]]//]]{('>,,%;;{]]//]]{                    ",
"                   {]/////]]{('>>'({]]/////]{                   ",
"                   >]//_://]]{{(({{]]//:_//]>                   ",
"                  >,>]]////]]]]]]]]]]////]]>,>                  ",
"                  ,),>]]]]]{]//////]{]]]]]>,),                  ",
"                 ,,,),>{{{{]////////]{{{{>,),,,                 ",
"                 ,,)<),(((]/:::__:::/](((,)<),[                 ",
"                 >,))),}[|||||||||[}:}[|[|[|[}|}                ",
"                  ,),,}[||111|1|||[|||||||||||[}                ",
"                 ,,,>}[||[[[[[[||[[[[[[[[[[[[[}}                ",
"                 >,),}}[[}}}[[}[[}[}}}22332}}}>                 ",
"                 '>,),>,,>>,}}}}}}}}/23>,)2),>'                 ",
"                  '>,)>,,))>{(]]]]({]>2>,,>,>'                  ",
"                   '>>>>,,>{({{{{{{({{>,>,'>'                   ",
"                    ''''>>'(]]]//]]]((('''''                    ",
"                        }}{{{{{{{{{{{{(                         ",
"                         ({]]]]//]]]]{(                         ",
"                        ((((((((((((((((                        ",
"                        @(({]]]]]]]]{((@                        ",
"                       @&&&&{]]]]]]{&&&&@                       ",
"                       @&$$$&({{{{(&$$$&@                       ",
"                       @&$-$$&((((&$$-$&@                       ",
"                      @&$-$$$$&@@&$$$$-$&@                      ",
"                      @&$--$&&@  @&&$--$&@                      ",
"                      @&$--$$&@  @&$$--$&@                      ",
"                      @&$--$$&@  @&$$--$&@                      ",
"                       @&-$&&&@  @&&&$-&@                       ",
"                       @---$&@    @&$---@                       ",
"                       @&$$$&@    @&$$$&@                       ",
"                      @&$-$&&&@  @&&&$-$&@                      ",
"                      @&$-$$&&@  @&&$$-$&@                      ",
"                      @&$-$$$&@  @&$$$-$&@                      ",
"                      @&$-$&&&@  @&&&$-$&@                      ",
"                       @&$&&&@    @&&&$&@                       ",
"                        @&&@@4    4@@&&@                        ",
"                        566654    456665                        ",
"                        565554    455565                        ",
"                        466554    455664                        ",
"                      5666444      4446665                      ",
"                     577766554    455667775                     ",
"                     456655554    455556654                     "};
