/* XPM */
static char * CommandoDamage1_xpm[] = {
"64 64 37 1",
" 	c None",
".	c #3B3200",
"+	c #433900",
"@	c #2E2B00",
"#	c #453B01",
"$	c #4B4001",
"%	c #303030",
"&	c #372F00",
"*	c #CF8F2B",
"=	c #E0AB27",
"-	c #554901",
";	c #212121",
">	c #6A5748",
",	c #866F5F",
"'	c #533F34",
")	c #A3877B",
"!	c #680001",
"~	c #4B4B4B",
"{	c #A63C4C",
"]	c #B54354",
"^	c #CF5265",
"/	c #D95A6D",
"(	c #E66A7D",
"_	c #4F4D4D",
":	c #B4B4B4",
"<	c #3E3C3C",
"[	c #131313",
"}	c #1F1F1F",
"|	c #B4998D",
"1	c #302F2F",
"2	c #932F3E",
"3	c #4B371C",
"4	c #372A17",
"5	c #271B0F",
"6	c #342414",
"7	c #432F1A",
"8	c #523A22",
"                                                                ",
"                                                                ",
"                                                                ",
"                                                                ",
"                                                                ",
"                                                                ",
"                                                                ",
"                                                                ",
"                                                                ",
"                                                                ",
"                                                                ",
"                                                                ",
"                                                                ",
"                            .+++                                ",
"                           @#$$$++   %                          ",
"                          @&$*=$--++ ;                          ",
"                          @&$$$$$---+;                          ",
"                           @&..&.$$$#;                          ",
"                            >>,>@&..@;                          ",
"                            ''),,)'@@%;                         ",
"                           >'!!''!!'>~%                         ",
"                       {]{ ',)),,)),'%;]{                       ",
"                     {{]]]{'>,,)),,>';]]]{{                     ",
"                    {]]^^]]{'>,,,,>'%]]^^]]{                    ",
"                   {]^^^^^]]'>,!!,>';]^^^^^]{                   ",
"                   {]^^/(__]]'>::%;;]^^(/^^]{                   ",
"                   >{]]^^<<]]]',,']]]^^^^]]{>                   ",
"                  >,>{]]<[[<]^^>>^^]{]]]]]{>'                   ",
"                  ,),>{{}[[}^^^^^^^^]{{{{{>>'                   ",
"                 ,)|),>11}}11((//(((^]2>,,,>'                   ",
"                 ,,),,,11__11//////((^>,)),>'                   ",
"                 >,,|),13<<31^^^^^^//>,)),>'                    ",
"                  '>)),4|333)^]]]]^),)|),,>'                    ",
"                  '>,,)4,|3|,)|))||)),),,>'                     ",
"                   '>>,>4))),,,,,,,,,,,>>'                      ",
"                    ''>>>,),>>>>,,,>>>>''                       ",
"                      '''>>>2''''''''''2                        ",
"                        '''']]]^^]]]2222                        ",
"                        }}<}{{{{{{{{{{2                         ",
"                        }11}]]]^^]]]]{2                         ",
"                        2}}2222222222222                        ",
"                        @22{]]]]]]]]{22@                        ",
"                       @&&&&{]]]]]]{&&&&@                       ",
"                       @&$$$&2{{{{2&$$$&@                       ",
"                       @&$-$$&2222&$$-$&@                       ",
"                      @&$-$$$$&@@&$$$$-$&@                      ",
"                      @&$--$&&@  @&&$--$&@                      ",
"                      @&$--$$&@  @&$$--$&@                      ",
"                      @&$--$$&@  @&$$--$&@                      ",
"                       @&-$&&&@  @&&&$-&@                       ",
"                       @---$&@    @&$---@                       ",
"                       @&$$$&@    @&$$$&@                       ",
"                      @&$-$&&&@  @&&&$-$&@                      ",
"                      @&$-$$&&@  @&&$$-$&@                      ",
"                      @&$-$$$&@  @&$$$-$&@                      ",
"                      @&$-$&&&@  @&&&$-$&@                      ",
"                       @&$&&&@    @&&&$&@                       ",
"                        @&&@@5    5@@&&@                        ",
"                        677765    567776                        ",
"                        676665    566676                        ",
"                        577665    566775                        ",
"                      6777555      5557776                      ",
"                     688877665    566778886                     ",
"                     567766665    566667765                     "};
