/* XPM */
static char * CommandoAttack1_xpm[] = {
"64 64 36 1",
" 	c None",
".	c #3B3200",
"+	c #433900",
"@	c #2E2B00",
"#	c #453B01",
"$	c #4B4001",
"%	c #303030",
"&	c #372F00",
"*	c #CF8F2B",
"=	c #E0AB27",
"-	c #554901",
";	c #212121",
">	c #6A5748",
",	c #866F5F",
"'	c #533F34",
")	c #A3877B",
"!	c #680001",
"~	c #4B4B4B",
"{	c #A63C4C",
"]	c #B54354",
"^	c #932F3E",
"/	c #CF5265",
"(	c #B4B4B4",
"_	c #D95A6D",
":	c #E66A7D",
"<	c #B4998D",
"[	c #3E3C3C",
"}	c #EFCB1F",
"|	c #FFF31B",
"1	c #FFF87B",
"2	c #685902",
"3	c #271B0F",
"4	c #342414",
"5	c #432F1A",
"6	c #604529",
"7	c #523A22",
"                                                                ",
"                                                                ",
"                                                                ",
"                                                                ",
"                                                                ",
"                                                                ",
"                                                                ",
"                                                                ",
"                                                                ",
"                                                                ",
"                                                                ",
"                                                                ",
"                            .+++                                ",
"                           @#$$$++   %                          ",
"                          @&$*=$--++ ;                          ",
"                          @&$$$$$---+;                          ",
"                           @&..&.$$$#;                          ",
"                            >>,>@&..@;                          ",
"                            ''),,)'@@%;                         ",
"                           >'!!''!!'>~%                         ",
"                           ',)),,)),'%;                         ",
"                       {{{ '>,,)),,>';{{{                       ",
"                     {{]]{^ '>,,,,>'%^{]]{{                     ",
"                    {]]//]{^'>,((,>';{]//]]{                    ",
"                   {]/////]^^'>,,%;;^]/////]{                   ",
"                   {]//_://]^]'>>']^]//:_//]{                   ",
"                   >{]]////]]]]]]]]]]////]]{                    ",
"                  >,>{]]]]]{]//////]{]]]]]{>'                   ",
"                  ,),>{{{{{]////////]{{{{{>>'                   ",
"                  ,,,),>^^]/:::__:::/]^>,,,>'                   ",
"                  ,,)<),{[[::______::/>,)),>'                   ",
"                  >,))),[==[_//////__>,)),>'                    ",
"                   ,),,>=}}=//]]]]//,)<),,>'                    ",
"                   ,,,>=}||}=]{{{{]),,),,>'                     ",
"                   >,)=}||||}=^^)<<)),,>>'                      ",
"                   '>=}||11||}=),,,,,>>''                       ",
"                    '=}||11||}=,,,,>>''^                        ",
"                     '=}||||}=>>'''''^^^                        ",
"                      '=}||}='''{{{{{{^                         ",
"                        =}}=]]]//]]]]{^                         ",
"                         ==^^^^^^^^^^^^                         ",
"                        ^^{{{{{{{]{{^^^                         ",
"                        @^{{{]]]]{^^&&&@                        ",
"                        @&^^^{]]{^&&$$&@                        ",
"                        @&&&&^{{^&$$$$&@                        ",
"                        @&$$$&^^&$$-$$&@                        ",
"                        @&$-$$&@&$-2-$&@                        ",
"                        @&$-$$&@&$-2-$&@                        ",
"                        @&$-$$&@&$-2-$&@                        ",
"                        @&$-$$&@&$$-$$&@                        ",
"                        @&$-$$&&@&-2-$@                         ",
"                        @&$$$&@&@&$-$$@                         ",
"                         @&-$$&@&&$--$&@                        ",
"                         @&$-&&@&$-2-$&@                        ",
"                         @&$-$&@&$-2-$&@                        ",
"                          @&$&&@&&$--$&@                        ",
"                          @&&$$&@&$$$&@                         ",
"                           @&&&@3@@&&@                          ",
"                            @@@3455554                          ",
"                            3443445554                          ",
"                            3443445553                          ",
"                           344433466754                         ",
"                          34554345777754                        ",
"                          33443344555543                        "};
