/* XPM */
static char * CommandoDeath4_xpm[] = {
"64 64 25 1",
" 	c None",
".	c #2E2B00",
"+	c #372F00",
"@	c #1B0001",
"#	c #680001",
"$	c #3D0001",
"%	c #212121",
"&	c #4B4001",
"*	c #520102",
"=	c #8C0001",
"-	c #533F34",
";	c #866F5F",
">	c #423128",
",	c #A63C4C",
"'	c #CF5265",
")	c #B54354",
"!	c #8E8E8E",
"~	c #737373",
"{	c #932F3E",
"]	c #271B0F",
"^	c #554901",
"/	c #6A5748",
"(	c #342414",
"_	c #432F1A",
":	c #A3877B",
"                                                                ",
"                                                                ",
"                                                                ",
"                                                                ",
"                                                                ",
"                                                                ",
"                                                                ",
"                                                                ",
"                                                                ",
"                                                                ",
"                                                                ",
"                                                                ",
"                                                                ",
"                                                                ",
"                                                                ",
"                                                                ",
"                                                                ",
"                                                                ",
"                                                                ",
"                                                                ",
"                                                                ",
"                                                                ",
"                                                                ",
"                                                                ",
"                                                                ",
"                                                                ",
"                                                                ",
"                                                                ",
"                                                                ",
"                                                                ",
"                                                                ",
"                                                                ",
"                                                                ",
"                                                                ",
"                                                                ",
"                                                                ",
"                                                                ",
"                                                                ",
"                                                                ",
"                                                                ",
"                                                                ",
"                                                                ",
"                                                                ",
"                                                                ",
"                                                                ",
"                                                                ",
"                                                                ",
"                                                                ",
"                                                                ",
"                            ..+.@#$ %                           ",
"                           ..+&&+**$%                           ",
"                           .+&+&&=&=.                           ",
"                        *$@#*-*;;*->,$*@                        ",
"                       #=@')!*#$$#*!*=#*@                       ",
"                     ,@$'')!~=$**$=~!*''),,                     ",
"                    ,))'')@~$*@@@@*$~$*'')),                    ",
"                   {{{]]),+^$!$##$!$@@,)]]{{{                   ",
"                   /-](_]+$*!$@**@+!*{{]_(]-/                   ",
"                 $/;](]]_]&&~#.@@.+~{{]_]](];/$                 ",
"               $$/;-]]]](_]+^#$&&+&$+]_(]]]]-;/*$               ",
"              $*/:/-]]]](_((&&$&&+&&((_(]]]]-/:/*$              ",
"            $*#/-;-/-]((]]((&&&&&&&&((]]((]-/-;-/#$$            ",
"             $$#=*$-$*]]]](]+&+..+&+](]]]]$*-$*=#$$             ",
"                $$#*=#$*]]]]]++..++]]]]]$*#=$*#$                "};
