/* XPM */
static char * CommandoDeath2_xpm[] = {
"64 64 31 1",
" 	c None",
".	c #2E2B00",
"+	c #372F00",
"@	c #212121",
"#	c #680001",
"$	c #4B4001",
"%	c #423128",
"&	c #533F34",
"*	c #6A5748",
"=	c #866F5F",
"-	c #3D0001",
";	c #A3877B",
">	c #520102",
",	c #A63C4C",
"'	c #932F3E",
")	c #8C0001",
"!	c #302F2F",
"~	c #CF5265",
"{	c #B54354",
"]	c #131313",
"^	c #4F4D4D",
"/	c #3E3C3C",
"(	c #666666",
"_	c #8E8E8E",
":	c #1F1F1F",
"<	c #4B371C",
"[	c #372A17",
"}	c #554901",
"|	c #271B0F",
"1	c #342414",
"2	c #432F1A",
"                                                                ",
"                                                                ",
"                                                                ",
"                                                                ",
"                                                                ",
"                                                                ",
"                                                                ",
"                                                                ",
"                                                                ",
"                                                                ",
"                                                                ",
"                                                                ",
"                                                                ",
"                                                                ",
"                                                                ",
"                                                                ",
"                                                                ",
"                                                                ",
"                                                                ",
"                                                                ",
"                                                                ",
"                                                                ",
"                                                                ",
"                                                                ",
"                                                                ",
"                                                                ",
"                                                                ",
"                                                                ",
"                                                                ",
"                                                                ",
"                                                                ",
"                                                                ",
"                                                                ",
"                            ..+.    @    #                      ",
"                           ..+$$++..@                           ",
"                           .+$+$$+$+.                           ",
"                           .%&*==*&%+    -                      ",
"                      -    .&*=;;=*&@@         #                ",
"                  #   >     &**==**&@   >                       ",
"                       ,,,, '&*=)*&@',,,#     >                 ",
"          !       -   ,-~~{,'->##>-',>~~>,    #                 ",
"         ]^!      > ,,{->>-,'>->>->',-#>~{,,  -                 ",
"         //^!     >,{{~>#-,'(_>-)>_(',-)~~{{,                   ",
"         ://^!    #,-,{)>,'(>>)>>->>(',--{,,,'                  ",
"          ://^^ - -'>',{-'->--#>#-#->-'-{,'''> -                ",
"          <:/<^: #-->&',,'''-_>-->_-''',,'&-)#>                 ",
"          <::</: -#>=*&',~,'(>--)->(',~,'&*=;=-    =            ",
"         =[<<[[::=>->*&',{~,'->-#>-',~{,'&*==*==  *=; =         ",
"         *=[<<[]];->-*&'',{,,'->>-',,{,''&*===;;;*=;;=*         ",
"          *=[[[:]=*-*&  ',,{{{'--'{{{,,'  &***===*===*          ",
"          ***]::]*&&& #  '',,'''''',,''    &&&***&****          ",
"           &&&]]&&     #>#.',,,,,,,,'.$$$     &&& &&&           ",
"                      --)>$+',{{{{,'+$>#$+                      ",
"                     +$}->#$+',,,,'+$-)>}$+                     ",
"                    +$}$$-->-+''''+$$$-$$}$+                    ",
"                 || .}$++.+-$++''++$$+.++$}. ||                 ",
"                |12|+$$$++.++..  ..++.++$$$+|21|                ",
"               |1||2|++$$++..      ..++$$++|2||1|               ",
"               ||||12|++++..        ..++++|21||||               ",
"               ||||1211+..            ..+1121||||               ",
"                |11||11|.              .|11||11|                ",
"                 ||||1||                ||1||||                 ",
"                   ||||                  ||||                   ",
"                                                                "};
