/* XPM */
static char * CommandoDeath1_xpm[] = {
"64 64 39 1",
" 	c None",
".	c #3B3200",
"+	c #433900",
"@	c #2E2B00",
"#	c #453B01",
"$	c #4B4001",
"%	c #303030",
"&	c #372F00",
"*	c #CF8F2B",
"=	c #E0AB27",
"-	c #554901",
";	c #212121",
">	c #6A5748",
",	c #866F5F",
"'	c #533F34",
")	c #A3877B",
"!	c #A63C4C",
"~	c #932F3E",
"{	c #680001",
"]	c #4B4B4B",
"^	c #B54354",
"/	c #302F2F",
"(	c #CF5265",
"_	c #520102",
":	c #131313",
"<	c #4F4D4D",
"[	c #3E3C3C",
"}	c #D95A6D",
"|	c #8C0001",
"1	c #3D0001",
"2	c #1F1F1F",
"3	c #B4B4B4",
"4	c #4B371C",
"5	c #372A17",
"6	c #B4998D",
"7	c #625402",
"8	c #271B0F",
"9	c #432F1A",
"0	c #342414",
"                                                                ",
"                                                                ",
"                                                                ",
"                                                                ",
"                                                                ",
"                                                                ",
"                                                                ",
"                                                                ",
"                                                                ",
"                                                                ",
"                                                                ",
"                                                                ",
"                                                                ",
"                                                                ",
"                                                                ",
"                                                                ",
"                                                                ",
"                                                                ",
"                                                                ",
"                            .+++                                ",
"                           @#$$$++   %                          ",
"                          @&$*=$--++ ;                          ",
"                          @&$$$$$---+;                          ",
"                           @&..&.$$$#;                          ",
"                            >>,>@&..@;                          ",
"                            ''),,)'@@%;                         ",
"                       !~  >'{{''{{'>]%~!                       ",
"                     !!^^~ ',)),,)),'%;^^!!                     ",
"     /              !^^{(^~'>,,)),,>';^((_^!                    ",
"    :</            !^(((_(^~'>,,,,>'%^(({((^!                   ",
"    [[</           !^((}|{(^'>,{{{>';(|1}((^!                   ",
"    2[[<//2         !^^1_{_^^'>_3%;;^_{_1^^!                    ",
"     2[[<</2       >>!^^1_1_^('{,{(^_^_1^^!>>                   ",
"     42[4<</2     __,>!!!1!^(____|_(^!!1!!>,,>                  ",
"     4224[<</2   {1)),>~~~^(1{|{_{_11^~~~>,)),>                 ",
"     54455[[[/2 >16),,>~!!(1_______{1(!!~>,1)6,>                ",
"      5445[[[/2 >,),,>'~!^(11{1{|{___1^!~'>{1),>                ",
"       555/[/[22,,,,,>'~!_{(1___{_{11(^!~'>1_1,,>    ,  ,       ",
"       ,),2//2::),>,>>'~!^^(^1{{_|1^(^{!~'>>_>,),>  > ,),       ",
"       >6),2/22:,,>>''  ~!^_!~__1_1!^^!~  ''>>,,),>'>,)6>       ",
"       '>>,,22::,>''    ~!!!~11___11!!!~    ''>,,,>>,,>>'       ",
"        '>>>:22:>'      ~~~~^^^1(^^^~~~~      '>>>'>>>>'        ",
"         ''''::''        ~!^^^^((^^^^!~        ''''''''         ",
"                        ~~~~~~~~~~~~~~~~                        ",
"                       &~~!^^!!!!!!^^!~~&                       ",
"                      &1$$&!!^^^^^^!!&$$1&                      ",
"                     &{_1$$&&!!!!!!&&$$1{$&                     ",
"                    @1__$$$$$&~~~~&$$$$$1_&@                    ",
"                    @1$1--$$$&@  @&$$$---1&@                    ",
"                   @&$---$$$&@    @&$$$---$&@                   ",
"                   @&---$$$&@      @&$$$---&@                   ",
"                  @&$7-$$&&@        @&&$$-7$&@                  ",
"                  @&$-$$&&@          @&&$$-$&@                  ",
"                  @&$-$$&@            @&$$-$&@                  ",
"                  @&$$$$&@            @&$$$$&@                  ",
"                  @&&&$&&@            @&&$&&&@                  ",
"               88 898@&&&@            @&&&@898 88               ",
"              80988908@&@              @&@80988908              ",
"             8088980008@                @8000898808             ",
"             8888098008                  8008908888             ",
"             888809008                    800908888             ",
"              80088008                    80088008              ",
"               8888088                    8808888               ",
"                 8888                      8888                 "};
