/* XPM */
static char * CommandoDeath3_xpm[] = {
"64 64 32 1",
" 	c None",
".	c #680001",
"+	c #8C0001",
"@	c #3D0001",
"#	c #520102",
"$	c #2E2B00",
"%	c #372F00",
"&	c #212121",
"*	c #302F2F",
"=	c #4B4001",
"-	c #131313",
";	c #4F4D4D",
">	c #3E3C3C",
",	c #423128",
"'	c #6A5748",
")	c #866F5F",
"!	c #533F34",
"~	c #1F1F1F",
"{	c #A63C4C",
"]	c #A3877B",
"^	c #4B371C",
"/	c #CF5265",
"(	c #B54354",
"_	c #1B0001",
":	c #8E8E8E",
"<	c #372A17",
"[	c #666666",
"}	c #932F3E",
"|	c #271B0F",
"1	c #554901",
"2	c #342414",
"3	c #432F1A",
"                                                                ",
"                                                                ",
"                                                                ",
"                                                                ",
"                                                                ",
"                                                                ",
"                                                                ",
"                                                                ",
"                                                                ",
"                                                                ",
"                                                                ",
"                                                                ",
"                                                                ",
"                                                                ",
"                                                                ",
"                                                                ",
"                                                                ",
"                                                                ",
"                                                                ",
"                                                                ",
"                                                                ",
"                                                                ",
"                                                                ",
"                                                                ",
"                                                                ",
"                                                                ",
"                                                                ",
"                                                                ",
"                                                                ",
"                                                                ",
"                                                                ",
"                                                                ",
"                                                                ",
"                                                                ",
"                                                                ",
"                                                                ",
"                                                                ",
"                           .                                    ",
"                           +                                    ",
"                           .                                    ",
"                     .           .                              ",
"                     @     @     +       .                      ",
"                           #$$%$    &                           ",
"                 *         +$%==%#$$&                           ",
"                -;*  @     #%#%==#=%$    #                      ",
"                >>;* # @   .,@'))@!#%                           ",
"                ~+>;~. #{{{@!#)]@)#@&{{{@                       ",
"                ^~>^~#@#//(@#.@__@.#{(/@#{@                     ",
"                ^@~^~@.@/((:+@#__#@+:((.#(#{                    ",
"                <#^<--@/((:@#______#@:((@/(({'                  ",
"                ).^#~-((({[#.##__##.#[{((({){) )                ",
"                ')<<~#{({}@@:@.@@.@:@@}{({@')])'                ",
"                 ']--.#{{}}[+.#__#.+[}}@{}#')]'                 ",
"                 !''!!@}{{#@}#____#}%%@#@!!!''!                 ",
"                  !!||!}@11@$}{@@{}$%.1%}!||!!                  ",
"                   |23|%=#1##$}{{}$%=1==%|32|                   ",
"                  |2||3|===@.$}{{}$%====|3||2|                  ",
"                  ||||23|%===#$}}$%===%|32||||                  ",
"                  ||||2322%=%%%$$%%%=%2232||||                  ",
"                   |22||22|%%$$$$$$%%|22||22|                   ",
"                    ||||2||$$      $$||2||||                    ",
"                      ||||            ||||                      ",
"                                                                ",
"                                                                "};
