/* XPM */
static char * CommandoIdle_xpm[] = {
"64 64 37 1",
" 	c None",
".	c #3B3200",
"+	c #433900",
"@	c #2E2B00",
"#	c #453B01",
"$	c #4B4001",
"%	c #303030",
"&	c #372F00",
"*	c #CF8F2B",
"=	c #E0AB27",
"-	c #554901",
";	c #212121",
">	c #6A5748",
",	c #866F5F",
"'	c #533F34",
")	c #A3877B",
"!	c #680001",
"~	c #4B4B4B",
"{	c #A63C4C",
"]	c #B54354",
"^	c #B4B4B4",
"/	c #CF5265",
"(	c #932F3E",
"_	c #D95A6D",
":	c #E66A7D",
"<	c #4F4D4D",
"[	c #3E3C3C",
"}	c #131313",
"|	c #1F1F1F",
"1	c #B4998D",
"2	c #302F2F",
"3	c #4B371C",
"4	c #372A17",
"5	c #271B0F",
"6	c #342414",
"7	c #432F1A",
"8	c #523A22",
"                                                                ",
"                                                                ",
"                                                                ",
"                                                                ",
"                                                                ",
"                                                                ",
"                                                                ",
"                                                                ",
"                                                                ",
"                                                                ",
"                                                                ",
"                            .+++                                ",
"                           @#$$$++   %                          ",
"                          @&$*=$--++ ;                          ",
"                          @&$$$$$---+;                          ",
"                           @&..&.$$$#;                          ",
"                            >>,>@&..@;                          ",
"                            ''),,)'@@%;                         ",
"                           >'!!''!!'>~%                         ",
"                           ',)),,)),'%;                         ",
"                           '>,,)),,>';                          ",
"                       {]{  '>,,,,>'% {]{                       ",
"                     {{]]]{ '>,^^,>';{]]]{{                     ",
"                    {]]//]]{('>,,%;;{]]//]]{                    ",
"                   {]/////]]{('>>'({]]/////]{                   ",
"                   {]//_:<<]]{{(({{]]//:_//]{                   ",
"                   >{]]//[[]]]]]]]]]]////]]{>                   ",
"                  >,>{]][}}[]//////]{]]]]]{>'                   ",
"                  ,),>{{|}}|////////]{{{{{>>'                   ",
"                 ,)1),>22||22::__:::/](>,,,>'                   ",
"                 ,,),,,22<<22______::/>,)),>'                   ",
"                 >,,1),23[[32//////__>,)),>'                    ",
"                  '>)),41333)/]]]]/),)1),,>'                    ",
"                  '>,,)4,131,)1))11)),),,>'                     ",
"                   '>>,>4))),,,,,,,,,,,>>'                      ",
"                    ''>>>,),>>>>,,,>>>>''                       ",
"                      '''>>>(''''''''''(                        ",
"                        '''']]]//]]]((((                        ",
"                        ||[|{{{{{{{{{{(                         ",
"                        |22|]]]//]]]]{(                         ",
"                        (||(((((((((((((                        ",
"                        @(({]]]]]]]]{((@                        ",
"                       @&&&&{]]]]]]{&&&&@                       ",
"                       @&$$$&({{{{(&$$$&@                       ",
"                       @&$-$$&((((&$$-$&@                       ",
"                      @&$-$$$$&@@&$$$$-$&@                      ",
"                      @&$--$&&@  @&&$--$&@                      ",
"                      @&$--$$&@  @&$$--$&@                      ",
"                      @&$--$$&@  @&$$--$&@                      ",
"                       @&-$&&&@  @&&&$-&@                       ",
"                       @---$&@    @&$---@                       ",
"                       @&$$$&@    @&$$$&@                       ",
"                      @&$-$&&&@  @&&&$-$&@                      ",
"                      @&$-$$&&@  @&&$$-$&@                      ",
"                      @&$-$$$&@  @&$$$-$&@                      ",
"                      @&$-$&&&@  @&&&$-$&@                      ",
"                       @&$&&&@    @&&&$&@                       ",
"                        @&&@@5    5@@&&@                        ",
"                        677765    567776                        ",
"                        676665    566676                        ",
"                        577665    566775                        ",
"                      6777555      5557776                      ",
"                     688877665    566778886                     ",
"                     567766665    566667765                     "};
