/* XPM */
static char * floorrocks_xpm[] = {
"64 64 8 1",
" 	c #243137",
".	c #443F41",
"+	c #343434",
"@	c #1B2632",
"#	c #1B1E29",
"$	c #151515",
"%	c #454541",
"&	c #0D080D",
" .+ @# +. ++ $$ ..% ++ @$$$$ +++.   #$&$#@.%.+ #$# ++.+.@$$@+   ",
"  ++. @.%+. @$$. ...+ @$$#$#@+ +%.+ @&$$#+%..  @$@+.%++ @&@++..+",
"#+..   +.++@$$#$+@.  @$#$#$   +.. .+ @$$$@@@+. $$@%..+  @$@+.%+ ",
"# +++@# ++@#$$ @#@  @#$#@$@$   ++%.+.##$$#$$ @@$#$ +++@#$$$@ @+@",
"$@  @#$@ @##$$##$$#$$$$%+@$$$ @+@+  +$#$#$&$#@$$$$$@@ @+@$$$$@##",
"$$@@++$$$#$$$$$&$$$###+ @ #$$$@##$@@@$$$$@$$$$$$$$$$$@  $$$#$$$$",
"$$$$  @$$$$$$$# +.@@@ ++. +@#$$@##$$$$$$$$#$$#  @$$##$@#$   @$$$",
"$$$&$#$$##@$&$ ..++ # +. +  &$$$$$#$$$$$$#@   ..   $$$## +++  @$",
"$ @$$#  $. @$$#     @  .+# @# $&@ @# #$$#$ ++.+  .@#$$$@ ++%+ #@",
"$@$$@..+@+  $$###@##@ .+ @@#$$@@+@+ + @$$$# ++ . ++ ##$@.+.++++@",
"$$# .%++  @$$$$#$$$$$+ # # +#$$  +..+. #$$# @.%+ + @$$$@  +@ +@#",
"$$#@  @@ $$$$$#+ @$ @#   @@ #$$@ .%++++@#$$#  .++@@#$$$$# +++@@@",
"$#$$&@@@@$$## ++ +@@$#@ @#$##$$@@+ + +@+ @$$#  @@@$$###$$#  #@#$",
"$@@#$$#&$$$@+..%++@$@$$$$$&$$@$$@   .+@@@$$@$$@#@#$#$$#$$$#@@##$",
"# + @$$ $#++.%% ++ $$$$ @$$$$&$$$@@@ @@$@$$$$$$$&#$$$#$$$$$$$$&$",
" ..+ #$ $ +..+.. @#$$$ .+ #$$@ @$$#@##$$$$$#$@@$$#@@ @$$$$$@+@$$",
" .+++ #$##++.... @$$$ +.+@#$@##+ @$$$$$$$#@@@ $$$# ++ $#$$@ .+##",
"++.+ @$#$@+ + .  $#@  %%++ &#+%.. @$$$$#$@ ++@$$@+.++ #@$#@@++@#",
" ++ @#$$$# +.++ #$@ .....  $@+..+ #&$$$ # .++@@$@%%. @#@#$$@  @$",
"@@@ #$@#$$@@@  $$$ .%..+   $$++. +&$$$#+ .+   @$$+++    #$#$#$#$",
"$@#$$#$$$$$$$#$@$@.+.+  + @$$ @ + $@#$#@  +  @$$$@+++++. $$$$$#$",
"##$$$$$$#@$$$$$$$#+.     @$#$&   $$$$$$##  @@&@$$$ %...+@$#$@  @",
"$$$$$$@ + ##$#$$$@  +@@$$$$$$$$$##$&$$$#&$#$#@@$$$# .+  #$$$@.+ ",
"$$#$##@+%+@$$#&$$@# @$$$#@@+ #$##$$  .+@$&$@@ + $ $+++ #@$$ .++@",
"##$$$@ %.+@#$#$$$ $$$&#@++.   @$$$@ .++@$$ ++.++$#$$@@##$$& ++  ",
"$@@$$$ ++@@$$    $$@$@@@+ +.. + @#@  . @$$ .%+. &$$##$&&$$#$@@ #",
"$+ ##$$&@#$$@  .+@$$$#++ ++.+@@  $$@  @$&@ ..+ @@$#$ $#$$$&$$$$$",
" . @#$$#$$#$ ++% .@#$@++.  + @@+@$$$@$$$## ++  $##$$$$$@@$$$&$$$",
" +  @##$$$$$$@@++++ $@ + + +@ +@$$$#$@$#$## $&$$@@#$$$@@+#$$@#$$",
"@+  @$$$@# #$$%.+ ++@$#@@     @#$@ @#$$$$$$$$$$#+. @$$# ++@$#$$$",
"$ @@#$$$@ . @& +   + &#  @  +#$$@ + @#$##@@$$#@ +++$@$#  + @$$ @",
"$#@#$ @$@+%. $$ ... @$#$$$##@$$#@... $$@  @ $$@@+ @##$$#@  #$$@$",
"$$$$$$$$@ .  @&$$$  @$$$@@$$$$$$@.%+ #$+++.+$$# #@#@$$ $$$$#$$$$",
"$$$#++#$$@.+@$$@##$&$#$$ +.+@$#$@  + @#  +   $# @ #$$$$$$$#$$$$ ",
"$$@ ..+#$$@#$#@@@@@$$$#$ +..+#$#$@@  $$ +..+ $$$$@$$@@ .@$$#@$$#",
"$$+.%%+ #@$##@@  @#@#$$&#+. +  @$$#@#$@ ..+ $$$$$#@$$ .@@## % +#",
"$$ ++%.@ $$$@@ ++. @ ##$#$#+ +@ @$$$#$ +  @$#$$  #$ $@+@&$  ... ",
"@&#++ + @$@$@#+++ + #$## $$#$$$$$ @$ $ +.#$$$@+.++@&$@ #@$@. +. ",
"$$$@+ + $$@$# @+++ ##$$ . $$@#$$$#$$@$#  $#$ +...+ #$$@@$$@@..  ",
"$$&$#@$$#+ $$@    ###$# %  $$@# +#+@$#$$$$$$@ %%.+.+$$$&$$$@@ @@",
"@+#$$$&$++ @##$@##@@$$ %.+ $$#@++%.++#$$#$$$+. +.+ @$$&##$$$@@#@",
" %+@$$$$@ @$#$$$$$ #$$@+.+ &$$$@ +. .+@$$@$$# ..+.+$#$@.  $$$$$$",
"++.@&$$ @@#@@#$&$#$##+##++#$$$@$$@.+# @$$$$$$# +++ $$@+%. @&@ #$",
" + #$$@++..+@#$$#$$$$@#$@#$$$@+ @@$#$@#$# @$$$$$$$$@$+%.+ #$+%. ",
"$@#$$@++ %.++@@$$$+ #$#$$$$$@ ..+@$&$&@# + @##@$$$$##@.+ @$$ ..@",
"$$$$$ ..%. ++ #$$$ ##   @$$$@+.++ $$@  +++@ #$#$#@+ #$@@@$ ##@ $",
"$@#$$+ ++%+   ###$#@   ++#$$$#++ @@$  ++.+%@ $$$ .%.$$#$&$@@$$$#",
"$@@$$#  .++#  @$$$$# +++. +@$$@.+ &@+... .++. @$ %..##$$@$$$@$#$",
"$&$$$$#+  ++# $$$$$#@++%%+.+@$# @@$ +..++ + .. # .. + # % @$#$$$",
"@@ #$$@ @#@ +#$#@@$#$@+...+. $$@#$@ +.+. ++ ##@$ ...+#@..+#$$ @$",
" +..@$$@ . # $$@. @$$$#+++. +$@@$$$$ ++#@@@ ##$$#@.%.@  . @$@++ ",
"+%%.+@&$++ $$$#.%. $###$&&+.#$ +.+@$$$#.+$$&$$ #$@ ++@$#@@$$ %+ ",
" .+.@@$$ @#$#@+%.+$$@#@# $#$#$  ..+##$$+  $$$#$$$#@ .@$$$$$$+++ ",
" %+++@$$$##$#+%. +$@@ @##@#$$$@ %+   @#&@@$&  .#$$$&$$# @$$# . @",
" ++ @$$@$&@#$+.+ @@@  +.@@ $$$$$#+ +@ #$$$$#+.++.@$$$$$$$$#$@  @",
"$# @#$$$#$$$$@@ @$@@+++   @#$$ #$$$$&$$ @$ ##.++ @$$@$$$&$$$$$#$",
"$$#$&$& @@#$$#@@$$$@+++  @#$$ + $$@#$$$#$##$$# $##$$$#&@#$$$$#$$",
"$#$$$$#+ +@@#$$##$#@+  @@$$$@+.+@$$@@ +@+#$#$$#$@@$$$$@@+@$$#$$$",
"$$$$$ ++..  @#$$##$$$@#@  $$ %.+ #$$#  %.+ @$#$$+.+@#$# .+#$$$$$",
"# @$$$ +++.+ @#@$ .$$$$# @$$@..+@$#$$@ ++ ++#$# +.+##&# ++@@$$@#",
"@++@@&$$ +.++@$$## #@$$$$&$+$@+ @$$#@$$ .+@@@$ @@ @#@$#$@  @$$@$",
"+.%+ @$#$ +# $$$$@@$@$$@#$#@#$@$$$&#++##$## #$# @@$@$$ $$$$$$$$&",
"+...+@$@@@@@$$$@@.+ #@@   ##$$$$$$@+..+@$$  #$#+@ @$$$$$$$$$$$$ ",
"+...+ #@++@  $@+ %.+     @@@+@#$$$#+..+ $@+$$@#$###$@#@.@$$@#$$#"};
