/* XPM */
static char * orangepipe_xpm[] = {
"128 128 2 1",
" 	c #000000",
".	c #FFFFFF",
".                                                                                                                              .",
"  .... . . . .            ............. ...............     .. .. ..     ............... .............            . . . . ....  ",
" ..... . . . . . . . . .  .............................  .. .  ..  . ..  .............................  . . . . . . . . . ..... ",
" ..... . . . . .........  ............................. ... . .... . ... .............................  ......... . . . . ..... ",
"  ......................  ............................. ... . .... . ... .............................  ......................  ",
" ....                     .......................... ..     . .... .     .. ..........................                     .... ",
" .... .................................................  .. . .... . ..  ................................................. .... ",
" ........................................... .  .  .... ... . .... . ... ....  .  . ........................................... ",
" ...................                        . .   .     ... . .... . ...     .   . .                        ................... ",
" ...................       ...  .         . . .   . ...     . .... .     ... .   . . .         .  ...       ................... ",
" ...................  ... .   . .         . . .   ..  .  .. .  ..  . ..  .  ..   . . .         . .   . ...  ................... ",
" ................... .... . . . .         . . .   ..  . ... .      . ... .  ..   . . .         . . . . .... ................... ",
"                     .. . .     .           . . . ..  . ... . .... . ... .  .. . . .           .     . . ..                     ",
"   .....               .   ..    ............ .   ..  .     .      .     .  ..   . ............    ..   .               .....   ",
"   .   .               .                      .   ..  .  .. . .... . ..  .  ..   .                      .               .   .   ",
" .......  ...........  . .............    ..  .   ..  . ... .      . ... .  ..   .  ..    ............. .  ...........  ....... ",
" ....... .             .              .   ..  . . ..  . ... . .... . ... .  .. . .  ..   .              .             . ....... ",
"  ...... .    .  .  .  .  .  .  .  .  .   ..  .   ..  .     .      .     .  ..   .  ..   .  .  .  .  .  .  .  .  .    . ......  ",
" ....... .   .. .. ..  . .. .. .. ..  .   ..  .   ..  .  .. . .... . ..  .  ..   .  ..   .  .. .. .. .. .  .. .. ..   . ....... ",
" ....... .   .. .. ..  .                                                                                .  .. .. ..   . ....... ",
" ....... .   .. .. ..   ................................................................................   .. .. ..   . ....... ",
" ....... .   .. .. .. .                                                                                  . .. .. ..   . ....... ",
" ....... .   .. .. .. .. .. .. .. ..  .   ..  .   ..  .  .. . .... . ..  .  ..   .  ..   .  .. .. .. .. .. .. .. ..   . ....... ",
"    .... .   .. .. .. .. .. .. .. ..  . . ..  .   ..  . ... .      . ... .  ..   .  .. . .  .. .. .. .. .. .. .. ..   . ....    ",
"  . .... .   .. .. .. .. .. .. .. ..  .   ..  .   ..  . ... . .... . ... .  ..   .  ..   .  .. .. .. .. .. .. .. ..   . .... .  ",
"  . .... .   .. .. .. .. .. .. .. ..  .       . . ..  .     .      .     .  .. . .       .  .. .. .. .. .. .. .. ..   . .... .  ",
"  . .... .   .. .. .. .. .. .. .. ..  .   ..  . .     .  .. . .... . ..  .     . .  ..   .  .. .. .. .. .. .. .. ..   . .... .  ",
"  . .... .   .. .. .. .. .. .. .. ..  .       .   ..  . ... .      . ... .  ..   .       .  .. .. .. .. .. .. .. ..   . .... .  ",
"  . .... .   .. .. .. .. .. .. .. ..  .   ..  . . ..  . ... . .... . ... .  .. . .  ..   .  .. .. .. .. .. .. .. ..   . .... .  ",
"  . .... .   .. .. .. .. .. .. .. ..  .       .   ..  . ... .      . ... .  ..   .       .  .. .. .. .. .. .. .. ..   . .... .  ",
"  . .... .    .  .  .  .  .  .  .  .  .   ..  . . ..  . ... .. .. .. ... .  .. . .  ..   .  .  .  .  .  .  .  .  .    . .... .  ",
"  . .... .                            .       .  .... . ... ..    .. ... . ....  .       .                            . .... .  ",
"  . ....  ............................    ..  .  .... . ... ..    .. ... . ....  .  ..    ............................  .... .  ",
"  . ...                                       .  .... . ... .  ..  . ... . ....  .                                       ... .  ",
"  . ... .                                 ..  .  .... . ... .  ..  . ... . ....  .  ..                                 . ... .  ",
"  . ... . .. . . . . . . . . . . .  .    ...  .  .... . ... .      . ... . ....  .  ...    .  . . . . . . . . . . . .. . ... .  ",
"  . ... . ..                                  .  .... .. .. ..    .. .. .. ....  .                                  .. . ... .  ",
"  . ...   ..           . .   . ......  ....   . ......   .. ..    .. ..   ...... .   ....  ...... .   . .           ..   ... .  ",
"  . ... . ..  ..... .... ... .  ..... .    .  . ........... .. .. .. ........... .  .    . .....  . ... .... .....  .. . ... .  ",
"  . ...   .. ...... .... ... ........ . .. .  . ........... .. .. .. ........... .  . .. . ........ ... .... ...... ..   ... .  ",
"  . ...   .. ..        . .   .  ..... .  . .  . ........... .. .. .. ........... .  . .  . .....  .   . .        .. ..   ... .  ",
"  . ...   .. ..            . .  ..... .    .  . ..  ....... .. .. .. .......  .. .  .    . .....  . .            .. ..   ... .  ",
"  . .... ... ..            . . ......  ....   . ..  ....... .. .. .. .......  .. .   ....  ...... . .            .. ... .... .  ",
"  . .... ... ..    ...... .. ...............  . ........... .  ..  . ........... .  ............... .. ......    .. ... .... .  ",
"   ..... ... ..   .        . . .............  . ..........  .  ..  .  .......... .  ............. . .        .   .. ... .....   ",
" ....  . ... ..   .        . ...............  . ... .....   . .... .   ..... ... .  ............... .        .   .. ... .  .... ",
"      .      ..   .        . . .............  . ......... ..  ....  .. ......... .  ............. . .        .   ..      .      ",
" .... ...... .. . . .... ... ...............  . ..........    ....    .......... .  ............... ... .... . . .. ...... .... ",
" ....        ..   .        . . .............  . ......        ....        ...... .  ............. . .        .   ..        .... ",
" ....     .. .. . . ..... .. ...............  . ..... ....... .... ....... ..... .  ............... .. ..... . . .. ..     .... ",
" ....... .   ..   .        . . ......  .....  . .....       . .... .       ..... .  .....  ...... . .        .   ..   . ....... ",
" ....... .   ..   .        . ....... . .....  . ........... . .... . ........... .  ..... . ....... .        .   ..   . ....... ",
" ....... .   ..   .        . . ...     .  .   . . . . . . . .  ..  . . . . . . . .   .  .     ... . .        .   ..   . ....... ",
" ....... .   ..   .        . ..... .. ... .   . . . . . . . .      . . . . . . . .   . ... .. ..... .        .   ..   . ....... ",
" ....... .   ..   .                ..         .             . .... .             .         ..                .   ..   . ....... ",
"  ...... .   ..   . ....           ..         .             . .... .             .         ..           .... .   ..   . ......  ",
" ....... .   ..   .     .          ..         .  .........  . .... .  .........  .         ..          .     .   ..   . ....... ",
" ......  .   ..   .  .. . .. . . . .........  .                                  .  ......... . . . .. . ..  .   ..   .  ...... ",
"  ...... .   ..   .  .. . .. . . .  .........  ..................................  .........  . . . .. . ..  .   ..   . ......  ",
" ......  .   ..   .     .                  ..                                      ..                  .     .   ..   .  ...... ",
" ....... .   ..   .  . .   .           ..  .. ............  .      .  ............ ..  ..           .   . .  .   ..   . ....... ",
" ......  .        .  .                 ...   .............. . .... . ..............   ...                 .  .        .  ...... ",
" ....... .   ..   .  .                 . .   .............  .      .  .............   . .                 .  .   ..   . ....... ",
" ......  .   ..   .  .          ...    ... ..... .........  . .... .  ......... ..... ...    ...          .  .   ..   .  ...... ",
" ....... .   ..   .  .         .   .   ... ...............  . .... .  ............... ...   .   .         .  .   ..   . ....... ",
" ......  .   ..   .   .......... . .   ... ............... .  ....  . ............... ...   . . ..........   .   ..   .  ...... ",
" ....... .   ..   .                .   ... .... ........                ........ .... ...   .                .   ..   . ....... ",
" ......  .   ..   .                                       ............                                       .   ..   .  ...... ",
" ....... .   ..   .        ...............................  ........  ...............................        .   ..   . ....... ",
" ......  .   ..   .       ................................  ........  ................................       .   ..   .  ...... ",
"  ...... .   ..   .       ..                              ............                              ..       .   ..   . ......  ",
"  .....  .   ..   .       ..  .  ......                       ....                       ......  .  ..       .   ..   .  .....  ",
"  ...... .   ..   .       ..     .....  ..... ........  .....      .....  ........ .....  .....     ..       .   ..   . ......  ",
" ......  .   ..   .     . ..     ...... ...   ........  ................  ........   ... ......     .. .     .   ..   .  ...... ",
" ....... .   ..   .       ..     ....   ..... ......... ................ ......... .....   ....     ..       .   ..   . ....... ",
"         .   .    .                     ...   ......... ................ .........   ...                     .    .   .         ",
"      .. .   ..    .................... ..... ........  ................  ........ ..... ....................    ..   . ..      ",
" ... ..  .   ..                         ..... ......... ................ ......... .....                         ..   .  .. ... ",
" ... . ..    ..           ..  ........ ...... ......... ................ ......... ...... ........  ..           ..    .. . ... ",
" ... .       ..           ..  .         .....  ........                  ........  .....         .  ..           ..       . ... ",
"     ...  .. .. ......... .. ..         .....  ........                  ........  .....         .. .. ......... .. ..  ...     ",
" ...  ..     ..           ..            .....  ........  . . ...... . .  ........  .....            ..           ..     ..  ... ",
" ...         ..           ..                               . ...... .                               ..           ..         ... ",
" ........... .. ....  . . ..  . . . . . . . .. ........ ...  ......  ... ........ .. . . . . . . .  .. . .  .... .. ........... ",
" ........... .. ..... . . ..  . . . . . . . ..  ...          ......          ...  .. . . . . . . .  .. . . ..... .. ........... ",
" ...         ..    ..     ..                .. ..... .. . .  ......  . . .. ..... ..                ..     ..    ..         ... ",
" ..   ...    ..    ..     ..                                   ..                                   ..     ..    ..    ...   .. ",
"   .  ...    ..    .. ... ..          ..                  ...  ..  ...                  ..          .. ... ..    ..    ...  .   ",
" ........    ..    .. ..  ..          .. ....  ..............      ..............  .... ..          ..  .. ..    ..    ........ ",
" ........ .. .. .. .. .. ... ......... . ....  ...  ......... .... .........  ...  .... . ......... ... .. .. .. .. .. ........ ",
" ........    ..  . .. .. ..           .. ....  ...  ......... .... .........  ...  .... ..           .. .. .. .  ..    ........ ",
" ........    ..    .. ..              .. ....  .............. .... ..............  .... ..              .. ..    ..    ........ ",
"  ....... .  ..    .. .... .........  .. ....  .............. .... ..............  .... ..  ......... .... ..    ..  . .......  ",
"  ......     ..    .. ....          . .. ....  .............  ....  .............  .... .. .          .... ..    ..     ......  ",
"  ...... ... .. .. .. .... ........ . .. ....  ...... ..  ... .... ...  .. ......  .... .. . ........ .... .. .. .. ... ......  ",
"  .......    ..    .. ...           . .. ....  ..                              ..  .... .. .           ... ..    ..    .......  ",
" ........    ..    ..               .. . ....       .......... .. ..........       .... . ..               ..    ..    ........ ",
"             .. .. .. ........         .  ... ................    ................ ...  .         ........ .. .. ..             ",
"  .... .     .. .. .. ........ ...... .. .... ................ .. ................ .... .. ...... ........ .. .. ..     . ....  ",
"             .. .. .. ........        .. .... ........   .....    .....   ........ .... ..        ........ .. .. ..             ",
" .......     .. .. .. ........         . ...  ........   ..... .. .....   ........  ... .         ........ .. .. ..     ....... ",
" ........    .. .. .. ........      .         ........ . .....    ..... . ........         .      ........ .. .. ..    ........ ",
" ........    .. .. ..    ... .                 ........  ..... .. .....  ........                 . ...    .. .. ..    ........ ",
"             ..    ..                        . ...............    ............... .                        ..    ..             ",
" ........    ..    ................ ....... .. ...............    ............... .. ....... ................    ..    ........ ",
" ..........  ..     ............... ....... .. ................  ................ .. ....... ...............     ..  .......... ",
" .......   . ..                              . . . ....  ..............  .... . . .                              .. .   ....... ",
" ........  . ..              .......... ..     . . . . . .............. . . . . .     .. ..........              .. .  ........ ",
" ...... .  . ................ .........        . . . . . .............. . . . . .        ......... ................ .  . ...... ",
" ........  .  ............... ........       . . . . . .                . . . . . .       ........ ...............  .  ........ ",
" ........  .                  ..         .. .. . . . . .  ............  . . . . . .. ..         ..                  .  ........ ",
" ........  .     .    ...   ....        ... .. . . . . . .............. . . . . . .. ...        ....   ...    .     .  ........ ",
" ........  .     .   .      .... .      ..   . . . . . . .............. . . . . . .   ..      . ....      .   .     .  ........ ",
" ........ ...... .   . .. . .... ....   ..               ..............               ..   .... .... . .. .   . ...... ........ ",
" ........ ...... .   . .. . .... .....  ..       . ..    ..............    .. .       ..  ..... .... . .. .   . ...... ........ ",
" ........ ...... .   .    . .... .  ..  ..  .    . .. .  ..............  . .. .    .  ..  ..  . .... .    .   . ...... ........ ",
"  .       ...... ..   ....  .....   ..  ..       .       .. ........ ..       .       ..  ..   .....  ....   .. ......       .  ",
"  . ....  ......  .         .....   ..  ..                                            ..  ..   .....         .  ......  .... .  ",
"  .  ..   ......  .         ..... . ..  .. .......................................... ..  .. . .....         .  ......   ..  .  ",
"  .  ..   ...... .. ......  .....   ..  ..                                            ..  ..   .....  ...... .. ......   ..  .  ",
"   . .. .. ..... .  ....... ..... . ..  .. ....... ..... .............. ..... ....... ..  .. . ..... .......  . ..... .. .. .   ",
"     ..    ..... .......... .....   ..  ..         .....  .. ...... ..  .....         ..  ..   ..... .......... .....    ..     ",
" .   ..   ...... .......... .....   ..  ..         .....  ............  .....         ..  ..   ..... .......... ......   ..   . ",
"     ..    ..... .......... .....   .....  .......  ....  ............  ....  .......  .....   ..... .......... .....    ..     ",
"     ..... ..... ....... .. ..... .. ....  ........ ....  ............  .... ........  .... .. ..... .. ....... ..... .....     ",
"      .... ..... ...   . .. ..... ..       ........                          ........       .. ..... .. .   ... ..... ....      ",
"          ......            ..... .................    ..................    ................. .....            ......          ",
".                                                                                                                              ."};
