/* XPM */
static char * purplerocks1_xpm[] = {
"64 64 4 1",
" 	c #000000",
".	c #4E0068",
"+	c #283894",
"@	c #4E4EA5",
" ......+.......+++++   ..++++++++....    ++ +++@@@@@+@@@++++++++",
" ............++++++.   ..++++++..+...    ++ ++++@@@+@@@+++++++++",
" ...++++++..++++++..   ...+....+++...    +  ++++++++++++++++    ",
" ...+++++++.+++++..     ......+++...       +++++++++++++++   +++",
" ...+++++++..++....     ...........       +++++++++++++++  ++++ ",
" ....++++++.......       ......... ++++   ++++++++++++++  +++++ ",
"  ....+++........         .......  +++++  +++++++++++++  +++++  ",
"   .............                  ++++++   +++++++++++  +++++   ",
"    ...........                   ++++++   +++++++++++ +++++    ",
"..   ........       ++++++        ++++++  ...+++++++  +++++.   .",
"...       .      +++++++++++       ++++    ...++++++  ++++    ..",
"+..            ++++++++++++++                . +++++         ...",
"++..   ...    ++++++++++++++++        .....                  ...",
"++.. ......  +++++++++++++++++      .......      +@@@@++...  ...",
"+..........  +++++++++++++++++      .......    @@++@@@@++...  ..",
"...........  ++++++++++++++.. ....  .......   @+++++@@@+++...   ",
".... ......  +++++++++++...+ ...... ....... ++@+++++++++++....  ",
"...   ....    .....++++..+++......  ......  ++@++++@@@@+++....  ",
"..           ++++++....+++++.. ..           ++++@@@@@@@+++....  ",
".     ....    +++++ ..+++++ ....  .....     +++@@@@@@@++++....  ",
"     ......    +++  .+++++..... +++.....    ++++@@@@@++++.....  ",
"     ......                  .++++...+++.   .+++++++++++......  ",
"    .......                   +++....+++..  ..++++++++........  ",
"    ......   @++@@@          .++........... ...++++++.........  ",
"    ......  @@@+@@@@++      .....+++++...... .................  ",
"      .    @@@@@+@@@@++     ....++++++......  ...............  .",
"...       +++++++@@@@+++    ...+++++++......   .............   .",
"....      +@@@@@@+@++++++   ..+++++++++.....    ...........    .",
".....    ++@@@@@@+++@++++   ..++++++++......     ......... ...  ",
".....    ++@@@@@@++@@++++   ..++++++++......               ..++.",
".....    ++@@@@@@+@@+++++   ..+++++++......                ..++.",
".....    +++@@@@+@@++++++   ..+++++........            ......+..",
".....    ++++@@@+@+++++++   ..............            ..... ...+",
".....    +++++++++++++++     ............     ....... .........+",
"....      ++++++++++++++      ..........    ...++++++. .....+..+",
"...   ++   ++++++++++++        ........    .....+++++.. .. ++...",
"..   ++++.  ++++++++++          ......    .++.++.+++..+    +++.+",
"    +++++..  ++++++++                    ..+++++..+..++.   .++..",
"    ++++++.            .......            ++.++++..++++... .....",
"  .+++++++..         ++++++.+++.  +.... ..++.++++.+++++... .....",
"....+++++++++...    ++++++++.+++..+.+.. .....++++.+++++...  ....",
"+...++++++++++..   ++++++++++++++.+++.. .......++.++++....   ...",
"+++..+++++++++..  .++++++++++.+++.....  ........+.+++.....    ..",
"++++..+++++++...  .++++++++++..+.....    ..  ............      .",
"++++......++...  ..++++++++++......            .........        ",
"+++..++++.....   ..++++++++++......                  .   .......",
"++.+++++++...    ...++++++++.......     ++++++          ..+.+++.",
"...++++++....... ...++++++++..    .  @@++@@@@@+++      .++++.+++",
"...++++++....... ....+++++... ...   @@@+@@@@@@@+++.    +++++.+++",
"....++++........ .....++...+...... ++@@+@@@@@@@@++..   +++++.+..",
".....++.........  ....+..+++..... +@+++++@@@@@@@++++.. +++++..++",
"...............      ...++++.....+@@@@@@+++@@@@@++++.. +++++..++",
"............       ......++..... +@@@@@@@@++@@@@++++....+++.++++",
"............        ...........  +@@@@@@@@@+@@@@+++++....++.+++.",
"...........   ++++++ .......... ++@@@@@@@@@+@@@++++++.......+...",
"..........   ++++++++   ......  ++@@@@@@@@@@+@@++++++...........",
".........   ++++++++++   ....  +++@@@@@@@@@@+@++++++++.......   ",
"........    ++@@@@+++++        ++++@@@@@@@@@++++++++++.....   ..",
"            ++@@@@++++++   .. .++++@@@@@@@@@+++++++++....   ....",
"   ...      +++@@@@+++++  ......+++@@@@@@@@@+++++++++...  ...++.",
"  ..... ..  ++++++++++++  .... .++++@@@@@@@@+++++++++..  ..+++++",
" ......     ++++++++++++  ......++++++++++++.+++++++.  . .++++++",
" ....        +++++++++++  .......+++++++++++..++++++. ...+++++++",
"     ++++++++++++++++++   .... ...++++++++++..+++++.. ..++++++++"};
