/* XPM */
static char * testwall2_xpm[] = {
"64 64 7 1",
" 	c #4E4EA5",
".	c #00AAC8",
"+	c #000000",
"@	c #4E0068",
"#	c #008478",
"$	c #FF4848",
"%	c #B3EEEF",
" .   . ++  @@   @@@@@@@   @@  ++ .   . ++  @@+@  @@++++++++@#++@",
". @@@ . ++@+@@+++@@@@@+++@@+@++ . @@@ . ++@+@@++@@     #@+++ @++",
" @#.#@ . ++@+@   @+++@   @+@++ . @#.#@ . ++@+@  +++@@@@@.@++@@++",
"@#@@@#@ . ++@+@@@+@@@+@@@+@++ . @#@@@#@ . ++@+@@@+@++++@#@++ @++",
" @@@@@ @ . ++@+@+@+++@+@+@++ . @ @@@@@ @ . ++@+@+@+++@++ @++ @++",
"+@@@@@+@@ . ++@+@+++++@+@++ . @@+@@@@@+@@ . ++@+@+++++@+ @++ @++",
"@+@@@+@@@@ . ++@++   ++@++ . @@@@+@@@+@@@@ . ++@++   +++ @++ @++",
"@@+++@@+++@ # +++ ... +++ # @+++@@+++@@+++@ # +++ ... ++@ ++@@@+",
"@@@@@@@   @@  ++ .   . ++  @@   @@@@@@@   @@  ++ .   . ++ @++ @+",
"+@@@@@+++@@+@++ . @@@ . ++@+@@+++@@@@@+++@@+@++ . @@@ . +@@++ @+",
" @+++@   @+@++ . @#.#@ . ++@+@   @+++@   @+@++ . @#.#@ .+@ @++#@",
"@+@@@+@@@+@++ . @#@@@#@ . ++@+@@@+@@@+@@@+@++ . @#@@@#@ .+ @++@.",
"+@+++@+@+@++ . @ @@@@@ @ . ++@+@+@+++@+@+@++ . @ @@@@@ @ +@#@++@",
"@+++++@+@++ . @@+@@@@@+@@ . ++@+@+++++@+@++ . @@+@@@@@+@@ +@.@++",
"++   ++@++ . @@@@+@@@+@@@@ . ++@++   ++@++ . @@@@+@@@+@@@@ +@.@+",
"+ ... +++ # @+++@@+++@@+++@ # +++ ... +++ # @+++@@+++@@+++@ +@# ",
" .   . ++  @@   @@@@@@@   @@  ++ .   . ++  @@   @@@@@@@   @@ +@ ",
". @@@ . ++@+@@+++@@@@@+++@@+@++ . @@@ . ++@+@@+++@@@@@+++@@+@+++",
" @#.#@ . ++@+@   @+++@   @+@++ . @#.#@ . ++@+@   @+++@   @+@++ .",
"@#@@@#@ . ++@+@@@+@@@+@@@+@++ . @#@@@#@ . ++@+@@@+@@@+@@@+@++ . ",
"      +@ . ++@+@+@+++@+@+@++ . @ @@@@@ @ . ++@+@+@+++@+@+@++ . @",
"...... @@ . ++@+@+++++@+@++ . @@+@@@@@+@@ . ++@+@+++++@+@++ . @@",
"    . @@@@ . ++@++   ++@++ . @@@@+@@@+@@@@ . ++@++++.++@++ . @@@",
"++@  @@+++@ # +++ ... +++ # @+++@@+++@@+++@ # +++....++++ # @+++",
"$$+@ @@   @@  ++ .   . ++  @@   @@@@@@@   @@  +++@@@@@+++  @@   ",
"+$+@ @@++@@+@++ . @@@ . ++@+@@+++@@@@@+++@@+@++......@+@++@+@@++",
"@++@ @@  @+@++ . @#.#@ . ++@+@   @+++@   @+@++@@@@@@@++@+++@+@  ",
".@+@ @@@@+@++ . @#@@@#@ . ++@+@@@+@@@+@@@+@++...###+@+@@+#++@+@@",
" .@@ @@@+@++ . @ @@@@@ @ . ++@+@+@+++@+@+@++@@@.@##@++@....++@+@",
"  .% @@+@++ . @@+@@@@@+@@ . ++@+@+++++@+@+++###.+@@@+@+.@#@@++@+",
"     @@@++ . @@@@+@@@+@@@@ . ++@++@@+++@++.++#@.+#@++@+.+####++@",
"  ++ @@++ # @+++@@+++@@+++@ # +++...+#+++.%++++%..@+@@@.+#@@##++",
"  @@ @@++  @@   @@@@@@@   @@  ++@#@.+@@+.@.++++.@@++@@@@@#++@#++",
"  .% @@ ++@+@@+++@@@@@+++@@+@++%+##.+##+.+..%.+++@+@%....@@.+++ ",
"++++@ @. ++@+@   @+++@   @+@++@.+@@.###+.+@@.@@++++@.@@@@.@@++ .",
"+++++@+ . ++@+@@@+@@@+@@@+@++++....%@@@+.##+.++#++@.%+###.+++ . ",
" @++ @@++++++@+@+@+++@+@+@++++@@@#@.%...%@#..#+#@+@@.+##@.++ . @",
"@@++@     @+++@+@+++++@+@++#@@+++++@@@#@.+@.@#+@++@+.+@@+++ . @@",
"@ +++@@@@@  @@++++   ++@+++#.+##@@@++++@@##.+##@+@+#.+##++ . @@@",
"+#@++++++++@@  @+ ... +++#+@.+####++.@@+++++@@@++@+@.+#++ # @+++",
"+@.@+++++++++@@#@+   . ++###.+@@@#+.%...%@@@++++@.++.+@++  @@   ",
"++@# @#  #@++++@.@+@@ . ++@@....##+.@#@@.++@@@++@%...+##++@+@@++",
"++++@@@@@@@  +++@.@+#@ . ++##@@.@##.+###.+###@+@#.@@@+#@@++@+@  ",
"#+++++++++@@@#@++@#@+#@ . ++#+#.+#@.+@@@.+#@@++@@.+.....+#++@+@@",
"@# @+++++++++@.@++  +@ @ . +++@.+#+++...%...@+@#+..%@#@.+#+++@+@",
"+@@@#  #@@++++.@++@ @++@@ . ++#.++++++@@@@@@++@#+@@.+@+.+###++@+",
"+++@@@@@@ #@+++#@++@@+@@@@ . ++%++   ++###+@+@@@+++.+#+.+#@@@++@",
"@+++++++++@.@++ @++@ +@+++@ # +++ ... ++@.@++@.....%%...+#++..++",
" @@++++++++@#++@@@++ @+   @@  ++ .   . ++.@+@#@@@@@@.@@@+###.@++",
"@@     #@+++ @++ @++ @+++@@+@++ . @@@ . ++++@@+#####.+#++@@@.++ ",
"+++@@@@@.@++@@++ @++ @+  @+@++ . @#.#@ . ++@....@@@@%...%...++ .",
"@#@++++@#@++ @++ @++ @+@@+@++ . @#@@@#@ . ++@@@%.....@@@.@#++ . ",
" @@@@@ + @++ @++ @++ @++              +@ . ++++.@@++++##.+++ . @",
"+@@@@@++@+++@+++ @++ @+ ..%%.......... @@ . ++#.++++++#@.++ . @@",
"@+@@@+@+.@++.@++ @++ @+@ .          . @@@@ . ++.++   ++#++ . @@@",
"@@+++@@+#@++#@++ @++ @+@@ ++  @+++@  @@+++@ # +++ ... +++ # @+++",
"@@@@@@@+ @++ @++ @++ @+@@ @@  @+$$+@ @@   @@  ++ .   . ++  @@   ",
"+@@@@@++ @++ @++@+++@++@@ .%  .@+$+@ @@++@@+@++ . @@@ . ++@+@@++",
" @+++@ + @++ @++.@++.@+@@      .@++@ @@  @+@++ . @#.#@ . ++@+@  ",
"@+@@@+@+ @++ @++#@++#@+@@ @@    .@+@ @@@@+@++ . @#@@@#@ . ++@+@@",
"+@+++@++ @++ @++ @++ @+@@ @++    .@@ @@@+@++ . @ @@@@@ @ . ++@+@",
"@+++++@+@+++@+++ @++ @+@@ @+$+    .% @@+@++ . @@+@@@@@+@@ . ++@+",
"++   +++.@++.@++ @++ @+@@ @++++      @@@++ . @@@@+@@@+@@@@ . ++@",
"+ ... ++#@++#@++ @++ @+@@ @+$$+@  ++ @@++ # @+++@@+++@@+++@ # ++"};
