/* XPM */
static char * testwall1_xpm[] = {
"64 64 8 1",
" 	c None",
".	c #4E4EA5",
"+	c #00AAC8",
"@	c #000000",
"#	c #4E0068",
"$	c #008478",
"%	c #FF4848",
"&	c #B3EEEF",
".+...+.@@..##...#######...##..@@.+...+.@@..##@#..##@@@@@@@@#$@@#",
"+.###.+.@@#@##@@@#####@@@##@#@@.+.###.+.@@#@##@@##.....$#@@@.#@@",
".#$+$#.+.@@#@#...#@@@#...#@#@@.+.#$+$#.+.@@#@#..@@@#####+#@@##@@",
"#$###$#.+.@@#@###@###@###@#@@.+.#$###$#.+.@@#@###@#@@@@#$#@@.#@@",
".#####.#.+.@@#@#@#@@@#@#@#@@.+.#.#####.#.+.@@#@#@#@@@#@@.#@@.#@@",
"@#####@##.+.@@#@#@@@@@#@#@@.+.##@#####@##.+.@@#@#@@@@@#@.#@@.#@@",
"#@###@####.+.@@#@@...@@#@@.+.####@###@####.+.@@#@@...@@@.#@@.#@@",
"##@@@##@@@#.$.@@@.+++.@@@.$.#@@@##@@@##@@@#.$.@@@.+++.@@#.@@###@",
"#######...##..@@.+...+.@@..##...#######...##..@@.+...+.@@.#@@.#@",
"@#####@@@##@#@@.+.###.+.@@#@##@@@#####@@@##@#@@.+.###.+.@##@@.#@",
".#@@@#...#@#@@.+.#$+$#.+.@@#@#...#@@@#...#@#@@.+.#$+$#.+@#.#@@$#",
"#@###@###@#@@.+.#$###$#.+.@@#@###@###@###@#@@.+.#$###$#.+@.#@@#+",
"@#@@@#@#@#@@.+.#.#####.#.+.@@#@#@#@@@#@#@#@@.+.#.#####.#.@#$#@@#",
"#@@@@@#@#@@.+.##@#####@##.+.@@#@#@@@@@#@#@@.+.##@#####@##.@#+#@@",
"@@...@@#@@.+.####@###@####.+.@@#@@...@@#@@.+.####@###@####.@#+#@",
"@.+++.@@@.$.#@@@##@@@##@@@#.$.@@@.+++.@@@.$.#@@@##@@@##@@@#.@#$.",
".+...+.@@..##...#######...##..@@.+...+.@@..##...#######...##.@#.",
"+.###.+.@@#@##@@@#####@@@##@#@@.+.###.+.@@#@##@@@#####@@@##@#@@@",
".#$+$#.+.@@#@#...#@@@#...#@#@@.+.#$+$#.+.@@#@#...#@@@#...#@#@@.+",
"#$###$#.+.@@#@###@###@###@#@@.+.#$###$#.+.@@#@###@###@###@#@@.+.",
"......@#.+.@@#@#@#@@@#@#@#@@.+.#.#####.#.+.@@#@#@#@@@#@#@#@@.+.#",
"++++++.##.+.@@#@#@@@@@#@#@@.+.##@#####@##.+.@@#@#@@@@@#@#@@.+.##",
"....+.####.+.@@#@@...@@#@@.+.####@###@####.+.@@#@@   @@#@@.+.###",
"@@#..##@@@#.$.@@@.+++.@@@.$.#@@@##@@@##@@@#.$.@@@     @@@.$.#@@@",
"%%@#.##...##..@@.+...+.@@..##...#######...##..@@     #@@@..##...",
"@%@#.##@@##@#@@.+.###.+.@@#@##@@@#####@@@##@#@@      #@#@@#@##@@",
"#@@#.##..#@#@@.+.#$+$#.+.@@#@#...#@@@#...#@#@@      #@@# @@#@#..",
"+#@#.####@#@@.+.#$###$#.+.@@#@###@###@###@#@@       #@#   @@#@##",
".+##.###@#@@.+.#.#####.#.+.@@#@#@#@@@#@#@#@@       #@@#    @@#@#",
"..+&.##@#@@.+.##@#####@##.+.@@#@#@@@@@#@#@@@       #@#      @@#@",
".....###@@.+.####@###@####.+.@@#@@   @@#@@ @@     #@@#       @@#",
"..@@.##@@.$.#@@@##@@@##@@@#.$.@@@     @@@   @@    #@###       @@",
"..##.##@@..##...#######...##..@@       @     @@  #@@#  ##     @@",
"..+&.##.@@#@##@@@#####@@@##@#@@               @@ #@#     ##  @@.",
"@@@@#.#+.@@#@#...#@@@#...#@#@@                 @@@@#       #@@.+",
"@@@@@#@.+.@@#@###@###@###@#@@                   @@#        @@.+.",
".#@@.##@@@@@@#@#@#@@@#@#@#@@@@##                #@#       @@.+.#",
"##@@#.....#@@@#@#@@@@@#@#@@ ##@@@@@##          #@@#      @@.+.##",
"#.@@@#####..##@@@@...@@#@@      ###@@@@##      #@#      @@.+.###",
"@$#@@@@@@@@##..#@.+++.@@@            ##@@@@@# #@@#     @@.$.#@@@",
"@#+#@@@@@@@@@##$#@...+.@@                ###@@@@#      @@..##...",
"@@#$.#$..$#@@@@#+#@##.+.@@                   #@@#       @@#@##@@",
"@@@@#######..@@@#+#@$#.+.@@                  #@#         @@#@#..",
"$@@@@@@@@@###$#@@#$#@$#.+.@@                #@@#          @@#@##",
"#$.#@@@@@@@@@#+#@@..@#.#.+.@@     @@@       #@#            @@#@#",
"@###$..$##@@@@+#@@#.#@@##.+.@@   @@@@@     #@@#             @@#@",
"@@@######.$#@@@$#@@##@####.+.@@ @@...@@    #@#               @@#",
"#@@@@@@@@@#+#@@.#@@#.@#@@@#.$.@@@.+++.@@  #@@#                @@",
".##@@@@@@@@#$@@###@@.#@...##..@@.+...+.@@ #@#                 @@",
"##.....$#@@@.#@@.#@@.#@@@##@#@@.+.###.+.@@@@#                @@.",
"@@@#####+#@@##@@.#@@.#@..#@#@@.+.#$+$#.+.@@#                @@.+",
"#$#@@@@#$#@@.#@@.#@@.#@##@#@@.+.#$###$#.+.@@               @@.+.",
".#####.@.#@@.#@@.#@@.#@@..............@#.+.@@     @@@     @@.+.#",
"@#####@@#@@@#@@@.#@@.#@.++&&++++++++++.##.+.@@   @@@@@   @@.+.##",
"#@###@#@+#@@+#@@.#@@.#@#.+..........+.####.+.@@ @@...@@ @@.+.###",
"##@@@##@$#@@$#@@.#@@.#@##.@@..#@@@#..##@@@#.$.@@@.+++.@@@.$.#@@@",
"#######@.#@@.#@@.#@@.#@##.##..#@%%@#.##...##..@@.+...+.@@..##...",
"@#####@@.#@@.#@@#@@@#@@##.+&..+#@%@#.##@@##@#@@.+.###.+.@@#@##@@",
".#@@@#.@.#@@.#@@+#@@+#@##......+#@@#.##..#@#@@.+.#$+$#.+.@@#@#..",
"#@###@#@.#@@.#@@$#@@$#@##.##....+#@#.####@#@@.+.#$###$#.+.@@#@##",
"@#@@@#@@.#@@.#@@.#@@.#@##.#@@....+##.###@#@@.+.#.#####.#.+.@@#@#",
"#@@@@@#@#@@@#@@@.#@@.#@##.#@%@....+&.##@#@@.+.##@#####@##.+.@@#@",
"@@...@@@+#@@+#@@.#@@.#@##.#@@@@......###@@.+.####@###@####.+.@@#",
"@.+++.@@$#@@$#@@.#@@.#@##.#@%%@#..@@.##@@.$.#@@@##@@@##@@@#.$.@@"};
