/* XPM */
static char * wallrocksN_xpm[] = {
"64 64 11 1",
" 	c #0D080D",
".	c #151515",
"+	c #000000",
"@	c #1B1E29",
"#	c #1B2632",
"$	c #243137",
"%	c #343434",
"&	c #443F41",
"*	c #454541",
"=	c #524F40",
"-	c #52524C",
"   ...    + +  . ++++....+ ..          .  .++++....@.@ .    .  +",
"+ .@##@@@##@@@@#$%$#%%&$##@@$#@ ..  .  .@##$$####@#@$$$###.... +",
" @#%%&*****&%&&&%&%&*===%%$%$$.###@   .$$%&&%$$#$#$$@$&&%$##@.  ",
".#%$*&&&%%%%%&&$=*&&***&&$#@...$%@#. .$%&&*&&%$$%=*$%*&%$..#$@..",
".@$#&%%$$%&&&%%%$&*%&%%&&$%$%%&#@#$# @$&&&&&%%$&-&$&%%#@@@$##$..",
"@@$@$$&&&*&%$%%&*&&%%%$%%#$%**$@$@#@ #%%**%%%@*-%@#&*#.##$$$$#@+",
"@#$%$%#$%&%$%&&==&%%$$%$@%%&&$$%%###.$$*%&%%&=*%#$*&@@#@#%$%%%# ",
"##.%&%%$%$# @%=&$%%%&%%&&&&$$$&=*.@..$$&&#%&=*#@&*$.@##%#.#%%#@.",
".##.%&*%%%#%*=&$$$$%$$$%$#@#%=*%$#@  %##@@$%##%&&#@#$$$$#%**%%. ",
".$%#.#*&$&-**&%%$$%#$*&&&$#%=&%&#@#+.%%##@#$$%%$####%$$%&=*#@%@ ",
" ##$@.@%&&&%$$%%#&%&&&%%*-===$$%$$#.#%$$%&%%%#@#$%$%%&*=*&$.@#@.",
".@$%###@#$%$%%#@$#%$$%%&$%&%%$$%$#@.@$$$%@$@@.@ #@$%%%%%$@$###@ ",
" . @#$#####@@#@##@@###@.###$$$$%#@  ##.#@##@###@...#@#@###.###.+",
" .....@@##$##...@...@@..@.#@$##@@   @$$@##%$$#$##@@#$#@#@... .  ",
" .. .    ...+   + ..#...  ..@@@. ..  @@@ @...###.#@$#.+. . .  . ",
".......   +      ++ ++  + +      +++    ..   .    . . ....@@@.@.",
"@#.@##@#@@.@@@@.++  +.#@ ..@.. @.. @ .@. .  ..  + ++ ..$#@$$##.#",
"#%%%&*$.%%$$%#$@++ #$#%&*&&&$#$%#%&$$$##%%%#$$#. ++ #$#@@##@.@@#",
"%&%$%$#$&&%&=&%$  #$%&**&*&##$%%&***&$%*&%&%%$$#@  .#$###$$&%&%&",
"**%#@@#&%$##$%#@..@$&&$$&$$%%**--*%%&&=*%%*$&%$##@.@#@$%$$%%&&**",
"*&$###%*%#$&&$$# .@%&%$&%%&&&--*%%$%%=%$$%#%&#%%.#.@##&&%$$##%**",
"&&$@#%&$$%&%%$$@ .#$%$%&%*&%==*$%&%$%&%&&$&%%&&%#@.@@$*#$&$@##&*",
"%$$$$&%%&&&%$%&@ @%%$%%*&$%**%$%&*%%$&**%&%&%%%@##.@@%$#$%#@@@%*",
"#$$#$$$%&%&$$%$@ .%%&*&%$%&&&@@.%%%$&*=%&$$%$%@#@@.@.$$$%####%*%",
"$###$%&%$#&%$$@. .#%&%%%$%&&&*#&&%&&=-%&%$&%%$$#@@ @#@$$&$#$%&%%",
"#.##$#%#@$*%$#@ . $&$$%%%**%%*%%&%*-=&&%&@#%$%@.@...#@$#%#$&%%$%",
"#&%#%&%&$$%%$#@. .%%#$$*=*&&%&%%%===&#$%#. $&$#@#. @###@#%%&%$@%",
"&%$%&#$%$$$$$@@  @#$#%=**&&$%%%%*&%&###%&%**%@..#.  @@%%#$&%$@#%",
"&&%%%%$@@@@##.@  @$%&**$$$$%*%%&&$$$##%&#$$#@@#@#   .$$$$&%$##$%",
"#$$%%#@@$@..@..+.##%%$#$%&%&$$&&&$#$#$#.@$@@$@@#... .$%$$&$#%#*%",
"#..#.@.@. +.  . .$$$$##$%$#$$#@#%%$$%$$@#$##@@.@.    ##@$%$$#%$#",
".. .@.....  + .  .@#$$$$$###%#$$$##$####@.@@@@@. .   ..$@@##$$#@",
"   +      + .   . .@.  ....@.@ @ ..   .    . . ...   ...@@@.    ",
".   . .@@@@.#.         +    ++ +    + +  . +  . +    . . + + + +",
"$%%%&%&$$#@.#$.    . + @ .. ....++++ +           ..  .. +.+.+@$#",
"%%&&&&****$@.@#  .#@# @.#.@@#@@#.+ + .##@@@...  .@ @.@ .    .%#$",
"&%*&*==**&&$$..  #@@@@@@@###$%#$@#+ .@$#@@.##$$$$$#@.@.@.. +@&@%",
"$%**$$%%$#$#@.@+ #..@$@#$*&&%$%%%#. .@###%%%%&$&&%%&%$#@@.  #$$%",
"%%&&&&%$#$##@@@+ @.##$#&**%##$$$$%. @@$$&=&$%&&*=*%$#$%%$@. .&%$",
"&&&%&%#@$$###..+..@$$$**%$#...#$%$..##$**%$$&%*=*#$%$$&*$#...&%%",
"%&&&%%$%$&%###.. @@#$$*&$$#@@.@$%%.@#@%%%%@#*==&#$$#$%*&#@   %$&",
"%&%%%$#$&*$###.  .##@$&##$$###$$@#@.#@$%&&&==*&@@%%$%&=$$@ + %#$",
"#%&&%%%%=%###$@  .###%##@#@$%%$$##@..###&&*&$$##%&&=*&%%$@   %%$",
"$#$%%%&*&###&#.  .@$$$$ . $*=&%@.@@@.###$$%#$$$$%%&*%$&&*#  ##$#",
"@###&&&%##$&&$@++ #$$$#@#%==%&%$.#@@ ##$##$#$%@.#@##$$*&&#. #&$$",
"$$@.@$##%%*%%%# + @$%#.$&=&#$%&##....@@@@@%###... @.@@$#@.. @%%$",
"#$#$$$ @#%.##%. + ##$$@%%%#$%%#$@@    @@.#@#.@@..##.@...#@   @#$",
"@@@.. .##  . @+  +.@@@@@@@.@#@@#.@+  . +  ..    .##.   @@. +  . ",
" .+.  + + +.  +      ..  @ .   ..  .+++++    .  +. @..@.  +  ++ ",
"  + ...@##@. + +  .   .  .   . +++ . .  .  .+.  . .    + .. . . ",
"..   .@@. @. . +@@#$#.     .  +   .@#@.....@@@@. .  + +  @..###.",
"####%&&$$$$#@.....##%%%$#.@ ..+  @$$##@#$#$##@#@$@.@ ++.#$$$#.##",
"%%***&$##.@%&@ @@#@#@@$%%##$@@  .####$$$%%&%$%$$#@#@#. .$%$@#%&&",
"&%$*&%$#%##$%@ @..##%**&%$%##@ .@.$$$%%%&&*&*&&%%%$$@ ..#$##%%%&",
"$$==$$$%$#$$##.@.@%**=&%$%&$$$   $$%%&%$&*%@.$%$%%%%#..@#%%&&$%*",
"%==$$$%%#.%%$$ @.$*$#$@@#$%**%#+ %&&&%%&&$#@#%%$#%$$@  .#&&%##%&",
"==@$&*%$$&*$$$ #@&##.$#%#&-=*$@+ #$$$%%&%%$$$$@# %$$@. @#$%##%*=",
"*#&**%%*-*%$#@ ###%$%%%$%--=&##  $&%%$%*&&&$$#$#$%%@.. .@$&#%&-*",
"*&&=*=--==%##@ ##@%&%**====&%%@  #%$%&=-===&$%%%#%#.#.+ #%$&===&",
"&&&*=**&&$%#@. #@@$$%&**==&&&# + #$%$%&&&&&&&%%@%$#...  .#%**%&*",
"&&*&&%#$$#$$#. @@$$#$$$&&&*%#$.  ##$#@#$$%$$%&$%&#@#.. .@#$$$&*&",
"$%#@@@$#@@#@@. .@.@##@##$$%%%$@ +.#@..@###@.@##@@@@@.+ .####$@$&",
"       . . . ++  . .  . .#@#@. +.....#@@@#. .  .. . +.+  @....  ",
".@...@@@@@......++  ++++++++++++++++++++++++  + .........#####@@"};
